<svg width="41" height="51" xmlns="http://www.w3.org/2000/svg"><path d="M16.525 4.178c-2.897 1.72-4.681 4.847-5.91 7.88-1.406 3.45-2.13 7.165-2.456 10.868A47 47 0 0 0 8.642 35c.588 3.41 1.585 6.82 3.265 9.851 1.48 2.675 3.81 5.508 7.012 6.022 3.138.493 5.805-1.395 7.642-3.766 2.089-2.707 3.338-6.033 4.157-9.327.955-3.881 1.333-7.91 1.228-11.897-.095-3.87-.63-7.784-1.795-11.498-.987-3.168-2.457-6.441-4.881-8.78a10.173 10.173 0 0 0-1.858-1.428c-.872-.514-1.67.84-.798 1.364 2.614 1.542 4.23 4.49 5.311 7.229 1.27 3.23 1.984 6.693 2.289 10.155.336 3.777.241 7.627-.378 11.372-.525 3.2-1.396 6.42-2.908 9.306-1.291 2.434-3.254 5.193-6.151 5.717-2.761.504-5.102-1.605-6.561-3.703-1.816-2.623-2.897-5.697-3.611-8.78-.84-3.62-1.144-7.355-1.05-11.059.095-3.63.599-7.249 1.659-10.732.903-2.958 2.215-6.011 4.44-8.214a8.585 8.585 0 0 1 1.659-1.29c.881-.525.084-1.879-.788-1.365z"/><path d="M38.633 40.73c.713-3.001-.042-6.201-1.166-9.002-1.459-3.651-3.632-6.966-6.14-9.977a47.462 47.462 0 0 0-8.514-7.963c-2.991-2.171-6.33-4.039-9.91-5.025-2.96-.818-6.58-1.102-9.163.87-2.184 1.658-2.876 4.428-2.688 7.05.252 3.547 1.722 6.956 3.496 9.999 1.984 3.388 4.493 6.483 7.296 9.221 2.729 2.676 5.784 5.068 9.122 6.924 3.17 1.763 6.854 3.274 10.539 3.18a9.96 9.96 0 0 0 2.425-.357c.976-.273.556-1.794-.42-1.522-3.17.903-6.708-.23-9.605-1.563-3.191-1.469-6.14-3.483-8.797-5.78-2.813-2.424-5.364-5.183-7.495-8.225-1.994-2.843-3.716-5.97-4.577-9.348-.587-2.329-.84-5.11.557-7.207 1.522-2.287 4.587-2.54 7.064-2.12 3.412.567 6.603 2.151 9.49 3.998 3.023 1.94 5.763 4.3 8.22 6.924 2.508 2.664 4.723 5.623 6.413 8.865 1.417 2.706 2.603 5.801 2.53 8.907a7.883 7.883 0 0 1-.22 1.72c-.21.997 1.301 1.416 1.543.43z"/><path d="M5.65 45.545c3.401 1.154 7.212.084 10.382-1.27 3.464-1.479 6.634-3.63 9.51-6.053a46.944 46.944 0 0 0 8-8.697c2.14-3.032 3.988-6.42 4.88-10.04.641-2.633.84-5.728-.66-8.12-1.596-2.57-4.64-3.41-7.517-3.18-3.674.295-7.2 1.868-10.329 3.746-3.244 1.962-6.214 4.396-8.86 7.103-2.74 2.811-5.185 5.959-7.054 9.41-1.606 2.97-2.939 6.337-2.981 9.757-.01.692.063 1.385.178 2.067.179.996 1.69.577 1.523-.42-.504-2.801.409-5.812 1.532-8.361 1.47-3.337 3.538-6.4 5.91-9.16 2.383-2.769 5.08-5.287 8.051-7.406 2.782-1.983 5.847-3.703 9.165-4.637 2.55-.713 5.962-1.143 8.124.776 1.795 1.585 2.037 4.144 1.732 6.38-.461 3.356-2.005 6.535-3.779 9.378-1.942 3.105-4.324 5.917-6.97 8.435-2.561 2.434-5.385 4.595-8.481 6.295-2.94 1.615-6.362 3.021-9.784 2.853a7.445 7.445 0 0 1-2.141-.409c-.977-.283-1.386 1.238-.43 1.553z"/><path d="M6.393 43c-.032 1.31-1.065 2.408-2.406 2.408-1.31 0-2.406-1.098-2.406-2.408a2.425 2.425 0 0 1 2.406-2.408c1.341 0 2.384 1.098 2.406 2.408.02 1.023 1.618 1.033 1.596 0-.042-1.704-1.064-3.185-2.672-3.771-1.533-.565-3.353-.053-4.385 1.193-1.065 1.289-1.246 3.143-.394 4.602.862 1.47 2.576 2.216 4.247 1.907C6.66 46.58 7.957 44.875 8 43.011c.01-1.034-1.586-1.034-1.607-.011zm32.999 0c-.032 1.31-1.064 2.408-2.405 2.408-1.31 0-2.406-1.098-2.406-2.408a2.425 2.425 0 0 1 2.406-2.408c1.34 0 2.384 1.098 2.405 2.408.022 1.023 1.618 1.033 1.597 0-.042-1.704-1.064-3.185-2.672-3.771-1.533-.565-3.353-.053-4.385 1.193-1.065 1.289-1.246 3.143-.394 4.602.862 1.47 2.576 2.216 4.247 1.907 1.874-.352 3.172-2.056 3.215-3.92.021-1.044-1.576-1.044-1.608-.011zM23.424 27.002c-.02 1.408-.882 2.722-2.226 3.215-1.376.494-2.93.084-3.855-1.04-.914-1.103-1.019-2.71-.284-3.94.725-1.209 2.196-1.892 3.592-1.597a3.468 3.468 0 0 1 2.773 3.362c.021 1.009 1.597 1.02 1.576 0a5.075 5.075 0 0 0-3.32-4.707c-1.942-.725-4.242-.074-5.545 1.534-1.313 1.618-1.523 3.94-.441 5.747 1.082 1.797 3.182 2.711 5.23 2.344 2.364-.42 4.023-2.554 4.065-4.918.032-1.009-1.544-1.009-1.565 0zM22.393 4c-.032 1.31-1.065 2.408-2.406 2.408-1.31 0-2.406-1.098-2.406-2.408a2.425 2.425 0 0 1 2.406-2.408c1.341 0 2.374 1.087 2.406 2.408.02 1.023 1.618 1.033 1.596 0-.042-1.704-1.064-3.185-2.672-3.771-1.533-.565-3.353-.053-4.385 1.193-1.065 1.289-1.246 3.143-.394 4.602.862 1.47 2.576 2.216 4.247 1.907C22.66 7.58 23.957 5.875 24 4.011c.01-1.044-1.586-1.044-1.607-.011z"/></svg>