<svg width="21" height="22" xmlns="http://www.w3.org/2000/svg"><g fill="#FFF"><path d="M10.546 3.885a7.902 7.902 0 1 0-.006 15.803 7.902 7.902 0 0 0 .006-15.803zm0 14.877a6.978 6.978 0 1 1 6.976-6.979 6.985 6.985 0 0 1-6.976 6.975v.004z"/><path d="M13.454 2.482a3.034 3.034 0 0 0-5.539-.084 9.748 9.748 0 1 0 5.539.084zm-1.314-.308a9.745 9.745 0 0 0-1.594-.136 9.618 9.618 0 0 0-1.308.093 2.102 2.102 0 0 1 2.902.043zm-1.594 18.43a8.825 8.825 0 1 1 8.822-8.82 8.834 8.834 0 0 1-8.822 8.82z"/><path d="M14.73 7.915a.225.225 0 0 0-.024-.307.228.228 0 0 0-.308-.025l-3.812 2.742h-.04c-.809 0-1.464.655-1.464 1.464v.046l-2.711 3.8a.234.234 0 0 0 .024.308.23.23 0 0 0 .163.068.234.234 0 0 0 .133-.043l3.809-2.726h.046c.807 0 1.462-.655 1.462-1.462v-.043l2.723-3.822zm-4.184 4.407a.542.542 0 1 1-.006-1.084.542.542 0 0 1 .006 1.084zm-.461-5.007a.462.462 0 1 0 .923 0V5.562a.462.462 0 0 0-.923 0v1.753zm.461 8.33a.462.462 0 0 0-.461.461v1.757a.462.462 0 1 0 .923 0v-1.757a.462.462 0 0 0-.462-.461zM6.61 11.712a.462.462 0 0 0-.46-.461H4.394a.462.462 0 1 0 0 .923H6.15a.462.462 0 0 0 .462-.462zm10.084-.462H14.94a.462.462 0 1 0 0 .924h1.754a.462.462 0 0 0 0-.923z"/></g></svg>