<svg width="54" height="54" xmlns="http://www.w3.org/2000/svg"><path d="M27.01 0A26.994 26.994 0 0 0 2.19 16.373l-.336.111.13.392C-3.615 30.687 3.041 46.423 16.85 52.023A26.975 26.975 0 0 0 27.002 54C41.91 54.002 53.998 41.916 54 27.004 54.002 12.092 41.918.002 27.01 0zm21.174 40.613l-1.387-1.386V36a.9.9 0 0 0-.09-.402l-3.509-7.01V25.2a.9.9 0 0 0-.4-.749l-2.7-1.8a.9.9 0 0 0-.72-.124l-3.305.826-5.553-2.383-.764-5.353 2.117-2.117h4.545l1.53 2.3a.9.9 0 0 0 .6.387l5.4.9a.892.892 0 0 0 .432-.034l4.972-1.658a25.114 25.114 0 0 1-1.168 25.218zM44.472 8.869l-1.463.975-4.079-.816-2.646-.881a.883.883 0 0 0-.502-.02l-3.346.836-1.466-.489L32.057 6.3H35.1a.9.9 0 0 0 .402-.095l3.113-1.557a25.287 25.287 0 0 1 5.857 4.22zm-27.326-5.06l2.16 1.44a.9.9 0 0 0 .351.14l4.36.726-.425 1.274-2.272.759a.9.9 0 0 0-.487.39l-2.584 4.307-4.15 2.491-6.12.874a.9.9 0 0 0-.773.89v2.7a.9.9 0 0 0 .263.636l1.536 1.537v1.546l-3.743-2.497-1.358-4.074A25.342 25.342 0 0 1 17.146 3.81zm-2.562 29.509l-4.067-.815-1.512-3.015v-2.115l3.353-3.354 1.24 2.483a.9.9 0 0 0 .806.498h5.79l2.437 4.063a.9.9 0 0 0 .771.437h2.502l-.63 3.156-3.407 3.408a.9.9 0 0 0-.264.636v2.25l-3.24 2.43a.9.9 0 0 0-.36.72v3.25l-1.119-.37-1.58-3.953V34.2a.9.9 0 0 0-.72-.882zM11.88 47.153a25.197 25.197 0 0 1-8.974-27.511l.748 2.242a.9.9 0 0 0 .354.465l4.485 2.99-1.023 1.025a.9.9 0 0 0-.263.636v2.7a.9.9 0 0 0 .094.402l1.8 3.6a.9.9 0 0 0 .63.48l3.779.755V43.2a.9.9 0 0 0 .064.334l1.8 4.5a.9.9 0 0 0 .551.52l2.7.9a.9.9 0 0 0 1.18-.853V44.55l3.238-2.43a.9.9 0 0 0 .36-.72v-2.327l3.336-3.337a.9.9 0 0 0 .246-.46l.9-4.5a.9.9 0 0 0-.882-1.076h-3.09l-2.438-4.064a.9.9 0 0 0-.771-.436H14.96l-1.546-3.102a.9.9 0 0 0-1.441-.234l-1.168 1.163V21.6a.9.9 0 0 0-.264-.636l-1.536-1.537V17.88l5.527-.789a.904.904 0 0 0 .336-.12l4.499-2.7a.9.9 0 0 0 .307-.308l2.529-4.214 2.383-.796a.89.89 0 0 0 .57-.569l.899-2.7a.9.9 0 0 0-.705-1.17l-5.209-.868-.915-.61a25.12 25.12 0 0 1 17.305.643l-1.643.821H31.5a.9.9 0 0 0-.81.498l-1.8 3.6a.9.9 0 0 0 .521 1.255l2.7.9a.883.883 0 0 0 .502.02l3.345-.836 2.451.816a.661.661 0 0 0 .108.029l4.5.9a.89.89 0 0 0 .675-.133l2.048-1.366a25.39 25.39 0 0 1 2.707 3.617l-4.427 1.476-4.794-.8-1.583-2.376a.9.9 0 0 0-.744-.4h-5.4a.9.9 0 0 0-.636.264l-2.699 2.7a.9.9 0 0 0-.255.764l.9 6.3a.9.9 0 0 0 .54.7l6.299 2.7a.89.89 0 0 0 .572.045l3.213-.804 1.965 1.312V28.8a.9.9 0 0 0 .09.402l3.509 7.01V39.6a.9.9 0 0 0 .263.636l1.883 1.884c-8.348 11.13-24.137 13.384-35.265 5.033z"/></svg>