<svg width="53" height="51" xmlns="http://www.w3.org/2000/svg"><path d="M39.989 43.942c.113.039.232.059.352.058.523.001.97-.37 1.057-.88a1.054 1.054 0 0 0-.705-1.173c-2.935-1.015-4.556-3.596-4.556-7.266 0-4.344 5.443-9.343 7.363-10.967 1.902 1.624 7.363 6.605 7.363 10.967 0 3.595-1.562 6.158-4.404 7.214a1.05 1.05 0 1 0-.303 1.805c.295.24.697.305 1.055.172C50.892 42.504 53 39.152 53 34.681c0-6.275-8.478-12.892-8.842-13.17L43.5 21l-.658.51C42.467 21.79 34 28.406 34 34.68c0 4.57 2.184 7.946 5.989 9.262zM12.49 41.96a1.07 1.07 0 0 0 1.055-.28 1.05 1.05 0 0 0 .249-1.054 1.06 1.06 0 0 0-.82-.716C6.082 38.29 2.127 32.772 2.127 24.743 2.126 15.573 14.05 5.14 17 2.698c2.956 2.443 14.874 12.869 14.874 22.045 0 8.047-3.967 13.564-10.878 15.15a1.055 1.055 0 0 0-.836 1.147c.06.538.523.943 1.07.937.081.009.163.009.245 0C29.315 40.177 34 33.751 34 24.772c0-4.846-2.77-10.42-8.231-16.546A66.983 66.983 0 0 0 17.654.51L17 0l-.678.51a67.187 67.187 0 0 0-8.085 7.687C2.77 14.328 0 19.897 0 24.743 0 33.704 4.668 40.13 12.49 41.96z"/><path d="M44.003 51c.607 0 1.099-.487 1.099-1.088v-8.965l3.574-3.538a1.08 1.08 0 0 0 .287-1.05c-.1-.376-.397-.67-.776-.772a1.107 1.107 0 0 0-1.062.28l-2.023 2.002v-4.781c0-.601-.492-1.088-1.099-1.088s-1.099.487-1.099 1.088v4.781l-2.023-2.002a1.107 1.107 0 0 0-1.554-.009 1.08 1.08 0 0 0-.01 1.539l3.575 3.538V49.9c-.003.293.113.574.322.781.209.207.493.322.789.319zm-27.05-1c.293.003.574-.107.782-.306.208-.199.325-.47.325-.753V37.732l9.525-9.22a1.04 1.04 0 0 0 .387-1.067 1.078 1.078 0 0 0-.833-.796 1.115 1.115 0 0 0-1.1.386l-7.979 7.702v-7.068l7.347-7.096c.277-.267.386-.657.286-1.023a1.078 1.078 0 0 0-.774-.75 1.122 1.122 0 0 0-1.058.272l-5.8 5.637v-9.65c0-.585-.49-1.059-1.096-1.059-.604 0-1.095.474-1.095 1.059v9.65L10.076 19.1a1.125 1.125 0 0 0-1.552 0 1.036 1.036 0 0 0 0 1.501l7.346 7.096v7.039l-7.996-7.702a1.125 1.125 0 0 0-1.552 0 1.036 1.036 0 0 0 0 1.501l9.536 9.196v11.21c.004.583.492 1.055 1.095 1.058z"/></svg>