<svg width="54" height="55" xmlns="http://www.w3.org/2000/svg"><path d="M43.813 4.103l3.548 3.803a1 1 0 0 0 1.463-1.365l-3.55-3.802a1 1 0 1 0-1.461 1.364z"/><path d="M45.152 7.85l3.726-3.621a1 1 0 1 0-1.394-1.435l-3.726 3.622a1 1 0 1 0 1.394 1.434zM.617 48.628l4.505 2.538a1 1 0 1 0 .982-1.743l-4.505-2.538a1 1 0 0 0-.982 1.743z"/><path d="M2.996 51.8l2.488-4.597a1 1 0 0 0-1.76-.952l-2.487 4.597a1 1 0 0 0 1.759.952zM37.208 1.629l1.98 2.12a.5.5 0 1 0 .732-.682L37.938.947a.5.5 0 1 0-.73.682z"/><path d="M37.872 3.717l2.08-2.02a.5.5 0 0 0-.697-.718L37.175 3a.5.5 0 0 0 .697.718zM9.985 52.723l2.513 1.417a.5.5 0 0 0 .491-.872l-2.514-1.416a.5.5 0 0 0-.49.871z"/><path d="M11.233 54.517l1.388-2.566a.5.5 0 1 0-.88-.475l-1.387 2.565a.5.5 0 1 0 .88.476zM42.94 23.304a1.25 1.25 0 0 1 1.75 1.146v18.308c0 .69-.56 1.25-1.25 1.25H13.57c-.69 0-1.25-.56-1.25-1.25V24.876c0-.888.9-1.493 1.722-1.158l14.447 5.88 14.451-6.294zm-13.936 8.797a1.25 1.25 0 0 1-.97.012L14.82 26.734v14.774h27.368v-15.15L29.004 32.1z"/><path d="M52.337 19.756c1.017.431 1.016 1.874-.003 2.303L45.351 25l-16.866 7.106c-.31.13-.66.13-.97 0L10.649 25l-6.983-2.942c-.996-.42-1.026-1.82-.05-2.282L26.15 9.112a1.25 1.25 0 0 1 1.023-.021l25.165 10.665zM26.712 11.61l-19.5 9.23 4.407 1.856L28 29.6l16.38-6.902 4.258-1.794-21.926-9.292z"/><path d="M28.08 20.972c.06-.004.185-.01.369-.016 3.058-.102 6.78.16 10.319 1.081 6.163 1.606 9.834 4.763 10.125 9.915l-.001 5.529a1.25 1.25 0 0 0 2.5 0v-5.6c-.367-6.52-4.896-10.414-11.994-12.263-3.812-.993-7.755-1.27-11.032-1.16-.208.007-.356.014-.439.019a1.25 1.25 0 0 0 .153 2.495z"/></svg>