<svg width="36" height="53" xmlns="http://www.w3.org/2000/svg"><path d="M33.072 13.891l.519-4.94-4.56-2.017-2.027-4.537-4.964.516L18 0l-4.04 2.914-4.964-.517-2.028 4.537L2.41 8.952l.518 4.939L0 17.911l2.928 4.02-.519 4.94 4.56 2.018 1.053 2.355V53L18 46.794 27.978 53V31.244l1.054-2.355 4.559-2.018-.518-4.94L36 17.911l-2.928-4.02zM18 44.191l-7.761 4.827V33.296l3.72-.386L18 35.822l4.04-2.913 3.721.387v15.721L18 44.192zm13.218-18.686l-3.866 1.712-1.72 3.847-4.206-.437L18 33.097l-3.426-2.47-4.205.437-1.721-3.847-3.866-1.712.439-4.185-2.482-3.409 2.482-3.409-.44-4.184 3.867-1.713 1.72-3.847 4.206.437L18 2.725l3.426 2.47 4.205-.437 1.721 3.847 3.866 1.713-.439 4.184 2.482 3.41-2.482 3.408.44 4.185z"/><path d="M17.5 6C11.159 6 6 11.159 6 17.5S11.159 29 17.5 29 29 23.841 29 17.5 23.841 6 17.5 6zm0 20.7c-5.073 0-9.2-4.127-9.2-9.2 0-5.073 4.127-9.2 9.2-9.2 5.073 0 9.2 4.127 9.2 9.2 0 5.073-4.127 9.2-9.2 9.2z"/></svg>