<svg width="57" height="53" xmlns="http://www.w3.org/2000/svg"><path d="M7.5 43.646c-1.636 0-3-.727-4.09-1.89-1.092-1.162-1.637-2.761-1.637-4.36 0-1.6.682-3.198 1.772-4.361C4.636 31.872 6 31.291 7.636 31.291c3.137 0 5.728 2.762 5.728 6.25-.137 3.343-2.728 6.105-5.864 6.105zm0-10.611c-1.09 0-2.045.436-2.864 1.308-.818.872-1.227 1.89-1.227 3.053s.41 2.325 1.227 3.052c.819.872 1.773 1.308 2.864 1.308 2.318 0 4.09-1.89 4.09-4.36 0-2.326-1.772-4.361-4.09-4.361z"/><path d="M14.727 52.804h-1.636v-1.745c0-1.599-.546-3.052-1.636-4.215C10.364 45.68 9 45.1 7.5 45.1c-3 0-5.59 2.616-5.59 5.96v1.744H.272v-1.89c0-4.215 3.272-7.704 7.227-7.704h.136c3.955 0 7.228 3.489 7.091 7.85v1.744zm34.417-9.158c-.144 0-.144 0 0 0-1.723 0-3.16-.727-4.308-1.89-1.149-1.162-1.723-2.761-1.723-4.36 0-1.6.718-3.198 1.866-4.361 1.15-1.163 2.585-1.744 4.308-1.744 3.303 0 6.03 2.762 6.03 6.25-.143 3.343-2.87 6.105-6.173 6.105zM49 33.035c-1.149 0-2.154.436-3.015 1.308-.862.872-1.293 1.89-1.293 3.053s.431 2.325 1.293 3.052c.861.872 1.866 1.308 3.015 1.308 2.441 0 4.308-1.89 4.308-4.36.143-2.326-1.723-4.361-4.308-4.361.144 0 .144 0 0 0z"/><path d="M56.61 52.804h-1.723v-1.745c0-1.599-.574-3.052-1.723-4.215C52.015 45.68 50.58 45.1 49 45.1c-3.159 0-5.887 2.616-5.887 5.96v1.744H41.39v-1.89c0-4.215 3.446-7.704 7.61-7.704h.144c4.164 0 7.61 3.489 7.466 7.85v1.744zM28.5 12.298c-1.636 0-3-.721-4.09-1.875-1.092-1.153-1.637-2.74-1.637-4.326 0-1.586.682-3.172 1.772-4.326C25.636.617 27 .041 28.636.041c1.5 0 3 .72 4.091 1.874 1.091 1.154 1.637 2.74 1.637 4.326 0 1.587-.682 3.173-1.773 4.326-1.091 1.154-2.591 1.73-4.091 1.73zm0-10.383c-1.09 0-2.045.433-2.864 1.298-.818.865-1.227 1.875-1.227 3.028 0 2.452 1.773 4.326 4.091 4.47 1.09 0 2.182-.432 2.864-1.297.818-.865 1.227-1.875 1.227-3.028 0-1.154-.41-2.308-1.227-3.029-.682-1.01-1.637-1.442-2.864-1.442z"/><path d="M34.09 21.383v-1.73c0-1.587-.545-3.03-1.635-4.183-1.091-1.153-2.455-1.73-3.955-1.73s-2.864.577-3.955 1.73c-1.09 1.154-1.636 2.596-1.636 4.182v1.875h-1.636v-1.875c0-2.019.818-4.038 2.182-5.335 1.363-1.442 3.136-2.163 5.045-2.163h.136c1.91 0 3.682.865 5.046 2.307 1.363 1.442 2.045 3.46 2.045 5.48v1.73l-1.636-.288zM28 24h2v12h-2zm-1.647 13.178l.864 1.478-9.483 5.402-.864-1.478zm4.215-.055l9.482 5.404-.864 1.478-9.482-5.405z"/><path d="M28.5 39a2.507 2.507 0 0 1-2.5-2.5c0-1.375 1.125-2.5 2.5-2.5s2.5 1.125 2.5 2.5-1.25 2.5-2.5 2.5zm0-3.375c-.5 0-1 .375-1 1s.375 1 1 1 1-.375 1-1-.5-1-1-1z"/></svg>