<?xml version="1.0" standalone="no"?>
<!DOCTYPE svg PUBLIC "-//W3C//DTD SVG 1.1//EN" "http://www.w3.org/Graphics/SVG/1.1/DTD/svg11.dtd" >
<svg xmlns="http://www.w3.org/2000/svg" xmlns:xlink="http://www.w3.org/1999/xlink" version="1.1">
<metadata>
Created by FontForge 20170731 at Wed Dec 14 15:49:29 2016
 By Aleksey,,,
Copyright (c) Milos Mitrovic, 2016. All rights reserved.
</metadata>
<defs>
<font id="BergenSans-SemiBoldItalic" horiz-adv-x="544" >
  <font-face 
    font-family="Bergen Sans Semi Bold Italic"
    font-weight="600"
    font-style="italic"
    font-stretch="normal"
    units-per-em="1000"
    panose-1="0 0 7 0 0 0 0 0 0 0"
    ascent="800"
    descent="-200"
    x-height="464"
    cap-height="704"
    bbox="-251 -304 1128.33 1024"
    underline-thickness="50"
    underline-position="-200"
    unicode-range="U+0020-25CA"
  />
<missing-glyph horiz-adv-x="528" 
d="M433 800v-1056h-335v1056h335zM352 729h-175v-35h69v-39h-70v-35h176v35h-70v39h70v35zM282 593h-106v-110h176v36h-70v74zM246 557v-38h-35v38h35zM352 455h-176v-35h70v-39h-70v-35h106v74h70v35zM352 391h-35v-69h-141v-36h176v105zM352 262h-106v-59h36v25h35v-50
h-106v84h-35v-119h176v119zM352 80h-176v-120h176v120zM317 45v-50h-106v50h106zM352 -64h-176v-35h74l-74 -49v-35h176v35h-108l74 49h34v35z" />
    <glyph glyph-name=".notdef" horiz-adv-x="528" 
d="M433 800v-1056h-335v1056h335zM352 729h-175v-35h69v-39h-70v-35h176v35h-70v39h70v35zM282 593h-106v-110h176v36h-70v74zM246 557v-38h-35v38h35zM352 455h-176v-35h70v-39h-70v-35h106v74h70v35zM352 391h-35v-69h-141v-36h176v105zM352 262h-106v-59h36v25h35v-50
h-106v84h-35v-119h176v119zM352 80h-176v-120h176v120zM317 45v-50h-106v50h106zM352 -64h-176v-35h74l-74 -49v-35h176v35h-108l74 49h34v35z" />
    <glyph glyph-name=".null" horiz-adv-x="0" 
 />
    <glyph glyph-name="nonmarkingreturn" horiz-adv-x="333" 
 />
    <glyph glyph-name="space" unicode=" " horiz-adv-x="304" 
 />
    <glyph glyph-name="exclam" unicode="!" horiz-adv-x="288" 
d="M72 224l43 480h144l-75 -480h-112zM100 -8q-34 0 -54 23t-16 57t29.5 57t59.5 23t54.5 -23t16.5 -57q-5 -34 -30.5 -57t-59.5 -23z" />
    <glyph glyph-name="quotedbl" unicode="&#x22;" horiz-adv-x="432" 
d="M190 464h-128l29 240h128zM398 464h-128l29 240h128z" />
    <glyph glyph-name="numbersign" unicode="#" horiz-adv-x="688" 
d="M648 416h-113l-30 -128h111l-12 -96h-122l-45 -192h-112l45 192h-128l-45 -192h-112l45 192h-102l12 96h113l30 128h-111l12 96h122l45 192h112l-45 -192h128l45 192h112l-45 -192h102zM393 288l30 128h-128l-30 -128h128z" />
    <glyph glyph-name="dollar" unicode="$" 
d="M292 451q36 -15 56 -25t49.5 -26.5t45.5 -34t31 -41.5t19.5 -54.5t0.5 -67.5q-9 -76 -69.5 -135t-148.5 -72l-11 -91h-80l11 90q-73 10 -125 52.5t-67 73.5l85 90q31 -48 73 -73t85 -25q47 0 80.5 26t37.5 58q9 81 -82 117q-108 43 -153 93t-36 129q8 66 61 114t129 60
l11 91h80l-11 -90q79 -9 144 -76l-82 -94q-50 52 -117 52q-31 0 -57 -15.5t-30 -41.5q-4 -30 14 -49t56 -35z" />
    <glyph glyph-name="percent" unicode="%" horiz-adv-x="816" 
d="M214 392q-68 0 -108.5 46.5t-32.5 113.5q7 67 59.5 113.5t120.5 46.5q67 0 107.5 -46.5t32.5 -113.5t-60 -113.5t-119 -46.5zM189 0h-96l534 704h96zM225 488q25 0 46.5 19t25.5 45q3 25 -14 44.5t-43 19.5q-25 0 -46.5 -19t-24.5 -45q-4 -25 13 -44.5t43 -19.5zM565 -8
q-68 0 -109 46.5t-33 113.5t61 113.5t120 46.5t107 -46.5t32 -113.5t-59.5 -113.5t-118.5 -46.5zM576 88q25 0 46.5 19t24.5 45q4 25 -13 44.5t-43 19.5q-25 0 -46.5 -19t-25.5 -45q-3 -25 14 -44.5t43 -19.5z" />
    <glyph glyph-name="ampersand" unicode="&#x26;" horiz-adv-x="609" 
d="M573 320l-12 -96h-65q2 -92 -71 -162t-181 -70q-105 0 -165 62t-47 170q7 56 40 103.5t74 72.5q-54 49 -43 136q8 71 72 123.5t165 52.5q94 0 152 -68l-84 -93q-27 41 -80 41q-47 0 -71.5 -20t-27.5 -49q-4 -29 16.5 -53.5t69.5 -29.5l-12 -96q-61 -4 -99 -38t-44 -82
q-6 -49 20 -80.5t79 -31.5q58 0 86.5 39.5t21.5 72.5h-47l12 96h241z" />
    <glyph glyph-name="quotesingle" unicode="'" horiz-adv-x="224" 
d="M190 464h-128l29 240h128z" />
    <glyph glyph-name="parenleft" unicode="(" horiz-adv-x="304" 
d="M319 736q-119 -195 -147 -416q-27 -224 45 -416l-112 -64q-94 212 -61 480q34 270 179 480z" />
    <glyph glyph-name="parenright" unicode=")" horiz-adv-x="304" 
d="M79 736l112 64q94 -212 61 -480q-34 -270 -179 -480l-96 64q121 198 147 416q28 220 -45 416z" />
    <glyph glyph-name="asterisk" unicode="*" horiz-adv-x="432" 
d="M286 597l99 43l24 -85l-106 -32l56 -82l-80 -53l-48 86l-69 -86l-68 53l78 82l-99 32l44 85l90 -43l8 107h90z" />
    <glyph glyph-name="plus" unicode="+" horiz-adv-x="464" 
d="M421 392l-12 -96h-136l-17 -136h-96l17 136h-136l12 96h136l17 136h96l-17 -136h136z" />
    <glyph glyph-name="comma" unicode="," horiz-adv-x="240" 
d="M5 -128l31 256h128l-79 -256h-80z" />
    <glyph glyph-name="hyphen" unicode="-" horiz-adv-x="400" 
d="M334 208h-304l12 96h304z" />
    <glyph glyph-name="period" unicode="." horiz-adv-x="256" 
d="M84 -8q-34 0 -54 23t-16 57t29.5 57t59.5 23t54.5 -23t16.5 -57q-5 -34 -30.5 -57t-59.5 -23z" />
    <glyph glyph-name="slash" unicode="/" 
d="M107 -80h-112l442 864h112z" />
    <glyph glyph-name="zero" unicode="0" horiz-adv-x="720" 
d="M404 712q131 0 209 -103.5t59 -256.5t-122 -256.5t-234 -103.5t-209 103.5t-59 256.5t122 256.5t234 103.5zM331 112q77 0 138.5 68t74.5 172t-32.5 172t-122.5 68t-138.5 -68t-74.5 -172t32.5 -172t122.5 -68z" />
    <glyph glyph-name="one" unicode="1" horiz-adv-x="368" 
d="M317 720l-1 -10l-87 -710h-128l68 551l-118 -43l15 120z" />
    <glyph glyph-name="two" unicode="2" horiz-adv-x="576" 
d="M412 256l-128 -136h216l-15 -120h-480l244 244q96 96 129 147t38 94q6 46 -23 76.5t-76 30.5t-83 -30.5t-42 -76.5q-6 -47 20 -78l-114 -53q-42 60 -33 135q11 92 85.5 157.5t181.5 65.5q102 0 163 -64t50 -159q-14 -110 -133 -233z" />
    <glyph glyph-name="three" unicode="3" horiz-adv-x="592" 
d="M340 450q89 -2 145.5 -59.5t43.5 -158.5q-13 -107 -91 -173.5t-192 -66.5q-108 0 -162.5 61t-55.5 139l118 30q2 -50 34 -80t81 -30q51 0 92.5 34.5t47.5 85.5q8 64 -51 92t-130 -1l-52 93l150 168h-210l15 120h448z" />
    <glyph glyph-name="four" unicode="4" horiz-adv-x="576" 
d="M6 140l289 564h126l-219 -444h107l17 140h128l-17 -140h80l-15 -120h-80l-17 -140h-128l17 140h-288z" />
    <glyph glyph-name="five" unicode="5" horiz-adv-x="576" 
d="M222 451q38 17 81 21t83.5 -9t72 -40.5t47 -78t7.5 -116.5q-13 -102 -89 -169t-180 -67q-103 0 -158 60t-58 140l127 34q2 -53 29 -83.5t75 -30.5q49 0 84.5 33t41.5 83q7 59 -24.5 93t-82 31.5t-95.5 -39.5l-112 31l100 360h321l-15 -120h-218z" />
    <glyph glyph-name="six" unicode="6" horiz-adv-x="592" 
d="M295 471q110 11 179.5 -54.5t55.5 -176.5q-13 -106 -93.5 -177t-184.5 -71q-113 0 -172 69.5t-46 178.5q10 74 62.5 154.5t240.5 309.5h146zM267 112q53 0 90.5 34.5t43.5 85.5t-23 85.5t-82 34.5t-91 -34.5t-44 -85.5t23.5 -85.5t82.5 -34.5z" />
    <glyph glyph-name="seven" unicode="7" horiz-adv-x="528" 
d="M91 704h480l-358 -704h-140l301 584h-298z" />
    <glyph glyph-name="eight" unicode="8" horiz-adv-x="576" 
d="M531 510q-9 -82 -78 -138q70 -62 58 -158q-11 -93 -88.5 -157.5t-178.5 -64.5q-106 0 -165 64t-48 158q12 100 94 158q-51 54 -42 138q11 85 81 143.5t168 58.5q94 0 152 -59t47 -143zM211 508q-4 -35 21 -59.5t65 -24.5t71 24.5t35 59.5t-21 59.5t-65 24.5t-71 -24.5
t-35 -59.5zM383 212q5 42 -24 71t-76 29t-83 -29t-41 -71t24 -71t76 -29t83 29t41 71z" />
    <glyph glyph-name="nine" unicode="9" horiz-adv-x="592" 
d="M297 233q-110 -11 -179.5 54.5t-55.5 176.5q13 106 93.5 177t184.5 71q113 0 172 -69.5t46 -178.5q-10 -74 -62.5 -154.5t-240.5 -309.5h-146zM325 592q-53 0 -90.5 -34.5t-43.5 -85.5t23 -85.5t82 -34.5t91 34.5t44 85.5t-23.5 85.5t-82.5 34.5z" />
    <glyph glyph-name="colon" unicode=":" horiz-adv-x="256" 
d="M123 312q-34 0 -54 23t-16 57t30 57t60 23t54 -23t16 -57q-5 -34 -30.5 -57t-59.5 -23zM84 -8q-34 0 -54 23t-16 57t29.5 57t59.5 23t54.5 -23t16.5 -57q-5 -34 -30.5 -57t-59.5 -23z" />
    <glyph glyph-name="semicolon" unicode=";" horiz-adv-x="256" 
d="M123 312q-34 0 -54 23t-16 57t30 57t60 23t54 -23t16 -57q-5 -34 -30.5 -57t-59.5 -23zM13 -128l31 256h128l-79 -256h-80z" />
    <glyph glyph-name="less" unicode="&#x3c;" horiz-adv-x="466" 
d="M390 128l-348 176l10 80l392 176l-14 -112l-255 -104l229 -104z" />
    <glyph glyph-name="equal" unicode="=" horiz-adv-x="464" 
d="M64 480h368l-12 -96h-368zM42 304h368l-12 -96h-368z" />
    <glyph glyph-name="greater" unicode="&#x3e;" horiz-adv-x="466" 
d="M20 128l14 112l255 104l-229 104l14 112l348 -176l-10 -80z" />
    <glyph glyph-name="question" unicode="?" horiz-adv-x="480" 
d="M262 712q102 0 151 -58.5t39 -137.5q-5 -43 -26 -80t-40.5 -56.5t-58.5 -51.5q-54 -45 -63 -104h-112q6 75 48 131q17 22 48.5 48t51 49t23.5 54q5 38 -17 62t-63 24q-31 0 -56.5 -15.5t-39.5 -35.5l-66 80q71 91 181 91zM199 152q34 0 54.5 -23t16.5 -57
q-5 -34 -30.5 -57t-59.5 -23t-54 23t-16 57t29.5 57t59.5 23z" />
    <glyph glyph-name="at" unicode="@" horiz-adv-x="1072" 
d="M597 785q197 0 322 -134t102 -320q-14 -117 -84.5 -192t-176.5 -75q-62 0 -99 31t-49 70q-64 -69 -155 -69q-83 0 -124 60.5t-20 143.5q20 82 87 139t146 57q74 0 106 -60l12 44h96l-57 -223q-11 -43 13.5 -70t67.5 -27q18 0 37.5 7.5t41.5 24.5t39 53t23 86
q19 151 -80 254.5t-260 103.5q-170 0 -299.5 -117t-149.5 -283q-20 -167 79.5 -284t263.5 -117q112 0 188 39l31 -83q-43 -25 -108 -39.5t-123 -12.5q-205 5 -328.5 148t-98.5 349q26 207 186.5 351.5t370.5 144.5zM612 295q10 44 -11 76.5t-62 32.5q-49 0 -85 -31.5
t-46 -77.5q-11 -44 11.5 -75.5t68.5 -31.5q44 0 78 31t46 76z" />
    <glyph glyph-name="A" unicode="A" horiz-adv-x="640" 
d="M459 0l-29 96h-283l-52 -96h-138l408 720l232 -720h-138zM208 208h189l-67 224z" />
    <glyph glyph-name="B" unicode="B" 
d="M377 369q55 -18 81.5 -63.5t19.5 -103.5q-12 -90 -77 -146t-170 -56h-210l86 704h152q117 0 176.5 -49.5t48.5 -142.5q-6 -47 -37 -86.5t-70 -56.5zM220 584l-20 -168h29q54 0 84 25t35 64q5 38 -19.5 58.5t-79.5 20.5h-29zM219 120q60 0 93 25t39 67q5 40 -24 66t-86 26
h-55l-22 -184h55z" />
    <glyph glyph-name="C" unicode="C" horiz-adv-x="640" 
d="M383 112q81 0 149 48l57 -96q-98 -72 -222 -72q-160 0 -256.5 105t-78.5 255t140.5 255t282.5 105q124 0 204 -72l-79 -96q-63 48 -139 48q-103 0 -185 -65t-96 -175t53 -175t170 -65z" />
    <glyph glyph-name="D" unicode="D" horiz-adv-x="608" 
d="M258 704q90 0 157 -28.5t104 -78t51.5 -112t5.5 -133.5q-18 -149 -125 -250.5t-279 -101.5h-151l86 704h151zM210 120q91 0 159 70t79 162t-40 162t-142 70h-46l-56 -464h46z" />
    <glyph glyph-name="E" unicode="E" horiz-adv-x="480" 
d="M460 584h-240l-26 -212h176l-14 -120h-176l-16 -132h240l-15 -120h-368l86 704h368z" />
    <glyph glyph-name="F" unicode="F" horiz-adv-x="464" 
d="M21 0l86 704h368l-15 -120h-240l-26 -212h176l-14 -120h-176l-31 -252h-128z" />
    <glyph glyph-name="G" unicode="G" horiz-adv-x="784" 
d="M753 372q0 -8 -3 -34q-18 -146 -129 -246t-256 -100q-159 0 -255 105t-78 255t140.5 255t282.5 105q124 0 204 -72l-79 -96q-63 48 -139 48q-103 0 -185 -65t-96 -175t52 -175t169 -65q76 0 135.5 41.5t83.5 98.5h-228l14 120h367z" />
    <glyph glyph-name="H" unicode="H" horiz-adv-x="592" 
d="M443 704h128l-86 -704h-128l31 252h-208l-31 -252h-128l86 704h128l-41 -332h208z" />
    <glyph glyph-name="I" unicode="I" horiz-adv-x="256" 
d="M149 0h-128l86 704h128z" />
    <glyph glyph-name="J" unicode="J" horiz-adv-x="432" 
d="M299 704h128l-56 -456q-31 -256 -248 -256q-39 0 -75.5 13t-54.5 31l84 96q20 -20 56 -20q43 0 72 30.5t37 91.5z" />
    <glyph glyph-name="K" unicode="K" horiz-adv-x="560" 
d="M571 704l-254 -314l184 -390h-160l-119 274l-47 -58l-26 -216h-128l86 704h128l-34 -280l218 280h152z" />
    <glyph glyph-name="L" unicode="L" horiz-adv-x="464" 
d="M107 704h128l-71 -584h240l-15 -120h-368z" />
    <glyph glyph-name="M" unicode="M" horiz-adv-x="752" 
d="M733 720l-88 -720h-128l47 384l-211 -216l-157 216l-47 -384h-128l88 720l266 -376z" />
    <glyph glyph-name="N" unicode="N" horiz-adv-x="624" 
d="M475 704h128l-88 -720l-318 408l-48 -392h-128l88 720l318 -408z" />
    <glyph glyph-name="O" unicode="O" horiz-adv-x="784" 
d="M436 712q149 0 241.5 -105.5t74.5 -254.5t-136.5 -254.5t-267.5 -105.5t-241.5 105.5t-74.5 254.5t136.5 254.5t267.5 105.5zM363 112q96 0 172.5 70t88.5 170t-47.5 170t-155.5 70t-172.5 -70t-88.5 -170t47.5 -170t155.5 -70z" />
    <glyph glyph-name="P" unicode="P" horiz-adv-x="512" 
d="M249 704q135 0 196 -69.5t48 -174.5q-12 -101 -92.5 -172.5t-195.5 -71.5h-30l-26 -216h-128l86 704h142zM227 336q52 0 92 36t46 88q7 57 -24 90.5t-84 33.5h-37l-30 -248h37z" />
    <glyph glyph-name="Q" unicode="Q" horiz-adv-x="784" 
d="M436 712q149 0 241.5 -105.5t74.5 -254.5q-13 -116 -93 -210q31 -64 50 -142h-136q-7 25 -18 52q-98 -60 -207 -60q-149 0 -241.5 105.5t-74.5 254.5t136.5 254.5t267.5 105.5zM159 337q283 57 428 -92q30 50 37 107q12 100 -47.5 170t-155.5 70t-172.5 -70t-88.5 -170
q-1 -5 -1 -15zM363 112q70 0 131 39q-111 121 -315 76q24 -53 73 -84t111 -31z" />
    <glyph glyph-name="R" unicode="R" horiz-adv-x="528" 
d="M493 460q-8 -65 -46.5 -120.5t-98.5 -88.5l105 -251h-144l-80 217q-8 -1 -24 -1h-30l-26 -216h-128l86 704h142q135 0 196 -69.5t48 -174.5zM365 460q7 57 -24 90.5t-84 33.5h-37l-30 -248h37q52 0 92 36t46 88z" />
    <glyph glyph-name="S" unicode="S" 
d="M292 451q36 -15 56 -25t49.5 -26.5t45.5 -34t31 -41.5t19.5 -54.5t0.5 -67.5q-11 -87 -84.5 -148.5t-177.5 -61.5q-87 0 -149 46t-79 82l85 90q31 -48 73 -73t85 -25q47 0 80.5 26t37.5 58q9 81 -82 117q-108 43 -153 93t-36 129q10 76 76.5 126.5t155.5 50.5
q107 0 182 -78l-82 -94q-50 52 -117 52q-31 0 -57 -15.5t-30 -41.5q-4 -30 14 -49t56 -35z" />
    <glyph glyph-name="T" unicode="T" horiz-adv-x="480" 
d="M75 704h416l-15 -120h-144l-71 -584h-128l71 584h-144z" />
    <glyph glyph-name="U" unicode="U" horiz-adv-x="608" 
d="M459 704h128l-54 -440q-15 -127 -92 -199.5t-181 -72.5q-106 0 -164 72.5t-43 199.5l54 440h128l-55 -448q-9 -76 19 -110t76 -34q45 0 82.5 35t46.5 109z" />
    <glyph glyph-name="V" unicode="V" horiz-adv-x="640" 
d="M539 704h144l-408 -720l-232 720h144l125 -416z" />
    <glyph glyph-name="W" unicode="W" horiz-adv-x="912" 
d="M955 704l-400 -720l-102 347l-186 -347l-224 720h144l119 -400l103 187l-58 213h140l103 -400l217 400h144z" />
    <glyph glyph-name="X" unicode="X" horiz-adv-x="608" 
d="M549 0h-154l-104 245l-164 -245h-154l250 362l-148 342h147l97 -226l153 226h147l-232 -342z" />
    <glyph glyph-name="Y" unicode="Y" horiz-adv-x="576" 
d="M475 704h144l-275 -420l-35 -284h-128l35 284l-173 420h144l110 -280z" />
    <glyph glyph-name="Z" unicode="Z" horiz-adv-x="528" 
d="M437 0h-448l343 584h-256l15 120h448l-343 -584h256z" />
    <glyph glyph-name="bracketleft" unicode="[" horiz-adv-x="336" 
d="M238 728l-100 -816h80l-15 -120h-208l130 1056h208l-15 -120h-80z" />
    <glyph glyph-name="backslash" unicode="\" 
d="M331 -80l-230 864h112l230 -864h-112z" />
    <glyph glyph-name="bracketright" unicode="]" horiz-adv-x="336" 
d="M190 728h-80l15 120h208l-130 -1056h-208l15 120h80z" />
    <glyph glyph-name="asciicircum" unicode="^" horiz-adv-x="496" 
d="M64 480l179 224h96l125 -224h-112l-72 134l-104 -134h-112z" />
    <glyph glyph-name="underscore" unicode="_" horiz-adv-x="576" 
d="M485 -128h-512l12 96h512z" />
    <glyph glyph-name="a" unicode="a" horiz-adv-x="592" 
d="M414 464h128l-57 -464h-128l6 50q-61 -58 -145 -58q-98 0 -156 68.5t-45 171.5t87.5 171.5t172.5 68.5q83 0 131 -56zM251 112q49 0 88.5 35t45.5 85t-25 85t-80 35q-50 0 -89.5 -35.5t-45.5 -84.5t25 -84.5t81 -35.5z" />
    <glyph glyph-name="b" unicode="b" horiz-adv-x="592" 
d="M239 736l-39 -320q61 56 145 56q98 0 155.5 -68.5t44.5 -171.5t-87 -171.5t-172 -68.5q-83 0 -131 58l-6 -50h-128l90 736h128zM283 112q49 0 88.5 35t45.5 85t-25 85t-80 35q-50 0 -89.5 -35.5t-45.5 -84.5t25 -84.5t81 -35.5z" />
    <glyph glyph-name="c" unicode="c" horiz-adv-x="480" 
d="M254 112q56 0 102 48l57 -94q-77 -74 -176 -74q-113 0 -172.5 68.5t-47.5 171.5q13 103 89.5 171.5t189.5 68.5q98 0 158 -74l-80 -94q-35 48 -91 48q-52 0 -92 -35t-46 -85t25.5 -85t83.5 -35z" />
    <glyph glyph-name="d" unicode="d" horiz-adv-x="592" 
d="M447 736h128l-90 -736h-128l6 50q-61 -58 -145 -58q-98 0 -156 68.5t-45 171.5t87.5 171.5t172.5 68.5q83 0 131 -56zM251 112q49 0 88.5 35t45.5 85t-25 85t-80 35q-50 0 -89.5 -35.5t-45.5 -84.5t25 -84.5t81 -35.5z" />
    <glyph glyph-name="e" unicode="e" horiz-adv-x="512" 
d="M254 112q68 0 118 48l57 -94q-85 -74 -192 -74q-112 0 -172 69.5t-48 170.5q13 103 89.5 171.5t189.5 68.5q27 0 55 -8.5t57 -27t51.5 -55t29.5 -85.5l-299 -169q24 -15 64 -15zM145 232q-1 -9 0 -18l199 110q-21 28 -61 28q-53 0 -92.5 -35t-45.5 -85z" />
    <glyph glyph-name="f" unicode="f" horiz-adv-x="416" 
d="M46 464h64l9 72q11 93 63 150.5t142 57.5q55 0 104 -36l-60 -99q-25 13 -50 15.5t-45.5 -19.5t-25.5 -65l-9 -76h160l-15 -120h-160l-42 -344h-128l42 344h-64z" />
    <glyph glyph-name="g" unicode="g" horiz-adv-x="592" 
d="M414 464h128l-53 -432q-18 -143 -95.5 -219.5t-197.5 -76.5q-117 0 -184 64l73 100q52 -44 117 -44q63 0 105.5 44t51.5 117l4 33q-61 -58 -145 -58q-98 0 -156 68.5t-45 171.5t87.5 171.5t172.5 68.5q83 0 131 -56zM251 112q49 0 88.5 35t45.5 85t-25 85t-80 35
q-50 0 -89.5 -35.5t-45.5 -84.5t25 -84.5t81 -35.5z" />
    <glyph glyph-name="h" unicode="h" 
d="M327 472q81 0 126 -54.5t31 -161.5l-31 -256h-128l31 256q12 96 -76 96q-33 0 -64 -28t-38 -84l-29 -240h-128l90 736h128l-39 -320q52 56 127 56z" />
    <glyph glyph-name="i" unicode="i" horiz-adv-x="256" 
d="M152 544q-33 0 -54 23.5t-17 56.5q5 33 31 56.5t59 23.5t53.5 -23.5t16.5 -56.5t-30 -56.5t-59 -23.5zM21 0l57 464h128l-57 -464h-128z" />
    <glyph glyph-name="j" unicode="j" horiz-adv-x="256" 
d="M152 544q-33 0 -54 23.5t-17 56.5q5 33 31 56.5t59 23.5t53.5 -23.5t16.5 -56.5t-30 -56.5t-59 -23.5zM-13 -272l91 736h128l-85 -688z" />
    <glyph glyph-name="k" unicode="k" horiz-adv-x="512" 
d="M510 464l-204 -202l163 -262h-156l-100 170l-49 -48l-15 -122h-128l90 736h128l-54 -438l173 166h152z" />
    <glyph glyph-name="l" unicode="l" horiz-adv-x="256" 
d="M111 736h128l-90 -736h-128z" />
    <glyph glyph-name="m" unicode="m" horiz-adv-x="816" 
d="M595 472q86 0 130.5 -54t30.5 -162l-31 -256h-128l31 256q12 96 -68 96q-31 0 -59 -25.5t-35 -86.5l-29 -240h-128l31 256q12 96 -64 96q-32 0 -61.5 -26t-36.5 -86l-29 -240h-128l57 464h128l-6 -48q55 56 135 56q81 0 117 -65q58 65 143 65z" />
    <glyph glyph-name="n" unicode="n" 
d="M327 472q81 0 126 -54.5t31 -161.5l-31 -256h-128l31 256q12 96 -76 96q-33 0 -64 -28t-38 -84l-29 -240h-128l57 464h128l-6 -48q52 56 127 56z" />
    <glyph glyph-name="o" unicode="o" horiz-adv-x="560" 
d="M295 472q104 0 167.5 -70t50.5 -170q-12 -100 -92 -170t-185 -70q-109 0 -170 69.5t-49 170.5q13 103 89.5 171.5t188.5 68.5zM251 112q51 0 89.5 35t44.5 85t-24 85t-81 35t-90 -35t-45 -85t24.5 -85t81.5 -35z" />
    <glyph glyph-name="p" unicode="p" horiz-adv-x="592" 
d="M206 464l-6 -48q61 56 145 56q98 0 155.5 -68.5t44.5 -171.5t-87 -171.5t-172 -68.5q-83 0 -131 58l-38 -306h-128l89 720h128zM283 112q49 0 88.5 35t45.5 85t-25 85t-80 35q-50 0 -89.5 -35.5t-45.5 -84.5t25 -84.5t81 -35.5z" />
    <glyph glyph-name="q" unicode="q" horiz-adv-x="592" 
d="M414 464h128l-89 -720h-128l38 306q-61 -58 -145 -58q-98 0 -156 68.5t-45 171.5t87.5 171.5t172.5 68.5q83 0 131 -56zM251 112q49 0 88.5 35t45.5 85t-25 85t-80 35q-50 0 -89.5 -35.5t-45.5 -84.5t25 -84.5t81 -35.5z" />
    <glyph glyph-name="r" unicode="r" horiz-adv-x="400" 
d="M195 375q58 88 188 97l-19 -152q-43 12 -88 0q-39 -11 -68.5 -45.5t-36.5 -89.5l-22 -185h-128l57 464h128z" />
    <glyph glyph-name="s" unicode="s" horiz-adv-x="448" 
d="M235 295q84 -21 123.5 -55t31.5 -97q-8 -65 -63.5 -108t-152.5 -43q-112 0 -177 74l77 95q46 -43 107 -51q35 -4 56.5 3.5t23.5 21.5q2 12 -11 18t-50 16q-3 1 -4 1t-3 1t-4 1.5t-4 0.5q-155 40 -140 155q8 61 62.5 102.5t142.5 41.5q9 0 23.5 -1.5t52.5 -14t68 -34.5
l-72 -99q-38 27 -84 31q-61 4 -65 -24q-1 -12 12.5 -19t49.5 -16z" />
    <glyph glyph-name="t" unicode="t" horiz-adv-x="400" 
d="M69 0l42 344h-80l15 120h80l18 152l133 40l-23 -192h128l-15 -120h-128l-42 -344h-128z" />
    <glyph glyph-name="u" unicode="u" 
d="M188 -8q-81 0 -126 54.5t-32 161.5l32 256h128l-32 -256q-12 -96 77 -96q33 0 63.5 28t37.5 84l30 240h128l-57 -464h-128l6 48q-54 -56 -127 -56z" />
    <glyph glyph-name="v" unicode="v" horiz-adv-x="480" 
d="M14 464h144l70 -208l122 208h144l-299 -480z" />
    <glyph glyph-name="w" unicode="w" horiz-adv-x="736" 
d="M750 464l-307 -480l-89 241l-151 -241l-189 480h136l85 -218l68 118l-37 100h132l77 -218l139 218h136z" />
    <glyph glyph-name="x" unicode="x" horiz-adv-x="512" 
d="M453 0h-148l-75 144l-109 -144h-148l190 244l-117 220h148l61 -122l91 122h148l-171 -220z" />
    <glyph glyph-name="y" unicode="y" 
d="M366 464h128l-53 -432q-18 -143 -95.5 -219.5t-197.5 -76.5q-117 0 -184 64l73 100q52 -44 117 -44q63 0 105.5 44t51.5 117l4 31q-54 -56 -127 -56q-81 0 -126 54.5t-32 161.5l32 256h128l-32 -256q-12 -96 77 -96q33 0 63.5 28t37.5 84z" />
    <glyph glyph-name="z" unicode="z" horiz-adv-x="480" 
d="M389 0h-400l242 344h-184l15 120h400l-242 -344h184z" />
    <glyph glyph-name="braceleft" unicode="{" horiz-adv-x="352" 
d="M39 276l10 88q31 1 50 19t22 45l32 254q18 157 166 182l37 -92q-68 -18 -77 -106l-25 -200q-14 -114 -93 -146q71 -31 57 -146l-24 -200q-11 -89 51 -106l-60 -92q-141 25 -121 182l31 254q3 27 -11.5 45t-44.5 19z" />
    <glyph glyph-name="bar" unicode="|" horiz-adv-x="224" 
d="M85 -256h-96l122 992h96z" />
    <glyph glyph-name="braceright" unicode="}" horiz-adv-x="352" 
d="M295 276q-31 -1 -50 -19t-22 -45l-31 -254q-20 -157 -167 -182l-36 92q66 17 77 106l24 200q13 114 93 146q-70 32 -57 146l25 200q10 89 -51 106l59 92q140 -25 122 -182l-32 -254q-3 -27 11.5 -45t44.5 -19z" />
    <glyph glyph-name="asciitilde" unicode="~" horiz-adv-x="512" 
d="M406 408l57 -64q-52 -64 -127 -64q-24 0 -61 10.5t-63.5 18.5t-56.5 2.5t-51 -31.5l-57 64q52 64 127 64q26 0 76.5 -17t89 -17t66.5 34z" />
    <glyph glyph-name="exclamdown" unicode="&#xa1;" horiz-adv-x="288" 
d="M159 472q34 0 54 -23t16 -57q-5 -34 -30.5 -57t-59.5 -23t-54 23t-16 57t30 57t60 23zM74 240h112l-43 -480h-144z" />
    <glyph glyph-name="cent" unicode="&#xa2;" horiz-adv-x="480" 
d="M356 160l57 -94q-60 -57 -137 -71l-11 -91h-80l11 91q-94 13 -142 78.5t-37 158.5t75.5 158.5t162.5 78.5l11 91h80l-12 -91q74 -14 120 -71l-80 -94q-35 48 -91 48q-52 0 -92 -35t-46 -85t25.5 -85t83.5 -35q56 0 102 48z" />
    <glyph glyph-name="sterling" unicode="&#xa3;" horiz-adv-x="528" 
d="M237 312q2 -110 -37 -192h268l-15 -120h-464q73 71 100.5 153.5t22.5 158.5h-69l10 80h48q-9 60 -4 102q12 99 82 158.5t178 59.5q112 0 173 -80l-91 -92q-37 52 -96 52q-46 0 -77.5 -25.5t-39.5 -68.5q-2 -25 -2 -35t3 -37.5t3 -33.5h143l-10 -80h-126z" />
    <glyph glyph-name="currency" unicode="&#xa4;" horiz-adv-x="526" 
d="M23 145l89 81q-21 40 -15 86t36 86l-69 82l54 47l69 -81q45 26 91 26q49 0 84 -27l88 82l44 -47l-91 -82q20 -38 14 -86t-35 -86l71 -80l-53 -49l-72 80q-42 -25 -90 -25q-46 0 -84 25l-90 -80zM249 248q26 0 47.5 19t24.5 45t-13.5 45t-42.5 19t-47.5 -19t-24.5 -45
t13.5 -45t42.5 -19z" />
    <glyph glyph-name="yen" unicode="&#xa5;" horiz-adv-x="640" 
d="M376 284l-2 -16h80l-7 -56h-80l-7 -56h80l-7 -56h-80l-12 -100h-128l12 100h-80l7 56h80l7 56h-80l7 56h80l2 16l-173 420h144l110 -280l178 280h144z" />
    <glyph glyph-name="brokenbar" unicode="&#xa6;" horiz-adv-x="224" 
d="M166 400h-96l41 336h96zM85 -256h-96l42 336h96z" />
    <glyph glyph-name="section" unicode="&#xa7;" horiz-adv-x="576" 
d="M308 451q36 -15 56 -25t49.5 -26.5t45.5 -34t31 -41.5t19.5 -54.5t0.5 -67.5q-13 -103 -107 -165q41 -50 31 -124q-9 -76 -76 -126.5t-156 -50.5q-106 0 -181 78l81 94q52 -52 117 -52q31 0 57.5 15.5t29.5 41.5q4 30 -13.5 49t-56.5 35q-55 23 -84 39t-64 45t-47.5 69.5
t-5.5 95.5q13 104 107 165q-41 50 -32 124q10 76 76.5 126.5t155.5 50.5q107 0 182 -78l-82 -94q-50 52 -117 52q-31 0 -57 -15.5t-30 -41.5q-4 -30 14 -49t56 -35zM164 252q-11 -80 81 -117q35 -14 47 -20q36 7 61 30.5t28 50.5q9 81 -82 117q-2 1 -20 8.5t-26 11.5
q-36 -7 -61 -30.5t-28 -50.5z" />
    <glyph glyph-name="copyright" unicode="&#xa9;" horiz-adv-x="816" 
d="M364 -8q-152 0 -243.5 105t-72.5 255q19 152 135.5 256t268.5 104t243.5 -104t72.5 -256t-135.5 -256t-268.5 -104zM376 88q111 0 196.5 76.5t99.5 187.5q13 111 -54 187.5t-178 76.5t-196.5 -76.5t-99.5 -187.5q-13 -111 54 -187.5t178 -76.5zM400 230q45 0 80 27
l39 -73q-58 -42 -131 -42q-91 0 -147 61.5t-45 148.5t82 148.5t162 61.5q73 0 121 -42l-57 -73q-29 27 -74 27q-51 0 -91.5 -35.5t-46.5 -86.5q-6 -52 25.5 -87t82.5 -35z" />
    <glyph glyph-name="ordfeminine" unicode="&#xaa;" horiz-adv-x="296" 
d="M278 464h-68l2 22q-34 -30 -74 -30q-44 0 -66 23.5t-17 59.5q6 48 59 69t112 3q1 20 -9.5 29.5t-34.5 9.5q-32 0 -60 -16l-19 52q44 26 94 26t76.5 -31.5t18.5 -99.5zM222 561q-38 12 -67.5 5.5t-31.5 -27.5q-1 -14 8 -22t25 -8q19 0 39.5 14.5t26.5 37.5z" />
    <glyph glyph-name="guillemotleft" unicode="&#xab;" horiz-adv-x="576" 
d="M183 472l81 -52l-112 -148l75 -156l-93 -44l-96 200zM504 420l-112 -148l75 -156l-93 -44l-96 200l145 200z" />
    <glyph glyph-name="logicalnot" unicode="&#xac;" horiz-adv-x="592" 
d="M549 392l-26 -208h-96l14 112h-400l12 96h496z" />
    <glyph glyph-name="registered" unicode="&#xae;" horiz-adv-x="816" 
d="M364 -8q-152 0 -243.5 105t-72.5 255q19 152 135.5 256t268.5 104t243.5 -104t72.5 -256t-135.5 -256t-268.5 -104zM376 88q111 0 196.5 76.5t99.5 187.5q13 111 -54 187.5t-178 76.5t-196.5 -76.5t-99.5 -187.5q-13 -111 54 -187.5t178 -76.5zM531 152h-106l-44 110h-16
l-14 -110h-96l50 400h104q81 0 117 -40t29 -102q-10 -84 -83 -124zM390 467l-15 -120h8q30 0 51.5 17t24.5 43q3 28 -13.5 44t-47.5 16h-8z" />
    <glyph glyph-name="degree" unicode="&#xb0;" horiz-adv-x="416" 
d="M214 392q-68 0 -108.5 46.5t-32.5 113.5q7 67 59.5 113.5t120.5 46.5q67 0 107.5 -46.5t32.5 -113.5t-60 -113.5t-119 -46.5zM225 488q25 0 46.5 19t25.5 45q3 25 -14 44.5t-43 19.5q-25 0 -46.5 -19t-24.5 -45q-4 -25 13 -44.5t43 -19.5z" />
    <glyph glyph-name="plusminus" unicode="&#xb1;" horiz-adv-x="464" 
d="M432 480l-12 -96h-136l-17 -136h-96l17 136h-136l12 96h136l16 136h96l-16 -136h136zM23 152h368l-11 -96h-368z" />
    <glyph glyph-name="uni00B2" unicode="&#xb2;" horiz-adv-x="339" 
d="M264 582l-22 -22h75l-10 -80h-243l108 109q69 69 73 97q2 15 -6.5 24.5t-23.5 9.5q-16 0 -26.5 -9.5t-12.5 -24.5q-1 -12 7 -28l-78 -32q-20 32 -15 68q5 44 43 75t92 31q52 0 82.5 -31t25.5 -75q-6 -52 -69 -112z" />
    <glyph glyph-name="uni00B3" unicode="&#xb3;" horiz-adv-x="340" 
d="M250 682q29 -4 52.5 -28t17.5 -71q-6 -50 -46 -80.5t-93 -30.5q-49 0 -79 29.5t-28 63.5l82 22q1 -14 9.5 -24.5t25.5 -10.5q18 0 29.5 11t13.5 26q3 23 -19 31t-42 -6l-29 49l45 49h-83l10 80h222z" />
    <glyph glyph-name="paragraph" unicode="&#xb6;" horiz-adv-x="704" 
d="M686 600h-96l-105 -856h-96l105 856h-128l-105 -856h-96l69 560q-83 0 -130.5 58t-36.5 142q10 84 71.5 142t144.5 58h416z" />
    <glyph glyph-name="periodcentered" unicode="&#xb7;" horiz-adv-x="256" 
d="M116 256q-34 0 -54 23t-16 57q5 34 30.5 57t59.5 23t54 -23t16 -57t-30 -57t-60 -23z" />
    <glyph glyph-name="uni00B9" unicode="&#xb9;" horiz-adv-x="296" 
d="M255 800l-1 -4h1l-39 -316h-87l26 212l-51 -16l10 80z" />
    <glyph glyph-name="ordmasculine" unicode="&#xba;" horiz-adv-x="328" 
d="M208 712q56 0 89.5 -37t26.5 -91q-6 -53 -48.5 -90.5t-98.5 -37.5q-57 0 -90 37t-27 91q7 55 48 91.5t100 36.5zM185 520q27 0 47.5 19t23.5 45q4 27 -12.5 45.5t-43.5 18.5t-47.5 -18.5t-24.5 -45.5q-3 -26 13.5 -45t43.5 -19z" />
    <glyph glyph-name="guillemotright" unicode="&#xbb;" horiz-adv-x="576" 
d="M88 420l95 52l95 -200l-144 -200l-83 44l113 156zM423 472l95 -200l-144 -200l-83 44l113 156l-76 148z" />
    <glyph glyph-name="onequarter" unicode="&#xbc;" horiz-adv-x="783" 
d="M118 392l26 212l-51 -16l10 80l141 44l-1 -4h1l-39 -316h-87zM579 704h96l-534 -704h-96zM667 136h41l-9 -80h-41l-7 -56h-87l7 56h-151l125 256h86l-85 -176h34l6 41h87z" />
    <glyph glyph-name="onehalf" unicode="&#xbd;" horiz-adv-x="763" 
d="M118 392l26 212l-51 -16l10 80l141 44l-1 -4h1l-39 -316h-87zM579 704h96l-534 -704h-96zM698 214q-6 -52 -69 -112l-22 -22h75l-10 -80h-243l108 109q69 69 73 97q2 15 -6.5 24.5t-23.5 9.5q-16 0 -26.5 -9.5t-12.5 -24.5q-1 -12 7 -28l-78 -32q-20 32 -15 68
q5 44 43 75t92 31q52 0 82.5 -31t25.5 -75z" />
    <glyph glyph-name="threequarters" unicode="&#xbe;" horiz-adv-x="827" 
d="M239 594q29 -4 52.5 -28t18.5 -71q-7 -50 -47 -80.5t-93 -30.5q-49 0 -79 29.5t-28 63.5l82 22q1 -14 9.5 -24.5t25.5 -10.5q18 0 29.5 11t13.5 26q3 23 -19 31t-42 -6l-29 49l45 49h-83l10 80h222zM185 0h-96l534 704h96zM464 56l125 256h86l-85 -176h34l6 41h87l-6 -41
h41l-9 -80h-41l-7 -56h-87l7 56h-151z" />
    <glyph glyph-name="questiondown" unicode="&#xbf;" horiz-adv-x="480" 
d="M251 312q-34 0 -54 23t-16 57t30 57t60 23t54 -23t16 -57q-5 -34 -30.5 -57t-59.5 -23zM188 -248q-102 0 -151 58.5t-39 137.5q4 33 15 60t30.5 51t35.5 38.5t44 38.5q55 45 63 104h112q-6 -77 -48 -131q-17 -22 -48.5 -48t-50.5 -49t-23 -54q-5 -38 16.5 -62t62.5 -24
q31 0 57 15.5t39 35.5l67 -80q-71 -91 -182 -91z" />
    <glyph glyph-name="Agrave" unicode="&#xc0;" horiz-adv-x="640" 
d="M419 768h-80l-76 160h112zM459 0l-29 96h-283l-52 -96h-138l408 720l232 -720h-138zM208 208h189l-67 224z" />
    <glyph glyph-name="Aacute" unicode="&#xc1;" horiz-adv-x="640" 
d="M519 928l-116 -160h-80l84 160h112zM459 0l-29 96h-283l-52 -96h-138l408 720l232 -720h-138zM208 208h189l-67 224z" />
    <glyph glyph-name="Acircumflex" unicode="&#xc2;" horiz-adv-x="640" 
d="M380 840l-65 -72h-80l156 160l116 -160h-80zM459 0l-29 96h-283l-52 -96h-138l408 720l232 -720h-138zM208 208h189l-67 224z" />
    <glyph glyph-name="Atilde" unicode="&#xc3;" horiz-adv-x="640" 
d="M380 783q-109 38 -145 -15l-49 53q49 59 117 59q37 0 73 -14q45 -19 83.5 -18t61.5 32l49 -53q-49 -59 -117 -59q-35 0 -73 15zM459 0l-29 96h-283l-52 -96h-138l408 720l232 -720h-138zM208 208h189l-67 224z" />
    <glyph glyph-name="Adieresis" unicode="&#xc4;" horiz-adv-x="640" 
d="M275 768q-27 0 -43 18.5t-13 45.5t24 45.5t48 18.5t43 -18.5t13 -45.5t-24 -45.5t-48 -18.5zM467 768q-27 0 -43 18.5t-13 45.5t24 45.5t48 18.5t43 -18.5t13 -45.5t-24 -45.5t-48 -18.5zM459 0l-29 96h-283l-52 -96h-138l408 720l232 -720h-138zM208 208h189l-67 224z
" />
    <glyph glyph-name="Aring" unicode="&#xc5;" horiz-adv-x="640" 
d="M459 0l-29 96h-283l-52 -96h-138l342 603q-29 15 -44 44t-11 65q6 50 45.5 85t89.5 35t80.5 -35t24.5 -85q-4 -36 -26.5 -65.5t-55.5 -43.5l195 -603h-138zM308 712q-2 -23 12.5 -39.5t36.5 -16.5q23 0 42 17t21 39q3 22 -11.5 39t-37.5 17q-22 0 -41 -16.5t-22 -39.5z
M208 208h189l-67 224z" />
    <glyph glyph-name="AE" unicode="&#xc6;" horiz-adv-x="784" 
d="M764 584h-240l-26 -212h176l-14 -120h-176l-16 -132h240l-15 -120h-368l12 96h-183l-59 -96h-138l454 704h368zM224 208h126l32 255z" />
    <glyph glyph-name="Ccedilla" unicode="&#xc7;" horiz-adv-x="640" 
d="M589 64q-96 -70 -217 -72l-5 -40q39 -3 71.5 -33.5t25.5 -86.5q-7 -60 -52 -98t-101 -38q-43 0 -72 18t-40 45l54 45q12 -44 66 -44q32 0 55 22t26 51q5 40 -26.5 57.5t-77.5 5.5l13 100q-137 20 -215 120.5t-62 235.5q18 150 140.5 255t282.5 105q124 0 204 -72l-79 -96
q-63 48 -139 48q-103 0 -185 -65t-96 -175t53 -175t170 -65q81 0 149 48z" />
    <glyph glyph-name="Egrave" unicode="&#xc8;" horiz-adv-x="480" 
d="M371 768h-80l-76 160h112zM460 584h-240l-26 -212h176l-14 -120h-176l-16 -132h240l-15 -120h-368l86 704h368z" />
    <glyph glyph-name="Eacute" unicode="&#xc9;" horiz-adv-x="480" 
d="M227 768l84 160h112l-116 -160h-80zM460 584h-240l-26 -212h176l-14 -120h-176l-16 -132h240l-15 -120h-368l86 704h368z" />
    <glyph glyph-name="Ecircumflex" unicode="&#xca;" horiz-adv-x="480" 
d="M347 768l-47 72l-65 -72h-80l156 160l116 -160h-80zM460 584h-240l-26 -212h176l-14 -120h-176l-16 -132h240l-15 -120h-368l86 704h368z" />
    <glyph glyph-name="Edieresis" unicode="&#xcb;" horiz-adv-x="480" 
d="M195 768q-27 0 -43 18.5t-13 45.5t24 45.5t48 18.5t43 -18.5t13 -45.5t-24 -45.5t-48 -18.5zM387 768q-27 0 -43 18.5t-13 45.5t24 45.5t48 18.5t43 -18.5t13 -45.5t-24 -45.5t-48 -18.5zM460 584h-240l-26 -212h176l-14 -120h-176l-16 -132h240l-15 -120h-368l86 704
h368z" />
    <glyph glyph-name="Igrave" unicode="&#xcc;" horiz-adv-x="256" 
d="M243 768h-80l-76 160h112zM21 0l86 704h128l-86 -704h-128z" />
    <glyph glyph-name="Iacute" unicode="&#xcd;" horiz-adv-x="256" 
d="M115 768l84 160h112l-116 -160h-80zM149 0h-128l86 704h128z" />
    <glyph glyph-name="Icircumflex" unicode="&#xce;" horiz-adv-x="256" 
d="M235 768l-47 72l-65 -72h-80l156 160l116 -160h-80zM21 0l86 704h128l-86 -704h-128z" />
    <glyph glyph-name="Idieresis" unicode="&#xcf;" horiz-adv-x="256" 
d="M83 768q-27 0 -43 18.5t-13 45.5t24 45.5t48 18.5t43 -18.5t13 -45.5t-24 -45.5t-48 -18.5zM275 768q-27 0 -43 18.5t-13 45.5t24 45.5t48 18.5t43 -18.5t13 -45.5t-24 -45.5t-48 -18.5zM149 0h-128l86 704h128z" />
    <glyph glyph-name="Eth" unicode="&#xd0;" horiz-adv-x="608" 
d="M258 704q90 0 157 -28.5t104 -78t51.5 -112t5.5 -133.5q-18 -149 -125 -250.5t-279 -101.5h-151l43 352l-5 -40h-48l10 80h48l38 312h151zM448 352q11 92 -40 162t-142 70h-46l-28 -232l5 40h96l-10 -80h-96l-23 -192h46q91 0 159 70t79 162z" />
    <glyph glyph-name="Ntilde" unicode="&#xd1;" horiz-adv-x="624" 
d="M513 880l49 -53q-49 -59 -117 -59q-35 0 -73 15q-109 38 -145 -15l-49 53q49 59 117 59q37 0 73 -14q45 -19 83.5 -18t61.5 32zM475 704h128l-88 -720l-318 408l-48 -392h-128l88 720l318 -408z" />
    <glyph glyph-name="Ograve" unicode="&#xd2;" horiz-adv-x="784" 
d="M499 768h-80l-76 160h112zM436 712q149 0 241.5 -105.5t74.5 -254.5t-136.5 -254.5t-267.5 -105.5t-241.5 105.5t-74.5 254.5t136.5 254.5t267.5 105.5zM363 112q96 0 172.5 70t88.5 170t-47.5 170t-155.5 70t-172.5 -70t-88.5 -170t47.5 -170t155.5 -70z" />
    <glyph glyph-name="Oacute" unicode="&#xd3;" horiz-adv-x="784" 
d="M387 768l84 160h112l-116 -160h-80zM436 712q149 0 241.5 -105.5t74.5 -254.5t-136.5 -254.5t-267.5 -105.5t-241.5 105.5t-74.5 254.5t136.5 254.5t267.5 105.5zM363 112q96 0 172.5 70t88.5 170t-47.5 170t-155.5 70t-172.5 -70t-88.5 -170t47.5 -170t155.5 -70z" />
    <glyph glyph-name="Ocircumflex" unicode="&#xd4;" horiz-adv-x="784" 
d="M499 768l-47 72l-65 -72h-80l156 160l116 -160h-80zM436 712q149 0 241.5 -105.5t74.5 -254.5t-136.5 -254.5t-267.5 -105.5t-241.5 105.5t-74.5 254.5t136.5 254.5t267.5 105.5zM363 112q96 0 172.5 70t88.5 170t-47.5 170t-155.5 70t-172.5 -70t-88.5 -170t47.5 -170
t155.5 -70z" />
    <glyph glyph-name="Otilde" unicode="&#xd5;" horiz-adv-x="784" 
d="M593 880l49 -53q-49 -59 -117 -59q-35 0 -73 15q-109 38 -145 -15l-49 53q49 59 117 59q37 0 73 -14q45 -19 83.5 -18t61.5 32zM436 712q149 0 241.5 -105.5t74.5 -254.5t-136.5 -254.5t-267.5 -105.5t-241.5 105.5t-74.5 254.5t136.5 254.5t267.5 105.5zM363 112
q96 0 172.5 70t88.5 170t-47.5 170t-155.5 70t-172.5 -70t-88.5 -170t47.5 -170t155.5 -70z" />
    <glyph glyph-name="Odieresis" unicode="&#xd6;" horiz-adv-x="784" 
d="M347 768q-27 0 -43 18.5t-13 45.5t24 45.5t48 18.5t43 -18.5t13 -45.5t-24 -45.5t-48 -18.5zM539 768q-27 0 -43 18.5t-13 45.5t24 45.5t48 18.5t43 -18.5t13 -45.5t-24 -45.5t-48 -18.5zM436 712q149 0 241.5 -105.5t74.5 -254.5t-136.5 -254.5t-267.5 -105.5
t-241.5 105.5t-74.5 254.5t136.5 254.5t267.5 105.5zM363 112q96 0 172.5 70t88.5 170t-47.5 170t-155.5 70t-172.5 -70t-88.5 -170t47.5 -170t155.5 -70z" />
    <glyph glyph-name="multiply" unicode="&#xd7;" horiz-adv-x="464" 
d="M370 528l59 -68l-130 -116l102 -116l-77 -68l-101 116l-131 -116l-59 68l130 116l-102 116l77 68l101 -116z" />
    <glyph glyph-name="Oslash" unicode="&#xd8;" horiz-adv-x="784" 
d="M436 712q149 0 241.5 -105.5t74.5 -254.5t-136.5 -254.5t-267.5 -105.5t-241.5 105.5t-74.5 254.5t136.5 254.5t267.5 105.5zM160 352q-10 -86 34 -153l348 355q-52 38 -121 38q-96 0 -172.5 -70t-88.5 -170zM624 352q10 87 -34 152l-347 -355q53 -37 120 -37
q96 0 172.5 70t88.5 170z" />
    <glyph glyph-name="Ugrave" unicode="&#xd9;" horiz-adv-x="608" 
d="M411 768h-80l-76 160h112zM459 704h128l-54 -440q-15 -127 -92 -199.5t-181 -72.5q-106 0 -164 72.5t-43 199.5l54 440h128l-55 -448q-9 -76 19 -110t76 -34q45 0 82.5 35t46.5 109z" />
    <glyph glyph-name="Uacute" unicode="&#xda;" horiz-adv-x="608" 
d="M299 768l84 160h112l-116 -160h-80zM459 704h128l-54 -440q-15 -127 -92 -199.5t-181 -72.5q-106 0 -164 72.5t-43 199.5l54 440h128l-55 -448q-9 -76 19 -110t76 -34q45 0 82.5 35t46.5 109z" />
    <glyph glyph-name="Ucircumflex" unicode="&#xdb;" horiz-adv-x="608" 
d="M411 768l-47 72l-65 -72h-80l156 160l116 -160h-80zM459 704h128l-54 -440q-15 -127 -92 -199.5t-181 -72.5q-106 0 -164 72.5t-43 199.5l54 440h128l-55 -448q-9 -76 19 -110t76 -34q45 0 82.5 35t46.5 109z" />
    <glyph glyph-name="Udieresis" unicode="&#xdc;" horiz-adv-x="608" 
d="M259 768q-27 0 -43 18.5t-13 45.5t24 45.5t48 18.5t43 -18.5t13 -45.5t-24 -45.5t-48 -18.5zM451 768q-27 0 -43 18.5t-13 45.5t24 45.5t48 18.5t43 -18.5t13 -45.5t-24 -45.5t-48 -18.5zM459 704h128l-54 -440q-15 -127 -92 -199.5t-181 -72.5q-106 0 -164 72.5
t-43 199.5l54 440h128l-55 -448q-9 -76 19 -110t76 -34q45 0 82.5 35t46.5 109z" />
    <glyph glyph-name="Yacute" unicode="&#xdd;" horiz-adv-x="576" 
d="M283 768l84 160h112l-116 -160h-80zM475 704h144l-275 -420l-35 -284h-128l35 284l-173 420h144l110 -280z" />
    <glyph glyph-name="Thorn" unicode="&#xde;" horiz-adv-x="512" 
d="M236 600q135 0 196 -69.5t48 -174.5q-12 -101 -92 -172.5t-195 -71.5h-30l-14 -112h-128l86 704h128l-13 -104h14zM214 232q52 0 92 36t46 88q7 57 -23.5 90.5t-83.5 33.5h-37l-31 -248h37z" />
    <glyph glyph-name="germandbls" unicode="&#xdf;" 
d="M109 -192l89 726q5 40 30.5 65t60.5 25t54.5 -24.5t15.5 -63.5q-6 -49 -50 -82.5t-93 -33.5l-10 -88q79 0 123.5 -32t37.5 -88q-7 -58 -49 -83.5t-99 -12.5l-53 -108q34 -16 74 -16q105 0 174 61.5t80 151.5q8 71 -27 122.5t-86 64.5q36 20 68 62t40 98q10 82 -41 137
t-143 55q-17 0 -39 -3.5t-55 -18t-61 -37t-51 -65.5t-30 -100l-88 -712h128z" />
    <glyph glyph-name="agrave" unicode="&#xe0;" horiz-adv-x="592" 
d="M414 528h-80l-77 160h112zM414 464h128l-57 -464h-128l6 50q-61 -58 -145 -58q-98 0 -156 68.5t-45 171.5t87.5 171.5t172.5 68.5q83 0 131 -56zM251 112q49 0 88.5 35t45.5 85t-25 85t-80 35q-50 0 -89.5 -35.5t-45.5 -84.5t25 -84.5t81 -35.5z" />
    <glyph glyph-name="aacute" unicode="&#xe1;" horiz-adv-x="592" 
d="M270 528l83 160h112l-115 -160h-80zM414 464h128l-57 -464h-128l6 50q-61 -58 -145 -58q-98 0 -156 68.5t-45 171.5t87.5 171.5t172.5 68.5q83 0 131 -56zM251 112q49 0 88.5 35t45.5 85t-25 85t-80 35q-50 0 -89.5 -35.5t-45.5 -84.5t25 -84.5t81 -35.5z" />
    <glyph glyph-name="acircumflex" unicode="&#xe2;" horiz-adv-x="592" 
d="M382 528l-48 72l-64 -72h-80l155 160l117 -160h-80zM414 464h128l-57 -464h-128l6 50q-61 -58 -145 -58q-98 0 -156 68.5t-45 171.5t87.5 171.5t172.5 68.5q83 0 131 -56zM251 112q49 0 88.5 35t45.5 85t-25 85t-80 35q-50 0 -89.5 -35.5t-45.5 -84.5t25 -84.5t81 -35.5z
" />
    <glyph glyph-name="atilde" unicode="&#xe3;" horiz-adv-x="592" 
d="M475 640l50 -53q-49 -59 -117 -59q-36 0 -74 15q-108 37 -144 -15l-50 53q49 59 117 59q38 0 74 -14q45 -19 83.5 -18t60.5 32zM414 464h128l-57 -464h-128l6 50q-61 -58 -145 -58q-98 0 -156 68.5t-45 171.5t87.5 171.5t172.5 68.5q83 0 131 -56zM251 112q49 0 88.5 35
t45.5 85t-25 85t-80 35q-50 0 -89.5 -35.5t-45.5 -84.5t25 -84.5t81 -35.5z" />
    <glyph glyph-name="adieresis" unicode="&#xe4;" horiz-adv-x="592" 
d="M230 528q-27 0 -43.5 18.5t-13.5 45.5q4 27 24.5 45.5t47.5 18.5t43.5 -18.5t12.5 -45.5q-3 -27 -23.5 -45.5t-47.5 -18.5zM422 528q-27 0 -43.5 18.5t-13.5 45.5q4 27 24.5 45.5t47.5 18.5t43.5 -18.5t12.5 -45.5q-3 -27 -23.5 -45.5t-47.5 -18.5zM414 464h128l-57 -464
h-128l6 50q-61 -58 -145 -58q-98 0 -156 68.5t-45 171.5t87.5 171.5t172.5 68.5q83 0 131 -56zM251 112q49 0 88.5 35t45.5 85t-25 85t-80 35q-50 0 -89.5 -35.5t-45.5 -84.5t25 -84.5t81 -35.5z" />
    <glyph glyph-name="aring" unicode="&#xe5;" horiz-adv-x="592" 
d="M359 736q50 0 81 -35t24 -85q-6 -50 -45 -85t-89 -35t-81 35t-25 85q7 50 46 85t89 35zM338 560q23 0 41.5 17t20.5 39q3 22 -11.5 39t-37.5 17q-22 0 -41 -16.5t-22 -39.5q-2 -23 13 -39.5t37 -16.5zM414 464h128l-57 -464h-128l6 50q-61 -58 -145 -58q-98 0 -156 68.5
t-45 171.5t87.5 171.5t172.5 68.5q83 0 131 -56zM251 112q49 0 88.5 35t45.5 85t-25 85t-80 35q-50 0 -89.5 -35.5t-45.5 -84.5t25 -84.5t81 -35.5z" />
    <glyph glyph-name="ae" unicode="&#xe6;" horiz-adv-x="912" 
d="M654 112q68 0 118 48l57 -94q-85 -74 -192 -74q-99 0 -146 60l-6 -52h-128l6 50q-61 -58 -145 -58q-98 0 -156 68.5t-45 171.5t87.5 171.5t172.5 68.5q83 0 131 -56l6 48h128l-6 -51q59 59 160 59q27 0 55 -8.5t57 -27t51.5 -55t29.5 -85.5l-299 -169q24 -15 64 -15z
M385 232q6 50 -25 85t-80 35q-50 0 -89.5 -35.5t-45.5 -84.5t25 -84.5t81 -35.5q49 0 88.5 35t45.5 85zM545 232q-1 -9 0 -18l199 110q-21 28 -61 28q-53 0 -92.5 -35t-45.5 -85z" />
    <glyph glyph-name="ccedilla" unicode="&#xe7;" horiz-adv-x="480" 
d="M413 66q-71 -68 -161 -74l-5 -40q39 -3 71.5 -33.5t25.5 -86.5q-7 -60 -52 -98t-101 -38q-43 0 -72 18t-40 45l54 45q12 -44 66 -44q32 0 55 22t26 51q5 40 -26.5 57.5t-77.5 5.5l12 100q-90 15 -136 80.5t-35 155.5q13 103 89.5 171.5t189.5 68.5q98 0 158 -74l-80 -94
q-35 48 -91 48q-52 0 -92 -35t-46 -85t25.5 -85t83.5 -35q56 0 102 48z" />
    <glyph glyph-name="egrave" unicode="&#xe8;" horiz-adv-x="512" 
d="M350 528h-80l-77 160h112zM254 112q68 0 118 48l57 -94q-85 -74 -192 -74q-112 0 -172 69.5t-48 170.5q13 103 89.5 171.5t189.5 68.5q27 0 55 -8.5t57 -27t51.5 -55t29.5 -85.5l-299 -169q24 -15 64 -15zM145 232q-1 -9 0 -18l199 110q-21 28 -61 28q-53 0 -92.5 -35
t-45.5 -85z" />
    <glyph glyph-name="eacute" unicode="&#xe9;" horiz-adv-x="512" 
d="M417 688l-115 -160h-80l83 160h112zM254 112q68 0 118 48l57 -94q-85 -74 -192 -74q-112 0 -172 69.5t-48 170.5q13 103 89.5 171.5t189.5 68.5q27 0 55 -8.5t57 -27t51.5 -55t29.5 -85.5l-299 -169q24 -15 64 -15zM145 232q-1 -9 0 -18l199 110q-21 28 -61 28
q-53 0 -92.5 -35t-45.5 -85z" />
    <glyph glyph-name="ecircumflex" unicode="&#xea;" horiz-adv-x="512" 
d="M294 600l-64 -72h-80l155 160l117 -160h-80zM254 112q68 0 118 48l57 -94q-85 -74 -192 -74q-112 0 -172 69.5t-48 170.5q13 103 89.5 171.5t189.5 68.5q27 0 55 -8.5t57 -27t51.5 -55t29.5 -85.5l-299 -169q24 -15 64 -15zM145 232q-1 -9 0 -18l199 110q-21 28 -61 28
q-53 0 -92.5 -35t-45.5 -85z" />
    <glyph glyph-name="edieresis" unicode="&#xeb;" horiz-adv-x="512" 
d="M190 528q-27 0 -43.5 18.5t-13.5 45.5q4 27 24.5 45.5t47.5 18.5t43.5 -18.5t12.5 -45.5q-3 -27 -23.5 -45.5t-47.5 -18.5zM382 528q-27 0 -43.5 18.5t-13.5 45.5q4 27 24.5 45.5t47.5 18.5t43.5 -18.5t12.5 -45.5q-3 -27 -23.5 -45.5t-47.5 -18.5zM254 112q68 0 118 48
l57 -94q-85 -74 -192 -74q-112 0 -172 69.5t-48 170.5q13 103 89.5 171.5t189.5 68.5q27 0 55 -8.5t57 -27t51.5 -55t29.5 -85.5l-299 -169q24 -15 64 -15zM145 232q-1 -9 0 -18l199 110q-21 28 -61 28q-53 0 -92.5 -35t-45.5 -85z" />
    <glyph glyph-name="igrave" unicode="&#xec;" horiz-adv-x="256" 
d="M214 528h-80l-77 160h112zM21 0l57 464h128l-57 -464h-128z" />
    <glyph glyph-name="iacute" unicode="&#xed;" horiz-adv-x="256" 
d="M86 528l83 160h112l-115 -160h-80zM21 0l57 464h128l-57 -464h-128z" />
    <glyph glyph-name="icircumflex" unicode="&#xee;" horiz-adv-x="256" 
d="M206 528l-48 72l-64 -72h-80l155 160l117 -160h-80zM21 0l57 464h128l-57 -464h-128z" />
    <glyph glyph-name="idieresis" unicode="&#xef;" horiz-adv-x="256" 
d="M54 528q-27 0 -43.5 18.5t-13.5 45.5q4 27 24.5 45.5t47.5 18.5t43.5 -18.5t12.5 -45.5q-3 -27 -23.5 -45.5t-47.5 -18.5zM246 528q-27 0 -43.5 18.5t-13.5 45.5q4 27 24.5 45.5t47.5 18.5t43.5 -18.5t12.5 -45.5q-3 -27 -23.5 -45.5t-47.5 -18.5zM21 0l57 464h128
l-57 -464h-128z" />
    <glyph glyph-name="eth" unicode="&#xf0;" horiz-adv-x="560" 
d="M456 438q71 -92 57 -206q-12 -100 -92 -170t-185 -70q-109 0 -170 69.5t-49 170.5q12 98 83.5 166t177.5 74l-53 71l-111 -47l9 72l63 27l-81 109h144l48 -62l112 47l-8 -72l-63 -27zM385 232q6 50 -24 85t-81 35t-90 -35t-45 -85t24.5 -85t81.5 -35t89.5 35t44.5 85z
" />
    <glyph glyph-name="ntilde" unicode="&#xf1;" 
d="M443 640l50 -53q-49 -59 -117 -59q-36 0 -74 15q-108 37 -144 -15l-50 53q49 59 117 59q38 0 74 -14q45 -19 83.5 -18t60.5 32zM327 472q81 0 126 -54.5t31 -161.5l-31 -256h-128l31 256q12 96 -76 96q-33 0 -64 -28t-38 -84l-29 -240h-128l57 464h128l-6 -48
q52 56 127 56z" />
    <glyph glyph-name="ograve" unicode="&#xf2;" horiz-adv-x="560" 
d="M358 528h-80l-77 160h112zM295 472q104 0 167.5 -70t50.5 -170q-12 -100 -92 -170t-185 -70q-109 0 -170 69.5t-49 170.5q13 103 89.5 171.5t188.5 68.5zM251 112q51 0 89.5 35t44.5 85t-24 85t-81 35t-90 -35t-45 -85t24.5 -85t81.5 -35z" />
    <glyph glyph-name="oacute" unicode="&#xf3;" horiz-adv-x="560" 
d="M246 528l83 160h112l-115 -160h-80zM295 472q104 0 167.5 -70t50.5 -170q-12 -100 -92 -170t-185 -70q-109 0 -170 69.5t-49 170.5q13 103 89.5 171.5t188.5 68.5zM251 112q51 0 89.5 35t44.5 85t-24 85t-81 35t-90 -35t-45 -85t24.5 -85t81.5 -35z" />
    <glyph glyph-name="ocircumflex" unicode="&#xf4;" horiz-adv-x="560" 
d="M358 528l-48 72l-64 -72h-80l155 160l117 -160h-80zM295 472q104 0 167.5 -70t50.5 -170q-12 -100 -92 -170t-185 -70q-109 0 -170 69.5t-49 170.5q13 103 89.5 171.5t188.5 68.5zM251 112q51 0 89.5 35t44.5 85t-24 85t-81 35t-90 -35t-45 -85t24.5 -85t81.5 -35z" />
    <glyph glyph-name="otilde" unicode="&#xf5;" horiz-adv-x="560" 
d="M451 640l50 -53q-49 -59 -117 -59q-36 0 -74 15q-108 37 -144 -15l-50 53q49 59 117 59q38 0 74 -14q45 -19 83.5 -18t60.5 32zM295 472q104 0 167.5 -70t50.5 -170q-12 -100 -92 -170t-185 -70q-109 0 -170 69.5t-49 170.5q13 103 89.5 171.5t188.5 68.5zM251 112
q51 0 89.5 35t44.5 85t-24 85t-81 35t-90 -35t-45 -85t24.5 -85t81.5 -35z" />
    <glyph glyph-name="odieresis" unicode="&#xf6;" horiz-adv-x="560" 
d="M206 528q-27 0 -43.5 18.5t-13.5 45.5q4 27 24.5 45.5t47.5 18.5t43.5 -18.5t12.5 -45.5q-3 -27 -23.5 -45.5t-47.5 -18.5zM398 528q-27 0 -43.5 18.5t-13.5 45.5q4 27 24.5 45.5t47.5 18.5t43.5 -18.5t12.5 -45.5q-3 -27 -23.5 -45.5t-47.5 -18.5zM295 472
q104 0 167.5 -70t50.5 -170q-12 -100 -92 -170t-185 -70q-109 0 -170 69.5t-49 170.5q13 103 89.5 171.5t188.5 68.5zM251 112q51 0 89.5 35t44.5 85t-24 85t-81 35t-90 -35t-45 -85t24.5 -85t81.5 -35z" />
    <glyph glyph-name="divide" unicode="&#xf7;" horiz-adv-x="464" 
d="M248 480q-34 0 -54 23t-16 57t29.5 57t59.5 23t54.5 -23t16.5 -57q-5 -34 -30.5 -57t-59.5 -23zM53 392h368l-12 -96h-368zM195 48q-34 0 -54.5 23t-16.5 57q5 34 30.5 57t59.5 23t54 -23t16 -57t-29.5 -57t-59.5 -23z" />
    <glyph glyph-name="oslash" unicode="&#xf8;" horiz-adv-x="560" 
d="M295 472q104 0 167.5 -70t50.5 -170q-12 -100 -92 -170t-185 -70q-109 0 -170 69.5t-49 170.5q13 103 89.5 171.5t188.5 68.5zM145 232q-4 -34 10 -63l171 174q-20 9 -46 9q-51 0 -90 -35t-45 -85zM385 232q4 34 -10 63l-170 -174q20 -9 46 -9q51 0 89.5 35t44.5 85z" />
    <glyph glyph-name="ugrave" unicode="&#xf9;" 
d="M342 528h-80l-77 160h112zM188 -8q-81 0 -126 54.5t-32 161.5l32 256h128l-32 -256q-12 -96 77 -96q33 0 63.5 28t37.5 84l30 240h128l-57 -464h-128l6 48q-54 -56 -127 -56z" />
    <glyph glyph-name="uacute" unicode="&#xfa;" 
d="M230 528l83 160h112l-115 -160h-80zM188 -8q-81 0 -126 54.5t-32 161.5l32 256h128l-32 -256q-12 -96 77 -96q33 0 63.5 28t37.5 84l30 240h128l-57 -464h-128l6 48q-54 -56 -127 -56z" />
    <glyph glyph-name="ucircumflex" unicode="&#xfb;" 
d="M342 528l-48 72l-64 -72h-80l155 160l117 -160h-80zM188 -8q-81 0 -126 54.5t-32 161.5l32 256h128l-32 -256q-12 -96 77 -96q33 0 63.5 28t37.5 84l30 240h128l-57 -464h-128l6 48q-54 -56 -127 -56z" />
    <glyph glyph-name="udieresis" unicode="&#xfc;" 
d="M190 528q-27 0 -43.5 18.5t-13.5 45.5q4 27 24.5 45.5t47.5 18.5t43.5 -18.5t12.5 -45.5q-3 -27 -23.5 -45.5t-47.5 -18.5zM382 528q-27 0 -43.5 18.5t-13.5 45.5q4 27 24.5 45.5t47.5 18.5t43.5 -18.5t12.5 -45.5q-3 -27 -23.5 -45.5t-47.5 -18.5zM188 -8
q-81 0 -126 54.5t-32 161.5l32 256h128l-32 -256q-12 -96 77 -96q33 0 63.5 28t37.5 84l30 240h128l-57 -464h-128l6 48q-54 -56 -127 -56z" />
    <glyph glyph-name="yacute" unicode="&#xfd;" 
d="M230 528l83 160h112l-115 -160h-80zM366 464h128l-53 -432q-18 -143 -95.5 -219.5t-197.5 -76.5q-117 0 -184 64l73 100q52 -44 117 -44q63 0 105.5 44t51.5 117l4 31q-54 -56 -127 -56q-81 0 -126 54.5t-32 161.5l32 256h128l-32 -256q-12 -96 77 -96q33 0 63.5 28
t37.5 84z" />
    <glyph glyph-name="thorn" unicode="&#xfe;" horiz-adv-x="592" 
d="M235 704l-35 -288q61 56 145 56q98 0 155.5 -68.5t44.5 -171.5t-87 -171.5t-172 -68.5q-83 0 -131 58l-38 -306h-128l118 960h128zM283 112q49 0 88.5 35t45.5 85t-25 85t-80 35q-50 0 -89.5 -35.5t-45.5 -84.5t25 -84.5t81 -35.5z" />
    <glyph glyph-name="ydieresis" unicode="&#xff;" 
d="M190 528q-27 0 -43.5 18.5t-13.5 45.5q4 27 24.5 45.5t47.5 18.5t43.5 -18.5t12.5 -45.5q-3 -27 -23.5 -45.5t-47.5 -18.5zM382 528q-27 0 -43.5 18.5t-13.5 45.5q4 27 24.5 45.5t47.5 18.5t43.5 -18.5t12.5 -45.5q-3 -27 -23.5 -45.5t-47.5 -18.5zM366 464h128l-53 -432
q-18 -143 -95.5 -219.5t-197.5 -76.5q-117 0 -184 64l73 100q52 -44 117 -44q63 0 105.5 44t51.5 117l4 31q-54 -56 -127 -56q-81 0 -126 54.5t-32 161.5l32 256h128l-32 -256q-12 -96 77 -96q33 0 63.5 28t37.5 84z" />
    <glyph glyph-name="Amacron" unicode="&#x100;" horiz-adv-x="640" 
d="M511 864l-10 -80h-256l10 80h256zM459 0l-29 96h-283l-52 -96h-138l408 720l232 -720h-138zM208 208h189l-67 224z" />
    <glyph glyph-name="amacron" unicode="&#x101;" horiz-adv-x="592" 
d="M464 544h-256l9 80h256zM414 464h128l-57 -464h-128l6 50q-61 -58 -145 -58q-98 0 -156 68.5t-45 171.5t87.5 171.5t172.5 68.5q83 0 131 -56zM251 112q49 0 88.5 35t45.5 85t-25 85t-80 35q-50 0 -89.5 -35.5t-45.5 -84.5t25 -84.5t81 -35.5z" />
    <glyph glyph-name="Abreve" unicode="&#x102;" horiz-adv-x="640" 
d="M371 768q-57 0 -91.5 39.5t-27.5 96.5h64q-4 -29 15 -50.5t48 -21.5t53 21.5t28 50.5h64q-7 -56 -51.5 -96t-101.5 -40zM459 0l-29 96h-283l-52 -96h-138l408 720l232 -720h-138zM208 208h189l-67 224z" />
    <glyph glyph-name="abreve" unicode="&#x103;" horiz-adv-x="592" 
d="M414 664h64q-7 -56 -51 -96t-101 -40t-92 39.5t-28 96.5h64q-3 -29 15.5 -50.5t47.5 -21.5t53.5 21.5t27.5 50.5zM414 464h128l-57 -464h-128l6 50q-61 -58 -145 -58q-98 0 -156 68.5t-45 171.5t87.5 171.5t172.5 68.5q83 0 131 -56zM251 112q49 0 88.5 35t45.5 85
t-25 85t-80 35q-50 0 -89.5 -35.5t-45.5 -84.5t25 -84.5t81 -35.5z" />
    <glyph glyph-name="Aogonek" unicode="&#x104;" horiz-adv-x="640" 
d="M474 -90q-5 -41 30.5 -51.5t67.5 19.5l19 -54q-14 -13 -38 -22.5t-44 -9.5q-52 0 -78.5 32.5t-21.5 81.5q7 55 50 94l-29 96h-283l-52 -96h-138l408 720l232 -720q-43 0 -81 -27t-42 -63zM208 208h189l-67 224z" />
    <glyph glyph-name="aogonek" unicode="&#x105;" horiz-adv-x="592" 
d="M485 0q-43 0 -81 -27t-42 -63q-5 -41 30.5 -51.5t67.5 19.5l19 -54q-14 -13 -38 -22.5t-44 -9.5q-52 0 -78.5 32.5t-21.5 81.5q4 28 21.5 57t39.5 45l5 42q-61 -58 -145 -58q-98 0 -156 68.5t-45 171.5t87.5 171.5t172.5 68.5q83 0 131 -56l6 48h128zM251 112
q49 0 88.5 35t45.5 85t-25 85t-80 35q-50 0 -89.5 -35.5t-45.5 -84.5t25 -84.5t81 -35.5z" />
    <glyph glyph-name="Cacute" unicode="&#x106;" horiz-adv-x="640" 
d="M387 768l84 160h112l-116 -160h-80zM383 112q81 0 149 48l57 -96q-98 -72 -222 -72q-160 0 -256.5 105t-78.5 255t140.5 255t282.5 105q124 0 204 -72l-79 -96q-63 48 -139 48q-103 0 -185 -65t-96 -175t53 -175t170 -65z" />
    <glyph glyph-name="cacute" unicode="&#x107;" horiz-adv-x="480" 
d="M230 528l83 160h112l-115 -160h-80zM254 112q56 0 102 48l57 -94q-77 -74 -176 -74q-113 0 -172.5 68.5t-47.5 171.5q13 103 89.5 171.5t189.5 68.5q98 0 158 -74l-80 -94q-35 48 -91 48q-52 0 -92 -35t-46 -85t25.5 -85t83.5 -35z" />
    <glyph glyph-name="Cdotaccent" unicode="&#x10a;" horiz-adv-x="640" 
d="M449 752q-33 0 -53.5 23.5t-16.5 56.5t30.5 56.5t59.5 23.5t53.5 -23.5t16.5 -56.5t-30.5 -56.5t-59.5 -23.5zM383 112q81 0 149 48l57 -96q-98 -72 -222 -72q-160 0 -256.5 105t-78.5 255t140.5 255t282.5 105q124 0 204 -72l-79 -96q-63 48 -139 48q-103 0 -185 -65
t-96 -175t53 -175t170 -65z" />
    <glyph glyph-name="cdotaccent" unicode="&#x10b;" horiz-adv-x="480" 
d="M292 512q-33 0 -54 23.5t-17 56.5q5 33 31 56.5t59 23.5t53.5 -23.5t16.5 -56.5t-30 -56.5t-59 -23.5zM254 112q56 0 102 48l57 -94q-77 -74 -176 -74q-113 0 -172.5 68.5t-47.5 171.5q13 103 89.5 171.5t189.5 68.5q98 0 158 -74l-80 -94q-35 48 -91 48q-52 0 -92 -35
t-46 -85t25.5 -85t83.5 -35z" />
    <glyph glyph-name="Ccaron" unicode="&#x10c;" horiz-adv-x="640" 
d="M519 928h80l-156 -160l-116 160h80l47 -72zM383 112q81 0 149 48l57 -96q-98 -72 -222 -72q-160 0 -256.5 105t-78.5 255t140.5 255t282.5 105q124 0 204 -72l-79 -96q-63 48 -139 48q-103 0 -185 -65t-96 -175t53 -175t170 -65z" />
    <glyph glyph-name="ccaron" unicode="&#x10d;" horiz-adv-x="480" 
d="M369 688h80l-155 -160l-117 160h80l47 -72zM254 112q56 0 102 48l57 -94q-77 -74 -176 -74q-113 0 -172.5 68.5t-47.5 171.5q13 103 89.5 171.5t189.5 68.5q98 0 158 -74l-80 -94q-35 48 -91 48q-52 0 -92 -35t-46 -85t25.5 -85t83.5 -35z" />
    <glyph glyph-name="Dcaron" unicode="&#x10e;" horiz-adv-x="608" 
d="M407 928h80l-156 -160l-116 160h80l47 -72zM258 704q90 0 157 -28.5t104 -78t51.5 -112t5.5 -133.5q-18 -149 -125 -250.5t-279 -101.5h-151l86 704h151zM210 120q91 0 159 70t79 162t-40 162t-142 70h-46l-56 -464h46z" />
    <glyph glyph-name="dcaron" unicode="&#x10f;" horiz-adv-x="720" 
d="M447 736h128l-90 -736h-128l6 50q-61 -58 -145 -58q-98 0 -156 68.5t-45 171.5t87.5 171.5t172.5 68.5q83 0 131 -56zM602 560l17 144h112l-49 -144h-80zM251 112q49 0 88.5 35t45.5 85t-25 85t-80 35q-50 0 -89.5 -35.5t-45.5 -84.5t25 -84.5t81 -35.5z" />
    <glyph glyph-name="Dcroat" unicode="&#x110;" horiz-adv-x="608" 
d="M258 704q90 0 157 -28.5t104 -78t51.5 -112t5.5 -133.5q-18 -149 -125 -250.5t-279 -101.5h-151l43 352l-5 -40h-48l10 80h48l38 312h151zM448 352q11 92 -40 162t-142 70h-46l-28 -232l5 40h96l-10 -80h-96l-23 -192h46q91 0 159 70t79 162z" />
    <glyph glyph-name="dcroat" unicode="&#x111;" horiz-adv-x="592" 
d="M610 632l-7 -64h-49l-69 -568h-128l6 50q-61 -58 -145 -58q-98 0 -156 68.5t-45 171.5t87.5 171.5t172.5 68.5q83 0 131 -56l19 152h-96l7 64h96l13 104h128l-13 -104h48zM385 232q6 50 -25 85t-80 35q-50 0 -89.5 -35.5t-45.5 -84.5t25 -84.5t81 -35.5q49 0 88.5 35
t45.5 85z" />
    <glyph glyph-name="Emacron" unicode="&#x112;" horiz-adv-x="480" 
d="M421 784h-256l10 80h256zM460 584h-240l-26 -212h176l-14 -120h-176l-16 -132h240l-15 -120h-368l86 704h368z" />
    <glyph glyph-name="emacron" unicode="&#x113;" horiz-adv-x="512" 
d="M425 624l-9 -80h-256l9 80h256zM254 112q68 0 118 48l57 -94q-85 -74 -192 -74q-112 0 -172 69.5t-48 170.5q13 103 89.5 171.5t189.5 68.5q27 0 55 -8.5t57 -27t51.5 -55t29.5 -85.5l-299 -169q24 -15 64 -15zM145 232q-1 -9 0 -18l199 110q-21 28 -61 28
q-53 0 -92.5 -35t-45.5 -85z" />
    <glyph glyph-name="Edotaccent" unicode="&#x116;" horiz-adv-x="480" 
d="M297 752q-33 0 -53.5 23.5t-16.5 56.5t30.5 56.5t59.5 23.5t53.5 -23.5t16.5 -56.5t-30.5 -56.5t-59.5 -23.5zM460 584h-240l-26 -212h176l-14 -120h-176l-16 -132h240l-15 -120h-368l86 704h368z" />
    <glyph glyph-name="edotaccent" unicode="&#x117;" horiz-adv-x="512" 
d="M284 512q-33 0 -54 23.5t-17 56.5q5 33 31 56.5t59 23.5t53.5 -23.5t16.5 -56.5t-30 -56.5t-59 -23.5zM254 112q68 0 118 48l57 -94q-85 -74 -192 -74q-112 0 -172 69.5t-48 170.5q13 103 89.5 171.5t189.5 68.5q27 0 55 -8.5t57 -27t51.5 -55t29.5 -85.5l-299 -169
q24 -15 64 -15zM145 232q-1 -9 0 -18l199 110q-21 28 -61 28q-53 0 -92.5 -35t-45.5 -85z" />
    <glyph glyph-name="Eogonek" unicode="&#x118;" horiz-adv-x="480" 
d="M460 584h-240l-26 -212h176l-14 -120h-176l-16 -132h240l-15 -120q-43 0 -81 -27t-42 -63q-5 -41 30.5 -51.5t67.5 19.5l19 -54q-14 -13 -38 -22.5t-44 -9.5q-52 0 -78.5 32.5t-21.5 81.5q7 53 52 94h-232l86 704h368z" />
    <glyph glyph-name="eogonek" unicode="&#x119;" horiz-adv-x="512" 
d="M307 0q-82 -31 -89 -90q-5 -41 30.5 -51.5t67.5 19.5l19 -54q-14 -13 -38 -22.5t-44 -9.5q-52 0 -78.5 32.5t-21.5 81.5q6 49 44 89q-94 12 -142.5 79t-37.5 158q13 103 89.5 171.5t189.5 68.5q27 0 55 -8.5t57 -27t51.5 -55t29.5 -85.5l-299 -169q24 -15 64 -15
q68 0 118 48l57 -94q-53 -47 -122 -66zM283 352q-53 0 -92.5 -35t-45.5 -85v-18l199 109q-20 29 -61 29z" />
    <glyph glyph-name="Ecaron" unicode="&#x11a;" horiz-adv-x="480" 
d="M367 928h80l-156 -160l-116 160h80l47 -72zM460 584h-240l-26 -212h176l-14 -120h-176l-16 -132h240l-15 -120h-368l86 704h368z" />
    <glyph glyph-name="ecaron" unicode="&#x11b;" horiz-adv-x="512" 
d="M441 688l-155 -160l-117 160h80l47 -72l65 72h80zM254 112q68 0 118 48l57 -94q-85 -74 -192 -74q-112 0 -172 69.5t-48 170.5q13 103 89.5 171.5t189.5 68.5q27 0 55 -8.5t57 -27t51.5 -55t29.5 -85.5l-299 -169q24 -15 64 -15zM145 232q-1 -9 0 -18l199 110
q-21 28 -61 28q-53 0 -92.5 -35t-45.5 -85z" />
    <glyph glyph-name="Gbreve" unicode="&#x11e;" horiz-adv-x="784" 
d="M532 904h64q-7 -56 -51.5 -96t-101.5 -40t-91.5 39.5t-27.5 96.5h64q-4 -29 15 -50.5t48 -21.5t53 21.5t28 50.5zM753 372q0 -8 -3 -34q-18 -146 -129 -246t-256 -100q-159 0 -255 105t-78 255t140.5 255t282.5 105q124 0 204 -72l-79 -96q-63 48 -139 48
q-103 0 -185 -65t-96 -175t52 -175t169 -65q76 0 135.5 41.5t83.5 98.5h-228l14 120h367z" />
    <glyph glyph-name="gbreve" unicode="&#x11f;" horiz-adv-x="592" 
d="M414 664h64q-7 -56 -51 -96t-101 -40t-92 39.5t-28 96.5h64q-3 -29 15.5 -50.5t47.5 -21.5t53.5 21.5t27.5 50.5zM414 464h128l-53 -432q-18 -143 -95.5 -219.5t-197.5 -76.5q-117 0 -184 64l73 100q52 -44 117 -44q63 0 105.5 44t51.5 117l4 33q-61 -58 -145 -58
q-98 0 -156 68.5t-45 171.5t87.5 171.5t172.5 68.5q83 0 131 -56zM251 112q49 0 88.5 35t45.5 85t-25 85t-80 35q-50 0 -89.5 -35.5t-45.5 -84.5t25 -84.5t81 -35.5z" />
    <glyph glyph-name="Gdotaccent" unicode="&#x120;" horiz-adv-x="784" 
d="M449 752q-33 0 -53.5 23.5t-16.5 56.5t30.5 56.5t59.5 23.5t53.5 -23.5t16.5 -56.5t-30.5 -56.5t-59.5 -23.5zM753 372q0 -8 -3 -34q-18 -146 -129 -246t-256 -100q-159 0 -255 105t-78 255t140.5 255t282.5 105q124 0 204 -72l-79 -96q-63 48 -139 48q-103 0 -185 -65
t-96 -175t52 -175t169 -65q76 0 135.5 41.5t83.5 98.5h-228l14 120h367z" />
    <glyph glyph-name="gdotaccent" unicode="&#x121;" horiz-adv-x="592" 
d="M316 512q-33 0 -54 23.5t-17 56.5q5 33 31 56.5t59 23.5t53.5 -23.5t16.5 -56.5t-30 -56.5t-59 -23.5zM414 464h128l-53 -432q-18 -143 -95.5 -219.5t-197.5 -76.5q-117 0 -184 64l73 100q52 -44 117 -44q63 0 105.5 44t51.5 117l4 33q-61 -58 -145 -58q-98 0 -156 68.5
t-45 171.5t87.5 171.5t172.5 68.5q83 0 131 -56zM251 112q49 0 88.5 35t45.5 85t-25 85t-80 35q-50 0 -89.5 -35.5t-45.5 -84.5t25 -84.5t81 -35.5z" />
    <glyph glyph-name="Gcommaaccent" unicode="&#x122;" horiz-adv-x="784" 
d="M753 372q0 -8 -3 -34q-18 -146 -129 -246t-256 -100q-159 0 -255 105t-78 255t140.5 255t282.5 105q124 0 204 -72l-79 -96q-63 48 -139 48q-103 0 -185 -65t-96 -175t52 -175t169 -65q76 0 135.5 41.5t83.5 98.5h-228l14 120h367zM275 -208l18 144h112l-50 -144h-80z
" />
    <glyph glyph-name="gcommaaccent" unicode="&#x123;" horiz-adv-x="592" 
d="M407 672l-17 -144h-112l49 144h80zM414 464h128l-53 -432q-18 -143 -95.5 -219.5t-197.5 -76.5q-117 0 -184 64l73 100q52 -44 117 -44q63 0 105.5 44t51.5 117l4 33q-61 -58 -145 -58q-98 0 -156 68.5t-45 171.5t87.5 171.5t172.5 68.5q83 0 131 -56zM251 112
q49 0 88.5 35t45.5 85t-25 85t-80 35q-50 0 -89.5 -35.5t-45.5 -84.5t25 -84.5t81 -35.5z" />
    <glyph glyph-name="Hbar" unicode="&#x126;" horiz-adv-x="592" 
d="M443 704h128l-86 -704h-128l31 252h-208l-31 -252h-128l86 704h128l-15 -120h208l-1 -13zM194 372h208l18 148h-207l6 51z" />
    <glyph glyph-name="hbar" unicode="&#x127;" 
d="M327 472q81 0 126 -54.5t31 -161.5l-31 -256h-128l31 256q12 96 -76 96q-33 0 -64 -28t-38 -84l-29 -240h-128l69 568h-47l7 64h48l13 104h128l-13 -104h96l-7 -64h-96l-19 -152q52 56 127 56z" />
    <glyph glyph-name="Imacron" unicode="&#x12a;" horiz-adv-x="256" 
d="M309 784h-256l10 80h256zM149 0h-128l86 704h128z" />
    <glyph glyph-name="imacron" unicode="&#x12b;" horiz-adv-x="256" 
d="M280 544h-256l9 80h256zM21 0l57 464h128l-57 -464h-128z" />
    <glyph glyph-name="Iogonek" unicode="&#x12e;" horiz-adv-x="256" 
d="M149 0q-43 0 -81 -27t-42 -63q-5 -41 30.5 -51.5t67.5 19.5l19 -54q-14 -13 -38 -22.5t-44 -9.5q-52 0 -78.5 32.5t-21.5 81.5q4 28 21.5 57t39.5 45l85 696h128z" />
    <glyph glyph-name="iogonek" unicode="&#x12f;" horiz-adv-x="256" 
d="M171 704q33 0 53.5 -23.5t16.5 -56.5t-30 -56.5t-59 -23.5t-54 23.5t-17 56.5q5 33 31 56.5t59 23.5zM22 8l56 456h128l-57 -464q-43 0 -81 -27t-42 -63q-5 -41 30.5 -51.5t67.5 19.5l19 -54q-14 -13 -38 -22.5t-44 -9.5q-52 0 -78.5 32.5t-21.5 81.5q4 28 21.5 57
t39.5 45z" />
    <glyph glyph-name="Idotaccent" unicode="&#x130;" horiz-adv-x="256" 
d="M177 752q-33 0 -53.5 23.5t-16.5 56.5t30.5 56.5t59.5 23.5t53.5 -23.5t16.5 -56.5t-30.5 -56.5t-59.5 -23.5zM149 0h-128l86 704h128z" />
    <glyph glyph-name="dotlessi" unicode="&#x131;" horiz-adv-x="256" 
d="M21 0l57 464h128l-57 -464h-128z" />
    <glyph glyph-name="IJ" unicode="&#x132;" horiz-adv-x="688" 
d="M149 0h-128l86 704h128zM555 704h128l-56 -456q-31 -256 -248 -256q-39 0 -75.5 13t-54.5 31l84 96q20 -20 56 -20q43 0 72 30.5t37 91.5z" />
    <glyph glyph-name="ij" unicode="&#x133;" horiz-adv-x="504" 
d="M152 544q-33 0 -54 23.5t-17 56.5q5 33 31 56.5t59 23.5t53.5 -23.5t16.5 -56.5t-30 -56.5t-59 -23.5zM400 544q-33 0 -54 23.5t-17 56.5q5 33 31 56.5t59 23.5t53.5 -23.5t16.5 -56.5t-30 -56.5t-59 -23.5zM21 0l57 464h128l-57 -464h-128zM235 -272l91 736h128
l-85 -688z" />
    <glyph glyph-name="Kcommaaccent" unicode="&#x136;" horiz-adv-x="560" 
d="M571 704l-254 -314l184 -390h-160l-119 274l-47 -58l-26 -216h-128l86 704h128l-34 -280l218 280h152zM139 -208l18 144h112l-50 -144h-80z" />
    <glyph glyph-name="kcommaaccent" unicode="&#x137;" horiz-adv-x="512" 
d="M510 464l-204 -202l163 -262h-156l-100 170l-49 -48l-15 -122h-128l90 736h128l-54 -438l173 166h152zM131 -208l18 144h112l-50 -144h-80z" />
    <glyph glyph-name="Lacute" unicode="&#x139;" horiz-adv-x="464" 
d="M115 768l84 160h112l-116 -160h-80zM107 704h128l-71 -584h240l-15 -120h-368z" />
    <glyph glyph-name="lacute" unicode="&#x13a;" horiz-adv-x="256" 
d="M119 800l84 160h112l-116 -160h-80zM111 736h128l-90 -736h-128z" />
    <glyph glyph-name="Lcommaaccent" unicode="&#x13b;" horiz-adv-x="464" 
d="M107 704h128l-71 -584h240l-15 -120h-368zM123 -208l18 144h112l-50 -144h-80z" />
    <glyph glyph-name="lcommaaccent" unicode="&#x13c;" horiz-adv-x="256" 
d="M111 736h128l-90 -736h-128zM3 -208l18 144h112l-50 -144h-80z" />
    <glyph glyph-name="Lcaron" unicode="&#x13d;" horiz-adv-x="464" 
d="M107 704h128l-71 -584h240l-15 -120h-368zM346 560l17 144h112l-49 -144h-80z" />
    <glyph glyph-name="lcaron" unicode="&#x13e;" horiz-adv-x="384" 
d="M111 736h128l-90 -736h-128zM266 560l17 144h112l-49 -144h-80z" />
    <glyph glyph-name="Ldot" unicode="&#x13f;" horiz-adv-x="464" 
d="M107 704h128l-71 -584h240l-15 -120h-368zM362 304q-34 0 -54 23t-16 57t30 57t60 23t54 -23t16 -57q-5 -34 -30.5 -57t-59.5 -23z" />
    <glyph glyph-name="ldot" unicode="&#x140;" horiz-adv-x="416" 
d="M111 736h128l-90 -736h-128zM313 296q-34 0 -54 23t-16 57t30 57t60 23t54 -23t16 -57q-5 -34 -30.5 -57t-59.5 -23z" />
    <glyph glyph-name="Lslash" unicode="&#x141;" horiz-adv-x="464" 
d="M164 120h240l-15 -120h-368l38 310l-50 -14l8 64l50 14l40 330h128l-36 -294l50 14l-8 -64l-49 -14z" />
    <glyph glyph-name="lslash" unicode="&#x142;" horiz-adv-x="256" 
d="M250 432l-8 -64l-50 -14l-43 -354h-128l39 318l-50 -14l8 64l50 14l43 354h128l-39 -318z" />
    <glyph glyph-name="Nacute" unicode="&#x143;" horiz-adv-x="624" 
d="M291 768l84 160h112l-116 -160h-80zM475 704h128l-88 -720l-318 408l-48 -392h-128l88 720l318 -408z" />
    <glyph glyph-name="nacute" unicode="&#x144;" 
d="M230 528l83 160h112l-115 -160h-80zM327 472q81 0 126 -54.5t31 -161.5l-31 -256h-128l31 256q12 96 -76 96q-33 0 -64 -28t-38 -84l-29 -240h-128l57 464h128l-6 -48q52 56 127 56z" />
    <glyph glyph-name="Ncommaaccent" unicode="&#x145;" horiz-adv-x="624" 
d="M475 704h128l-88 -720l-318 408l-48 -392h-128l88 720l318 -408zM187 -208l18 144h112l-50 -144h-80z" />
    <glyph glyph-name="ncommaaccent" unicode="&#x146;" 
d="M327 472q81 0 126 -54.5t31 -161.5l-31 -256h-128l31 256q12 96 -76 96q-33 0 -64 -28t-38 -84l-29 -240h-128l57 464h128l-6 -48q52 56 127 56zM147 -208l18 144h112l-50 -144h-80z" />
    <glyph glyph-name="Ncaron" unicode="&#x147;" horiz-adv-x="624" 
d="M439 928h80l-156 -160l-116 160h80l47 -72zM475 704h128l-88 -720l-318 408l-48 -392h-128l88 720l318 -408z" />
    <glyph glyph-name="ncaron" unicode="&#x148;" 
d="M369 688h80l-155 -160l-117 160h80l47 -72zM327 472q81 0 126 -54.5t31 -161.5l-31 -256h-128l31 256q12 96 -76 96q-33 0 -64 -28t-38 -84l-29 -240h-128l57 464h128l-6 -48q52 56 127 56z" />
    <glyph glyph-name="Eng" unicode="&#x14a;" horiz-adv-x="624" 
d="M475 704h128l-86 -704q-9 -73 -34 -126.5t-59.5 -82t-71 -42t-76.5 -13.5l-13 120q47 1 81.5 34t42.5 94l17 142l-207 266l-48 -392h-128l88 720l318 -408z" />
    <glyph glyph-name="eng" unicode="&#x14b;" 
d="M327 472q81 0 126 -54.5t31 -161.5l-31 -256q-9 -73 -34 -126.5t-59.5 -82t-71 -42t-76.5 -13.5l-13 120q47 1 81.5 34t42.5 94l33 272q12 96 -76 96q-33 0 -64 -28t-38 -84l-29 -240h-128l57 464h128l-6 -48q52 56 127 56z" />
    <glyph glyph-name="Omacron" unicode="&#x14c;" horiz-adv-x="784" 
d="M573 784h-256l10 80h256zM436 712q149 0 241.5 -105.5t74.5 -254.5t-136.5 -254.5t-267.5 -105.5t-241.5 105.5t-74.5 254.5t136.5 254.5t267.5 105.5zM363 112q96 0 172.5 70t88.5 170t-47.5 170t-155.5 70t-172.5 -70t-88.5 -170t47.5 -170t155.5 -70z" />
    <glyph glyph-name="omacron" unicode="&#x14d;" horiz-adv-x="560" 
d="M432 544h-256l9 80h256zM295 472q104 0 167.5 -70t50.5 -170q-12 -100 -92 -170t-185 -70q-109 0 -170 69.5t-49 170.5q13 103 89.5 171.5t188.5 68.5zM251 112q51 0 89.5 35t44.5 85t-24 85t-81 35t-90 -35t-45 -85t24.5 -85t81.5 -35z" />
    <glyph glyph-name="Ohungarumlaut" unicode="&#x150;" horiz-adv-x="784" 
d="M291 768l18 144h104l-50 -144h-72zM515 768l18 144h104l-50 -144h-72zM436 712q149 0 241.5 -105.5t74.5 -254.5t-136.5 -254.5t-267.5 -105.5t-241.5 105.5t-74.5 254.5t136.5 254.5t267.5 105.5zM363 112q96 0 172.5 70t88.5 170t-47.5 170t-155.5 70t-172.5 -70
t-88.5 -170t47.5 -170t155.5 -70z" />
    <glyph glyph-name="ohungarumlaut" unicode="&#x151;" horiz-adv-x="560" 
d="M150 528l17 144h104l-49 -144h-72zM374 528l17 144h104l-49 -144h-72zM295 472q104 0 167.5 -70t50.5 -170q-12 -100 -92 -170t-185 -70q-109 0 -170 69.5t-49 170.5q13 103 89.5 171.5t188.5 68.5zM251 112q51 0 89.5 35t44.5 85t-24 85t-81 35t-90 -35t-45 -85
t24.5 -85t81.5 -35z" />
    <glyph glyph-name="OE" unicode="&#x152;" horiz-adv-x="1040" 
d="M1020 584h-240l-26 -212h176l-14 -120h-176l-16 -132h240l-15 -120h-368l9 77q-111 -85 -242 -85q-149 0 -241.5 105.5t-74.5 254.5t136.5 254.5t267.5 105.5q131 0 222 -85l9 77h368zM363 112q96 0 172.5 70t88.5 170t-47.5 170t-155.5 70t-172.5 -70t-88.5 -170
t47.5 -170t155.5 -70z" />
    <glyph glyph-name="oe" unicode="&#x153;" horiz-adv-x="880" 
d="M622 112q68 0 118 48l57 -94q-85 -74 -192 -74q-117 0 -178 76q-81 -76 -191 -76q-109 0 -170 69.5t-49 170.5q13 103 89.5 171.5t188.5 68.5q108 0 172 -75q80 75 197 75q27 0 55 -8.5t57 -27t51.5 -55t29.5 -85.5l-299 -169q24 -15 64 -15zM251 112q51 0 89.5 35
t44.5 85t-24 85t-81 35t-90 -35t-45 -85t24.5 -85t81.5 -35zM651 352q-53 0 -92 -34.5t-46 -84.5v-1q-1 -9 0 -18l199 110q-21 28 -61 28z" />
    <glyph glyph-name="Racute" unicode="&#x154;" horiz-adv-x="528" 
d="M431 928l-116 -160h-80l84 160h112zM493 460q-8 -65 -46.5 -120.5t-98.5 -88.5l105 -251h-144l-80 217q-8 -1 -24 -1h-30l-26 -216h-128l86 704h142q135 0 196 -69.5t48 -174.5zM365 460q7 57 -24 90.5t-84 33.5h-37l-30 -248h37q52 0 92 36t46 88z" />
    <glyph glyph-name="racute" unicode="&#x155;" horiz-adv-x="400" 
d="M142 528l83 160h112l-115 -160h-80zM195 375q58 88 188 97l-19 -152q-43 12 -88 0q-39 -11 -68.5 -45.5t-36.5 -89.5l-22 -185h-128l57 464h128z" />
    <glyph glyph-name="Rcommaaccent" unicode="&#x156;" horiz-adv-x="528" 
d="M493 460q-8 -65 -46.5 -120.5t-98.5 -88.5l105 -251h-144l-80 217q-8 -1 -24 -1h-30l-26 -216h-128l86 704h142q135 0 196 -69.5t48 -174.5zM365 460q7 57 -24 90.5t-84 33.5h-37l-30 -248h37q52 0 92 36t46 88zM131 -208l18 144h112l-50 -144h-80z" />
    <glyph glyph-name="rcommaaccent" unicode="&#x157;" horiz-adv-x="400" 
d="M195 375q58 88 188 97l-19 -152q-43 12 -88 0q-39 -11 -68.5 -45.5t-36.5 -89.5l-22 -185h-128l57 464h128zM43 -208l18 144h112l-50 -144h-80z" />
    <glyph glyph-name="Rcaron" unicode="&#x158;" horiz-adv-x="528" 
d="M455 928l-156 -160l-116 160h80l47 -72l65 72h80zM493 460q-8 -65 -46.5 -120.5t-98.5 -88.5l105 -251h-144l-80 217q-8 -1 -24 -1h-30l-26 -216h-128l86 704h142q135 0 196 -69.5t48 -174.5zM365 460q7 57 -24 90.5t-84 33.5h-37l-30 -248h37q52 0 92 36t46 88z" />
    <glyph glyph-name="rcaron" unicode="&#x159;" horiz-adv-x="400" 
d="M297 688h80l-155 -160l-117 160h80l47 -72zM195 375q58 88 188 97l-19 -152q-43 12 -88 0q-39 -11 -68.5 -45.5t-36.5 -89.5l-22 -185h-128l57 464h128z" />
    <glyph glyph-name="Sacute" unicode="&#x15a;" 
d="M267 768l84 160h112l-116 -160h-80zM292 451q36 -15 56 -25t49.5 -26.5t45.5 -34t31 -41.5t19.5 -54.5t0.5 -67.5q-11 -87 -84.5 -148.5t-177.5 -61.5q-87 0 -149 46t-79 82l85 90q31 -48 73 -73t85 -25q47 0 80.5 26t37.5 58q9 81 -82 117q-108 43 -153 93t-36 129
q10 76 76.5 126.5t155.5 50.5q107 0 182 -78l-82 -94q-50 52 -117 52q-31 0 -57 -15.5t-30 -41.5q-4 -30 14 -49t56 -35z" />
    <glyph glyph-name="sacute" unicode="&#x15b;" horiz-adv-x="448" 
d="M182 528l83 160h112l-115 -160h-80zM235 295q84 -21 123.5 -55t31.5 -97q-8 -65 -63.5 -108t-152.5 -43q-112 0 -177 74l77 95q46 -43 107 -51q35 -4 56.5 3.5t23.5 21.5q2 12 -11 18t-50 16q-3 1 -4 1t-3 1t-4 1.5t-4 0.5q-155 40 -140 155q8 61 62.5 102.5t142.5 41.5
q9 0 23.5 -1.5t52.5 -14t68 -34.5l-72 -99q-38 27 -84 31q-61 4 -65 -24q-1 -12 12.5 -19t49.5 -16z" />
    <glyph glyph-name="Scedilla" unicode="&#x15e;" 
d="M292 451q36 -15 56 -25t49.5 -26.5t45.5 -34t31 -41.5t19.5 -54.5t0.5 -67.5q-10 -82 -77.5 -142.5t-164.5 -66.5l-5 -41q39 -3 71.5 -33.5t25.5 -86.5q-7 -60 -52 -98t-101 -38q-43 0 -72 18t-40 45l54 45q12 -44 66 -44q32 0 55 22t26 51q5 40 -26.5 57.5t-77.5 5.5
l12 100q-70 12 -119.5 53t-64.5 71l85 90q31 -48 73 -73t85 -25q47 0 80.5 26t37.5 58q9 81 -82 117q-108 43 -153 93t-36 129q10 76 76.5 126.5t155.5 50.5q107 0 182 -78l-82 -94q-50 52 -117 52q-31 0 -57 -15.5t-30 -41.5q-4 -30 14 -49t56 -35z" />
    <glyph glyph-name="scedilla" unicode="&#x15f;" horiz-adv-x="448" 
d="M235 295q84 -21 123.5 -55t31.5 -97q-7 -60 -54.5 -101.5t-131.5 -48.5l-5 -41q39 -3 71.5 -33.5t25.5 -86.5q-7 -60 -52 -98t-101 -38q-43 0 -72 18t-40 45l54 45q12 -44 66 -44q32 0 55 22t26 51q5 40 -26.5 57.5t-77.5 5.5l12 98q-91 12 -143 72l77 95q46 -43 107 -51
q35 -4 56.5 3.5t23.5 21.5q2 12 -11 18t-50 16q-3 1 -4 1t-3 1t-4 1.5t-4 0.5q-155 40 -140 155q8 61 62.5 102.5t142.5 41.5q9 0 23.5 -1.5t52.5 -14t68 -34.5l-72 -99q-38 27 -84 31q-61 4 -65 -24q-1 -12 12.5 -19t49.5 -16z" />
    <glyph glyph-name="Scaron" unicode="&#x160;" 
d="M407 928h80l-156 -160l-116 160h80l47 -72zM292 451q36 -15 56 -25t49.5 -26.5t45.5 -34t31 -41.5t19.5 -54.5t0.5 -67.5q-11 -87 -84.5 -148.5t-177.5 -61.5q-87 0 -149 46t-79 82l85 90q31 -48 73 -73t85 -25q47 0 80.5 26t37.5 58q9 81 -82 117q-108 43 -153 93
t-36 129q10 76 76.5 126.5t155.5 50.5q107 0 182 -78l-82 -94q-50 52 -117 52q-31 0 -57 -15.5t-30 -41.5q-4 -30 14 -49t56 -35z" />
    <glyph glyph-name="scaron" unicode="&#x161;" horiz-adv-x="448" 
d="M321 688h80l-155 -160l-117 160h80l47 -72zM235 295q84 -21 123.5 -55t31.5 -97q-8 -65 -63.5 -108t-152.5 -43q-112 0 -177 74l77 95q46 -43 107 -51q35 -4 56.5 3.5t23.5 21.5q2 12 -11 18t-50 16q-3 1 -4 1t-3 1t-4 1.5t-4 0.5q-155 40 -140 155q8 61 62.5 102.5
t142.5 41.5q9 0 23.5 -1.5t52.5 -14t68 -34.5l-72 -99q-38 27 -84 31q-61 4 -65 -24q-1 -12 12.5 -19t49.5 -16z" />
    <glyph glyph-name="uni0162" unicode="&#x162;" horiz-adv-x="480" 
d="M75 704h416l-15 -120h-144l-71 -584h-32l-6 -48q39 -3 71.5 -33.5t25.5 -86.5q-7 -60 -52 -98t-101 -38q-43 0 -72 18t-40 45l54 45q12 -44 66 -44q32 0 55 22t26 51q5 40 -26.5 57.5t-77.5 5.5l13 104h-32l71 584h-144z" />
    <glyph glyph-name="uni0163" unicode="&#x163;" horiz-adv-x="400" 
d="M197 0h-32l-6 -48q39 -3 71.5 -33.5t25.5 -86.5q-7 -60 -52 -98t-101 -38q-43 0 -72 18t-40 45l54 45q12 -44 66 -44q32 0 55 22t26 51q5 40 -26.5 57.5t-77.5 5.5l13 104h-32l42 344h-80l15 120h80l18 152l133 40l-23 -192h128l-15 -120h-128z" />
    <glyph glyph-name="Tcaron" unicode="&#x164;" horiz-adv-x="480" 
d="M367 928h80l-156 -160l-116 160h80l47 -72zM75 704h416l-15 -120h-144l-71 -584h-128l71 584h-144z" />
    <glyph glyph-name="tcaron" unicode="&#x165;" horiz-adv-x="512" 
d="M394 560l17 144h112l-49 -144h-80zM69 0l42 344h-80l15 120h80l18 152l133 40l-23 -192h128l-15 -120h-128l-42 -344h-128z" />
    <glyph glyph-name="Tbar" unicode="&#x166;" horiz-adv-x="480" 
d="M476 584h-144l-29 -240h64l-8 -64h-64l-34 -280h-128l34 280h-64l8 64h64l29 240h-144l15 120h416z" />
    <glyph glyph-name="tbar" unicode="&#x167;" horiz-adv-x="400" 
d="M367 344h-128l-10 -80h96l-8 -64h-96l-24 -200h-128l24 200h-64l8 64h64l10 80h-80l15 120h80l18 152l133 40l-23 -192h128z" />
    <glyph glyph-name="Umacron" unicode="&#x16a;" horiz-adv-x="608" 
d="M485 784h-256l10 80h256zM459 704h128l-54 -440q-15 -127 -92 -199.5t-181 -72.5q-106 0 -164 72.5t-43 199.5l54 440h128l-55 -448q-9 -76 19 -110t76 -34q45 0 82.5 35t46.5 109z" />
    <glyph glyph-name="umacron" unicode="&#x16b;" 
d="M416 544h-256l9 80h256zM188 -8q-81 0 -126 54.5t-32 161.5l32 256h128l-32 -256q-12 -96 77 -96q33 0 63.5 28t37.5 84l30 240h128l-57 -464h-128l6 48q-54 -56 -127 -56z" />
    <glyph glyph-name="Uring" unicode="&#x16e;" horiz-adv-x="608" 
d="M467 704h120l-54 -440q-15 -127 -92 -199.5t-181 -72.5q-106 0 -164 72.5t-43 199.5l54 440h120q0 1 0.5 3.5t0.5 4.5q6 50 45.5 85t89.5 35t80.5 -35t24.5 -85q0 -2 -0.5 -4.5t-0.5 -3.5zM292 712q-2 -23 12.5 -39.5t36.5 -16.5q23 0 42 17t21 39q3 22 -11.5 39
t-37.5 17q-22 0 -41 -16.5t-22 -39.5zM404 256l51 412q-17 -34 -50.5 -55t-71.5 -21q-39 0 -66.5 21t-35.5 55l-51 -412q-9 -76 19 -110t76 -34q45 0 82.5 35t46.5 109z" />
    <glyph glyph-name="uring" unicode="&#x16f;" 
d="M319 736q50 0 81 -35t24 -85q-6 -50 -45 -85t-89 -35t-81 35t-25 85q7 50 46 85t89 35zM298 560q23 0 41.5 17t20.5 39q3 22 -11.5 39t-37.5 17q-22 0 -41 -16.5t-22 -39.5q-2 -23 13 -39.5t37 -16.5zM188 -8q-81 0 -126 54.5t-32 161.5l32 256h128l-32 -256
q-12 -96 77 -96q33 0 63.5 28t37.5 84l30 240h128l-57 -464h-128l6 48q-54 -56 -127 -56z" />
    <glyph glyph-name="Uhungarumlaut" unicode="&#x170;" horiz-adv-x="608" 
d="M195 768l18 144h104l-50 -144h-72zM419 768l18 144h104l-50 -144h-72zM459 704h128l-54 -440q-15 -127 -92 -199.5t-181 -72.5q-106 0 -164 72.5t-43 199.5l54 440h128l-55 -448q-9 -76 19 -110t76 -34q45 0 82.5 35t46.5 109z" />
    <glyph glyph-name="uhungarumlaut" unicode="&#x171;" 
d="M134 528l17 144h104l-49 -144h-72zM358 528l17 144h104l-49 -144h-72zM188 -8q-81 0 -126 54.5t-32 161.5l32 256h128l-32 -256q-12 -96 77 -96q33 0 63.5 28t37.5 84l30 240h128l-57 -464h-128l6 48q-54 -56 -127 -56z" />
    <glyph glyph-name="Uogonek" unicode="&#x172;" horiz-adv-x="608" 
d="M459 704h128l-54 -440q-12 -100 -64.5 -167.5t-128.5 -92.5q-91 -33 -98 -94q-5 -41 30.5 -51.5t67.5 19.5l19 -54q-14 -13 -38 -22.5t-44 -9.5q-52 0 -78.5 32.5t-21.5 81.5q6 49 44 89q-89 13 -135.5 83.5t-32.5 185.5l54 440h128l-55 -448q-9 -76 19 -110t76 -34
q45 0 82.5 35t46.5 109z" />
    <glyph glyph-name="uogonek" unicode="&#x173;" 
d="M437 0q-43 0 -81 -27t-42 -63q-5 -41 30.5 -51.5t67.5 19.5l19 -54q-14 -13 -38 -22.5t-44 -9.5q-52 0 -78.5 32.5t-21.5 81.5q4 28 21.5 57t39.5 45l5 40q-54 -56 -127 -56q-81 0 -126 54.5t-32 161.5l32 256h128l-32 -256q-12 -96 77 -96q33 0 63.5 28t37.5 84l30 240
h128z" />
    <glyph glyph-name="Wcircumflex" unicode="&#x174;" horiz-adv-x="912" 
d="M563 768l-47 72l-65 -72h-80l156 160l116 -160h-80zM955 704l-400 -720l-102 347l-186 -347l-224 720h144l119 -400l103 187l-58 213h140l103 -400l217 400h144z" />
    <glyph glyph-name="wcircumflex" unicode="&#x175;" horiz-adv-x="736" 
d="M398 600l-64 -72h-80l155 160l117 -160h-80zM750 464l-307 -480l-89 241l-151 -241l-189 480h136l85 -218l68 118l-37 100h132l77 -218l139 218h136z" />
    <glyph glyph-name="Ycircumflex" unicode="&#x176;" horiz-adv-x="576" 
d="M395 768l-47 72l-65 -72h-80l156 160l116 -160h-80zM475 704h144l-275 -420l-35 -284h-128l35 284l-173 420h144l110 -280z" />
    <glyph glyph-name="ycircumflex" unicode="&#x177;" 
d="M342 528l-48 72l-64 -72h-80l155 160l117 -160h-80zM366 464h128l-53 -432q-18 -143 -95.5 -219.5t-197.5 -76.5q-117 0 -184 64l73 100q52 -44 117 -44q63 0 105.5 44t51.5 117l4 31q-54 -56 -127 -56q-81 0 -126 54.5t-32 161.5l32 256h128l-32 -256q-12 -96 77 -96
q33 0 63.5 28t37.5 84z" />
    <glyph glyph-name="Ydieresis" unicode="&#x178;" horiz-adv-x="576" 
d="M243 768q-27 0 -43 18.5t-13 45.5t24 45.5t48 18.5t43 -18.5t13 -45.5t-24 -45.5t-48 -18.5zM435 768q-27 0 -43 18.5t-13 45.5t24 45.5t48 18.5t43 -18.5t13 -45.5t-24 -45.5t-48 -18.5zM475 704h144l-275 -420l-35 -284h-128l35 284l-173 420h144l110 -280z" />
    <glyph glyph-name="Zacute" unicode="&#x179;" horiz-adv-x="528" 
d="M251 768l84 160h112l-116 -160h-80zM437 0h-448l343 584h-256l15 120h448l-343 -584h256z" />
    <glyph glyph-name="zacute" unicode="&#x17a;" horiz-adv-x="480" 
d="M198 528l83 160h112l-115 -160h-80zM389 0h-400l242 344h-184l15 120h400l-242 -344h184z" />
    <glyph glyph-name="Zdotaccent" unicode="&#x17b;" horiz-adv-x="528" 
d="M313 752q-33 0 -53.5 23.5t-16.5 56.5t30.5 56.5t59.5 23.5t53.5 -23.5t16.5 -56.5t-30.5 -56.5t-59.5 -23.5zM437 0h-448l343 584h-256l15 120h448l-343 -584h256z" />
    <glyph glyph-name="zdotaccent" unicode="&#x17c;" horiz-adv-x="480" 
d="M260 512q-33 0 -54 23.5t-17 56.5q5 33 31 56.5t59 23.5t53.5 -23.5t16.5 -56.5t-30 -56.5t-59 -23.5zM389 0h-400l242 344h-184l15 120h400l-242 -344h184z" />
    <glyph glyph-name="Zcaron" unicode="&#x17d;" horiz-adv-x="528" 
d="M391 928h80l-156 -160l-116 160h80l47 -72zM437 0h-448l343 584h-256l15 120h448l-343 -584h256z" />
    <glyph glyph-name="zcaron" unicode="&#x17e;" horiz-adv-x="480" 
d="M337 688h80l-155 -160l-117 160h80l47 -72zM389 0h-400l242 344h-184l15 120h400l-242 -344h184z" />
    <glyph glyph-name="Aringacute" unicode="&#x1fa;" horiz-adv-x="640" 
d="M531 1024l-116 -160h-80l84 160h112zM459 0l-29 96h-283l-52 -96h-138l342 603q-29 15 -44 44t-11 65q6 50 45.5 85t89.5 35t80.5 -35t24.5 -85q-4 -36 -26.5 -65.5t-55.5 -43.5l195 -603h-138zM308 712q-2 -23 12.5 -39.5t36.5 -16.5q23 0 42 17t21 39q3 22 -11.5 39
t-37.5 17q-22 0 -41 -16.5t-22 -39.5zM208 208h189l-67 224z" />
    <glyph glyph-name="aringacute" unicode="&#x1fb;" horiz-adv-x="592" 
d="M299 768l84 160h112l-116 -160h-80zM359 736q50 0 81 -35t24 -85q-6 -50 -45 -85t-89 -35t-81 35t-25 85q7 50 46 85t89 35zM338 560q23 0 41.5 17t20.5 39q3 22 -11.5 39t-37.5 17q-22 0 -41 -16.5t-22 -39.5q-2 -23 13 -39.5t37 -16.5zM414 464h128l-57 -464h-128l6 50
q-61 -58 -145 -58q-98 0 -156 68.5t-45 171.5t87.5 171.5t172.5 68.5q83 0 131 -56zM251 112q49 0 88.5 35t45.5 85t-25 85t-80 35q-50 0 -89.5 -35.5t-45.5 -84.5t25 -84.5t81 -35.5z" />
    <glyph glyph-name="AEacute" unicode="&#x1fc;" horiz-adv-x="784" 
d="M631 928l-116 -160h-80l84 160h112zM764 584h-240l-26 -212h176l-14 -120h-176l-16 -132h240l-15 -120h-368l12 96h-183l-59 -96h-138l454 704h368zM224 208h126l32 255z" />
    <glyph glyph-name="aeacute" unicode="&#x1fd;" horiz-adv-x="912" 
d="M617 688l-115 -160h-80l83 160h112zM654 112q68 0 118 48l57 -94q-85 -74 -192 -74q-99 0 -146 60l-6 -52h-128l6 50q-61 -58 -145 -58q-98 0 -156 68.5t-45 171.5t87.5 171.5t172.5 68.5q83 0 131 -56l6 48h128l-6 -51q59 59 160 59q27 0 55 -8.5t57 -27t51.5 -55
t29.5 -85.5l-299 -169q24 -15 64 -15zM385 232q6 50 -25 85t-80 35q-50 0 -89.5 -35.5t-45.5 -84.5t25 -84.5t81 -35.5q49 0 88.5 35t45.5 85zM545 232q-1 -9 0 -18l199 110q-21 28 -61 28q-53 0 -92.5 -35t-45.5 -85z" />
    <glyph glyph-name="Scommaaccent" unicode="&#x218;" 
d="M292 451q36 -15 56 -25t49.5 -26.5t45.5 -34t31 -41.5t19.5 -54.5t0.5 -67.5q-11 -87 -84.5 -148.5t-177.5 -61.5q-87 0 -149 46t-79 82l85 90q31 -48 73 -73t85 -25q47 0 80.5 26t37.5 58q9 81 -82 117q-108 43 -153 93t-36 129q10 76 76.5 126.5t155.5 50.5
q107 0 182 -78l-82 -94q-50 52 -117 52q-31 0 -57 -15.5t-30 -41.5q-4 -30 14 -49t56 -35zM155 -208l18 144h112l-50 -144h-80z" />
    <glyph glyph-name="scommaaccent" unicode="&#x219;" horiz-adv-x="448" 
d="M235 295q84 -21 123.5 -55t31.5 -97q-8 -65 -63.5 -108t-152.5 -43q-112 0 -177 74l77 95q46 -43 107 -51q35 -4 56.5 3.5t23.5 21.5q2 12 -11 18t-50 16q-3 1 -4 1t-3 1t-4 1.5t-4 0.5q-155 40 -140 155q8 61 62.5 102.5t142.5 41.5q9 0 23.5 -1.5t52.5 -14t68 -34.5
l-72 -99q-38 27 -84 31q-61 4 -65 -24q-1 -12 12.5 -19t49.5 -16zM99 -208l18 144h112l-50 -144h-80z" />
    <glyph glyph-name="uni021A" unicode="&#x21a;" horiz-adv-x="480" 
d="M75 704h416l-15 -120h-144l-71 -584h-128l71 584h-144zM115 -208l18 144h112l-50 -144h-80z" />
    <glyph glyph-name="uni021B" unicode="&#x21b;" horiz-adv-x="400" 
d="M69 0l42 344h-80l15 120h80l18 152l133 40l-23 -192h128l-15 -120h-128l-42 -344h-128zM67 -208l18 144h112l-50 -144h-80z" />
    <glyph glyph-name="Alphatonos" unicode="&#x386;" horiz-adv-x="640" 
d="M459 0l-29 96h-283l-52 -96h-138l408 720l232 -720h-138zM187 704l-49 -144h-80l17 144h112zM208 208h189l-67 224z" />
    <glyph glyph-name="Epsilontonos" unicode="&#x388;" horiz-adv-x="624" 
d="M58 560l17 144h112l-49 -144h-80zM604 584h-240l-26 -212h176l-14 -120h-176l-16 -132h240l-15 -120h-368l86 704h368z" />
    <glyph glyph-name="Etatonos" unicode="&#x389;" horiz-adv-x="736" 
d="M58 560l17 144h112l-49 -144h-80zM587 704h128l-86 -704h-128l31 252h-208l-31 -252h-128l86 704h128l-41 -332h208z" />
    <glyph glyph-name="Iotatonos" unicode="&#x38a;" horiz-adv-x="400" 
d="M58 560l17 144h112l-49 -144h-80zM293 0h-128l86 704h128z" />
    <glyph glyph-name="Omicrontonos" unicode="&#x38c;" horiz-adv-x="864" 
d="M516 712q149 0 241.5 -105.5t74.5 -254.5t-136.5 -254.5t-267.5 -105.5t-241.5 105.5t-74.5 254.5t136.5 254.5t267.5 105.5zM58 560l17 144h112l-49 -144h-80zM443 112q96 0 172.5 70t88.5 170t-47.5 170t-155.5 70t-172.5 -70t-88.5 -170t47.5 -170t155.5 -70z" />
    <glyph glyph-name="Upsilontonos" unicode="&#x38e;" horiz-adv-x="752" 
d="M58 560l17 144h112l-49 -144h-80zM651 704h144l-275 -420l-35 -284h-128l35 284l-173 420h144l110 -280z" />
    <glyph glyph-name="Omegatonos" unicode="&#x38f;" horiz-adv-x="832" 
d="M791 408q-18 -140 -156 -288h121l-15 -120h-280l12 96q94 95 137 164.5t52 139.5q11 88 -38 140t-131 52t-143 -52t-72 -140q-9 -70 17 -139.5t98 -164.5l-12 -96h-280l15 120h121q-104 148 -86 288q15 123 113.5 213.5t243.5 90.5t221.5 -90.5t61.5 -213.5zM58 560
l17 144h112l-49 -144h-80z" />
    <glyph glyph-name="iotadieresistonos" unicode="&#x390;" horiz-adv-x="256" 
d="M102 528l17 144h112l-49 -144h-80zM6 528q-27 0 -43.5 18.5t-13.5 45.5q4 27 24.5 45.5t47.5 18.5t43.5 -18.5t12.5 -45.5q-3 -27 -23.5 -45.5t-47.5 -18.5zM294 528q-27 0 -43.5 18.5t-13.5 45.5q4 27 24.5 45.5t47.5 18.5t43.5 -18.5t12.5 -45.5q-3 -27 -23.5 -45.5
t-47.5 -18.5zM21 0l57 464h128l-57 -464h-128z" />
    <glyph glyph-name="Alpha" unicode="&#x391;" horiz-adv-x="640" 
d="M459 0l-29 96h-283l-52 -96h-138l408 720l232 -720h-138zM208 208h189l-67 224z" />
    <glyph glyph-name="Beta" unicode="&#x392;" 
d="M377 369q55 -18 81.5 -63.5t19.5 -103.5q-12 -90 -77 -146t-170 -56h-210l86 704h152q117 0 176.5 -49.5t48.5 -142.5q-6 -47 -37 -86.5t-70 -56.5zM220 584l-20 -168h29q54 0 84 25t35 64q5 38 -19.5 58.5t-79.5 20.5h-29zM219 120q60 0 93 25t39 67q5 40 -24 66t-86 26
h-55l-22 -184h55z" />
    <glyph glyph-name="Gamma" unicode="&#x393;" horiz-adv-x="464" 
d="M21 0l86 704h368l-15 -120h-240l-71 -584h-128z" />
    <glyph glyph-name="uni0394" unicode="&#x394;" horiz-adv-x="640" 
d="M365 720l232 -720h-640zM160 120h263l-93 312z" />
    <glyph glyph-name="Epsilon" unicode="&#x395;" horiz-adv-x="480" 
d="M460 584h-240l-26 -212h176l-14 -120h-176l-16 -132h240l-15 -120h-368l86 704h368z" />
    <glyph glyph-name="Zeta" unicode="&#x396;" horiz-adv-x="528" 
d="M437 0h-448l343 584h-256l15 120h448l-343 -584h256z" />
    <glyph glyph-name="Eta" unicode="&#x397;" horiz-adv-x="592" 
d="M443 704h128l-86 -704h-128l31 252h-208l-31 -252h-128l86 704h128l-41 -332h208z" />
    <glyph glyph-name="Theta" unicode="&#x398;" horiz-adv-x="784" 
d="M436 712q149 0 241.5 -105.5t74.5 -254.5t-136.5 -254.5t-267.5 -105.5t-241.5 105.5t-74.5 254.5t136.5 254.5t267.5 105.5zM363 112q96 0 172.5 70t88.5 170t-47.5 170t-155.5 70t-172.5 -70t-88.5 -170t47.5 -170t155.5 -70zM235 312l10 80h304l-10 -80h-304z" />
    <glyph glyph-name="Iota" unicode="&#x399;" horiz-adv-x="256" 
d="M149 0h-128l86 704h128z" />
    <glyph glyph-name="Kappa" unicode="&#x39a;" horiz-adv-x="560" 
d="M571 704l-254 -314l184 -390h-160l-119 274l-47 -58l-26 -216h-128l86 704h128l-34 -280l218 280h152z" />
    <glyph glyph-name="Lambda" unicode="&#x39b;" horiz-adv-x="640" 
d="M459 0l-129 432l-235 -432h-138l408 720l232 -720h-138z" />
    <glyph glyph-name="Mu" unicode="&#x39c;" horiz-adv-x="752" 
d="M733 720l-88 -720h-128l47 384l-211 -216l-157 216l-47 -384h-128l88 720l266 -376z" />
    <glyph glyph-name="Nu" unicode="&#x39d;" horiz-adv-x="624" 
d="M475 704h128l-88 -720l-318 408l-48 -392h-128l88 720l318 -408z" />
    <glyph glyph-name="Xi" unicode="&#x39e;" horiz-adv-x="496" 
d="M76 584l15 120h400l-15 -120h-400zM84 252l14 120h304l-14 -120h-304zM5 0l15 120h400l-15 -120h-400z" />
    <glyph glyph-name="Omicron" unicode="&#x39f;" horiz-adv-x="784" 
d="M436 712q149 0 241.5 -105.5t74.5 -254.5t-136.5 -254.5t-267.5 -105.5t-241.5 105.5t-74.5 254.5t136.5 254.5t267.5 105.5zM363 112q96 0 172.5 70t88.5 170t-47.5 170t-155.5 70t-172.5 -70t-88.5 -170t47.5 -170t155.5 -70z" />
    <glyph glyph-name="Pi" unicode="&#x3a0;" horiz-adv-x="592" 
d="M571 704l-86 -704h-128l71 584h-208l-71 -584h-128l86 704h464z" />
    <glyph glyph-name="Rho" unicode="&#x3a1;" horiz-adv-x="512" 
d="M249 704q135 0 196 -69.5t48 -174.5q-12 -101 -92.5 -172.5t-195.5 -71.5h-30l-26 -216h-128l86 704h142zM227 336q52 0 92 36t46 88q7 57 -24 90.5t-84 33.5h-37l-30 -248h37z" />
    <glyph glyph-name="Sigma" unicode="&#x3a3;" horiz-adv-x="528" 
d="M278 584l116 -232l-172 -232h214l-15 -120h-432l261 352l-175 352h432l-15 -120h-214z" />
    <glyph glyph-name="Tau" unicode="&#x3a4;" horiz-adv-x="480" 
d="M75 704h416l-15 -120h-144l-71 -584h-128l71 584h-144z" />
    <glyph glyph-name="Upsilon" unicode="&#x3a5;" horiz-adv-x="576" 
d="M475 704h144l-275 -420l-35 -284h-128l35 284l-173 420h144l110 -280z" />
    <glyph glyph-name="Phi" unicode="&#x3a6;" horiz-adv-x="768" 
d="M738 368q-16 -129 -114 -213.5t-211 -90.5l-8 -64h-128l8 64q-52 3 -100.5 26t-85 61t-55 95t-10.5 122q11 88 64 158t122 106t139 40l8 64h128l-8 -64q110 -7 188.5 -90.5t62.5 -213.5zM299 184l46 368q-58 -4 -115.5 -53t-67.5 -131q-10 -83 35 -131.5t102 -52.5z
M427 184q36 3 73.5 22.5t70 62t39.5 99.5q10 82 -35 131t-102 53z" />
    <glyph glyph-name="Chi" unicode="&#x3a7;" horiz-adv-x="608" 
d="M549 0h-154l-104 245l-164 -245h-154l250 362l-148 342h147l97 -226l153 226h147l-232 -342z" />
    <glyph glyph-name="Psi" unicode="&#x3a8;" horiz-adv-x="768" 
d="M619 704h128l-31 -256q-16 -134 -100.5 -209.5t-191.5 -82.5l-19 -156h-128l19 156q-106 7 -171 82.5t-49 209.5l31 256h128l-31 -256q-10 -82 25 -125t82 -47l52 428h128l-52 -428q47 4 93 47t56 125z" />
    <glyph glyph-name="uni03A9" unicode="&#x3a9;" horiz-adv-x="736" 
d="M695 408q-18 -140 -156 -288h121l-15 -120h-280l12 96q94 95 137 164.5t52 139.5q11 88 -38 140t-131 52t-143 -52t-72 -140q-9 -70 17 -139.5t98 -164.5l-12 -96h-280l15 120h121q-104 148 -86 288q15 123 113.5 213.5t243.5 90.5t221.5 -90.5t61.5 -213.5z" />
    <glyph glyph-name="Iotadieresis" unicode="&#x3aa;" horiz-adv-x="256" 
d="M83 768q-27 0 -43 18.5t-13 45.5t24 45.5t48 18.5t43 -18.5t13 -45.5t-24 -45.5t-48 -18.5zM275 768q-27 0 -43 18.5t-13 45.5t24 45.5t48 18.5t43 -18.5t13 -45.5t-24 -45.5t-48 -18.5zM149 0h-128l86 704h128z" />
    <glyph glyph-name="Upsilondieresis" unicode="&#x3ab;" horiz-adv-x="576" 
d="M243 768q-27 0 -43 18.5t-13 45.5t24 45.5t48 18.5t43 -18.5t13 -45.5t-24 -45.5t-48 -18.5zM435 768q-27 0 -43 18.5t-13 45.5t24 45.5t48 18.5t43 -18.5t13 -45.5t-24 -45.5t-48 -18.5zM475 704h144l-275 -420l-35 -284h-128l35 284l-173 420h144l110 -280z" />
    <glyph glyph-name="alphatonos" unicode="&#x3ac;" horiz-adv-x="592" 
d="M286 528l17 144h112l-49 -144h-80zM414 464h128l-57 -464h-128l6 50q-61 -58 -145 -58q-98 0 -156 68.5t-45 171.5t87.5 171.5t172.5 68.5q83 0 131 -56zM251 112q49 0 88.5 35t45.5 85t-25 85t-80 35q-50 0 -89.5 -35.5t-45.5 -84.5t25 -84.5t81 -35.5z" />
    <glyph glyph-name="epsilontonos" unicode="&#x3ad;" horiz-adv-x="448" 
d="M214 528l17 144h112l-49 -144h-80zM226 104q55 0 120 40l33 -91q-91 -61 -184 -61q-78 0 -129.5 39.5t-43.5 110.5q4 32 29.5 60t59.5 38q-27 10 -44 36.5t-13 61.5q8 68 67 101t136 33q97 0 162 -62l-54 -86q-56 36 -114 36q-26 0 -47 -9.5t-24 -27.5q-2 -21 30.5 -34
t84.5 -13l-10 -80q-55 0 -93 -12t-41 -36q-3 -22 20 -33t55 -11z" />
    <glyph glyph-name="etatonos" unicode="&#x3ae;" 
d="M246 528l17 144h112l-49 -144h-80zM327 472q81 0 126 -54.5t31 -161.5l-63 -512h-128l63 512q12 96 -76 96q-33 0 -64 -28t-38 -84l-29 -240h-128l57 464h128l-6 -48q52 56 127 56z" />
    <glyph glyph-name="iotatonos" unicode="&#x3af;" horiz-adv-x="288" 
d="M102 528l17 144h112l-49 -144h-80zM21 0l57 464h128l-57 -464h-128z" />
    <glyph glyph-name="upsilondieresistonos" unicode="&#x3b0;" horiz-adv-x="528" 
d="M238 528l17 144h112l-49 -144h-80zM142 528q-27 0 -43.5 18.5t-13.5 45.5q4 27 24.5 45.5t47.5 18.5t43.5 -18.5t12.5 -45.5q-3 -27 -23.5 -45.5t-47.5 -18.5zM430 528q-27 0 -43.5 18.5t-13.5 45.5q4 27 24.5 45.5t47.5 18.5t43.5 -18.5t12.5 -45.5q-3 -27 -23.5 -45.5
t-47.5 -18.5zM366 464h128l-29 -232q-14 -114 -77.5 -177t-167.5 -63t-152.5 63t-34.5 177l29 232h128l-30 -242q-6 -51 15.5 -80.5t59.5 -29.5t66 29.5t35 80.5z" />
    <glyph glyph-name="alpha" unicode="&#x3b1;" horiz-adv-x="592" 
d="M414 464h128l-57 -464h-128l6 50q-61 -58 -145 -58q-98 0 -156 68.5t-45 171.5t87.5 171.5t172.5 68.5q83 0 131 -56zM251 112q49 0 88.5 35t45.5 85t-25 85t-80 35q-50 0 -89.5 -35.5t-45.5 -84.5t25 -84.5t81 -35.5z" />
    <glyph glyph-name="beta" unicode="&#x3b2;" 
d="M381 392q51 -13 86 -64.5t27 -122.5q-11 -90 -80 -151.5t-174 -61.5q-55 0 -105 28l1 6l-27 -218h-128l88 712q7 57 30 100t51 65.5t61 37t55 18t39 3.5q92 0 143 -55t41 -137q-8 -56 -40 -98t-68 -62zM367 212q7 56 -37.5 88t-123.5 32l10 88q49 0 93 33.5t50 82.5
q4 39 -15.5 63.5t-54.5 24.5t-60.5 -25t-30.5 -65l-49 -398q69 -40 139.5 -16t78.5 92z" />
    <glyph glyph-name="gamma" unicode="&#x3b3;" horiz-adv-x="512" 
d="M526 464l-245 -426l-36 -294h-128l36 294l-139 426h144l79 -264l145 264h144z" />
    <glyph glyph-name="delta" unicode="&#x3b4;" horiz-adv-x="560" 
d="M341 584q192 -187 172 -352q-12 -100 -92 -170t-185 -70q-109 0 -170 69.5t-49 170.5q12 99 85 167.5t181 72.5q-63 85 -208 232h448l-15 -120h-167zM251 112q51 0 89.5 35t44.5 85t-24 85t-81 35t-90 -35t-45 -85t24.5 -85t81.5 -35z" />
    <glyph glyph-name="epsilon" unicode="&#x3b5;" horiz-adv-x="448" 
d="M226 104q55 0 120 40l33 -91q-91 -61 -184 -61q-78 0 -129.5 39.5t-43.5 110.5q4 32 29.5 60t59.5 38q-27 10 -44 36.5t-13 61.5q8 68 67 101t136 33q97 0 162 -62l-54 -86q-56 36 -114 36q-26 0 -47 -9.5t-24 -27.5q-2 -21 30.5 -34t84.5 -13l-10 -80q-55 0 -93 -12
t-41 -36q-3 -22 20 -33t55 -11z" />
    <glyph glyph-name="zeta" unicode="&#x3b6;" horiz-adv-x="496" 
d="M263 112q85 0 124 -34.5t29 -117.5l-7 -56h-112l6 45q4 43 -39 43q-131 0 -189 54t-45 162q10 81 80 185t154 191h-172l15 120h416q-345 -344 -363 -484q-6 -50 21 -79t82 -29z" />
    <glyph glyph-name="eta" unicode="&#x3b7;" 
d="M327 472q81 0 126 -54.5t31 -161.5l-63 -512h-128l63 512q12 96 -76 96q-33 0 -64 -28t-38 -84l-29 -240h-128l57 464h128l-6 -48q52 56 127 56z" />
    <glyph glyph-name="theta" unicode="&#x3b8;" horiz-adv-x="560" 
d="M324 712q110 0 166.5 -102t37.5 -258t-100.5 -258t-191.5 -102q-112 0 -167.5 102t-36.5 258t100.5 258t191.5 102zM309 592q-47 0 -85.5 -52t-54.5 -140h234q6 88 -20.5 140t-73.5 52zM251 112q47 0 85.5 52t54.5 140h-234q-6 -88 20.5 -140t73.5 -52z" />
    <glyph glyph-name="iota" unicode="&#x3b9;" horiz-adv-x="256" 
d="M21 0l57 464h128l-57 -464h-128z" />
    <glyph glyph-name="kappa" unicode="&#x3ba;" horiz-adv-x="512" 
d="M510 464l-204 -202l163 -262h-156l-100 170l-49 -48l-15 -122h-128l57 464h128l-21 -166l173 166h152z" />
    <glyph glyph-name="lambda" unicode="&#x3bb;" horiz-adv-x="512" 
d="M453 0h-144l-71 288l-137 -288h-144l231 456l-65 248h144z" />
    <glyph glyph-name="uni03BC" unicode="&#x3bc;" horiz-adv-x="592" 
d="M414 464h128l-57 -464h-128l6 48q-37 -56 -111 -56q-39 0 -63.5 16.5t-33.5 39.5l-38 -304h-128l89 720h128l-30 -240q-7 -56 22 -84t69 -28t75 28t42 84z" />
    <glyph glyph-name="nu" unicode="&#x3bd;" horiz-adv-x="480" 
d="M14 464h144l70 -208l122 208h144l-299 -480z" />
    <glyph glyph-name="xi" unicode="&#x3be;" horiz-adv-x="512" 
d="M276 112q86 0 126 -34.5t30 -117.5l-7 -56h-112l6 45q2 18 -12.5 30.5t-45.5 12.5q-127 0 -184.5 61.5t-46.5 154.5q7 59 44.5 105t85.5 61q-37 18 -59 60t-16 88q10 85 77 137.5t154 52.5q124 0 197 -88l-70 -88q-31 30 -57 43t-65 13q-38 0 -71 -19t-38 -59
q-5 -43 38.5 -68.5t109.5 -25.5l-12 -104q-79 0 -131 -26.5t-58 -78.5q-7 -52 28.5 -75.5t88.5 -23.5z" />
    <glyph glyph-name="omicron" unicode="&#x3bf;" horiz-adv-x="560" 
d="M295 472q104 0 167.5 -70t50.5 -170q-12 -100 -92 -170t-185 -70q-109 0 -170 69.5t-49 170.5q13 103 89.5 171.5t188.5 68.5zM251 112q51 0 89.5 35t44.5 85t-24 85t-81 35t-90 -35t-45 -85t24.5 -85t81.5 -35z" />
    <glyph glyph-name="pi" unicode="&#x3c0;" horiz-adv-x="592" 
d="M559 344h-64l-42 -344h-128l42 344h-144l-42 -344h-128l42 344h-64l15 120h528z" />
    <glyph glyph-name="rho" unicode="&#x3c1;" horiz-adv-x="592" 
d="M327 472q104 0 167.5 -70t50.5 -170q-12 -100 -92 -170t-185 -70q-63 0 -116 33l-35 -281h-128l60 488q13 103 89.5 171.5t188.5 68.5zM283 112q51 0 89.5 35t44.5 85t-24 85t-81 35t-90 -35t-45 -85t24.5 -85t81.5 -35z" />
    <glyph glyph-name="uni03C2" unicode="&#x3c2;" horiz-adv-x="496" 
d="M254 112q84 0 120 -34t26 -118l-7 -56h-112l6 45q2 19 -7.5 31t-40.5 12q-117 0 -175.5 68t-46.5 172q13 103 89.5 171.5t189.5 68.5q98 0 158 -74l-80 -94q-35 48 -91 48q-52 0 -92 -35t-46 -85t25.5 -85t83.5 -35z" />
    <glyph glyph-name="sigma" unicode="&#x3c3;" horiz-adv-x="608" 
d="M590 464l-15 -120h-78q11 -19 15.5 -51.5t0.5 -60.5q-12 -100 -92 -170t-185 -70q-109 0 -170 69.5t-49 170.5q13 103 89.5 171.5t188.5 68.5q28 0 48 -2q54 -6 247 -6zM251 112q51 0 89.5 35t44.5 85t-24 85t-81 35t-90 -35t-45 -85t24.5 -85t81.5 -35z" />
    <glyph glyph-name="tau" unicode="&#x3c4;" horiz-adv-x="448" 
d="M46 464h384l-15 -120h-128l-42 -344h-128l42 344h-128z" />
    <glyph glyph-name="upsilon" unicode="&#x3c5;" horiz-adv-x="528" 
d="M366 464h128l-29 -232q-14 -114 -77.5 -177t-167.5 -63t-152.5 63t-34.5 177l29 232h128l-30 -242q-6 -51 15.5 -80.5t59.5 -29.5t66 29.5t35 80.5z" />
    <glyph glyph-name="phi" unicode="&#x3c6;" horiz-adv-x="704" 
d="M17 228q11 89 78.5 148t149.5 81l10 -111q-100 -34 -110 -118q-6 -48 28.5 -78.5t85.5 -37.5l43 355q30 5 65 5q130 0 217 -64.5t73 -179.5q-12 -100 -92.5 -162t-192.5 -74l-31 -248h-128l31 248q-117 12 -178 72.5t-49 163.5zM387 112q52 7 94 37.5t48 78.5
q6 49 -29 83.5t-84 40.5z" />
    <glyph glyph-name="chi" unicode="&#x3c7;" horiz-adv-x="512" 
d="M453 0h-148l-75 144l-109 -144h-148l190 244l-117 220h148l61 -122l91 122h148l-171 -220z" />
    <glyph glyph-name="psi" unicode="&#x3c8;" horiz-adv-x="704" 
d="M542 464h128l-24 -190q-16 -127 -86.5 -198.5t-187.5 -83.5l-31 -248h-128l31 248q-114 12 -168 83.5t-38 198.5l24 190h128l-25 -202q-16 -132 94 -150l43 352h128l-43 -352q114 18 130 150z" />
    <glyph glyph-name="omega" unicode="&#x3c9;" horiz-adv-x="768" 
d="M677 464q43 -106 29 -225q-15 -123 -78.5 -185t-151.5 -62q-93 0 -128 66q-52 -66 -144 -66q-88 0 -136.5 62t-33.5 185q14 114 85 225l108 -30q-54 -100 -66 -202q-6 -56 11.5 -88t46.5 -32q30 0 54 25t30 77l21 170h128l-21 -170q-6 -52 12 -77t48 -25q29 0 54.5 32
t31.5 88q12 101 -16 202z" />
    <glyph glyph-name="iotadieresis" unicode="&#x3ca;" horiz-adv-x="256" 
d="M54 528q-27 0 -43.5 18.5t-13.5 45.5q4 27 24.5 45.5t47.5 18.5t43.5 -18.5t12.5 -45.5q-3 -27 -23.5 -45.5t-47.5 -18.5zM246 528q-27 0 -43.5 18.5t-13.5 45.5q4 27 24.5 45.5t47.5 18.5t43.5 -18.5t12.5 -45.5q-3 -27 -23.5 -45.5t-47.5 -18.5zM21 0l57 464h128
l-57 -464h-128z" />
    <glyph glyph-name="upsilondieresis" unicode="&#x3cb;" horiz-adv-x="528" 
d="M190 528q-27 0 -43.5 18.5t-13.5 45.5q4 27 24.5 45.5t47.5 18.5t43.5 -18.5t12.5 -45.5q-3 -27 -23.5 -45.5t-47.5 -18.5zM382 528q-27 0 -43.5 18.5t-13.5 45.5q4 27 24.5 45.5t47.5 18.5t43.5 -18.5t12.5 -45.5q-3 -27 -23.5 -45.5t-47.5 -18.5zM366 464h128l-29 -232
q-14 -114 -77.5 -177t-167.5 -63t-152.5 63t-34.5 177l29 232h128l-30 -242q-6 -51 15.5 -80.5t59.5 -29.5t66 29.5t35 80.5z" />
    <glyph glyph-name="omicrontonos" unicode="&#x3cc;" horiz-adv-x="560" 
d="M254 528l17 144h112l-49 -144h-80zM295 472q104 0 167.5 -70t50.5 -170q-12 -100 -92 -170t-185 -70q-109 0 -170 69.5t-49 170.5q13 103 89.5 171.5t188.5 68.5zM251 112q51 0 89.5 35t44.5 85t-24 85t-81 35t-90 -35t-45 -85t24.5 -85t81.5 -35z" />
    <glyph glyph-name="upsilontonos" unicode="&#x3cd;" horiz-adv-x="528" 
d="M238 528l17 144h112l-49 -144h-80zM366 464h128l-29 -232q-14 -114 -77.5 -177t-167.5 -63t-152.5 63t-34.5 177l29 232h128l-30 -242q-6 -51 15.5 -80.5t59.5 -29.5t66 29.5t35 80.5z" />
    <glyph glyph-name="omegatonos" unicode="&#x3ce;" horiz-adv-x="768" 
d="M358 528l17 144h112l-49 -144h-80zM677 464q43 -106 29 -225q-15 -123 -78.5 -185t-151.5 -62q-93 0 -128 66q-52 -66 -144 -66q-88 0 -136.5 62t-33.5 185q14 114 85 225l108 -30q-54 -100 -66 -202q-6 -56 11.5 -88t46.5 -32q30 0 54 25t30 77l21 170h128l-21 -170
q-6 -52 12 -77t48 -25q29 0 54.5 32t31.5 88q12 101 -16 202z" />
    <glyph glyph-name="uni0401" unicode="&#x401;" horiz-adv-x="480" 
d="M195 768q-27 0 -43 18.5t-13 45.5t24 45.5t48 18.5t43 -18.5t13 -45.5t-24 -45.5t-48 -18.5zM387 768q-27 0 -43 18.5t-13 45.5t24 45.5t48 18.5t43 -18.5t13 -45.5t-24 -45.5t-48 -18.5zM460 584h-240l-26 -212h176l-14 -120h-176l-16 -132h240l-15 -120h-368l86 704
h368z" />
    <glyph glyph-name="uni0402" unicode="&#x402;" horiz-adv-x="656" 
d="M420 448q92 0 138.5 -62t31.5 -178l-25 -208q-9 -73 -34 -126.5t-59.5 -82t-71 -42t-76.5 -13.5l-13 120q47 1 81.5 34t42.5 94l28 232q15 112 -98 112q-43 0 -99 -24l-37 -304h-128l71 584h-112l15 120h352l-15 -120h-112l-20 -164q75 28 140 28z" />
    <glyph glyph-name="uni0403" unicode="&#x403;" horiz-adv-x="464" 
d="M219 768l84 160h112l-116 -160h-80zM21 0l86 704h368l-15 -120h-240l-71 -584h-128z" />
    <glyph glyph-name="uni0404" unicode="&#x404;" horiz-adv-x="640" 
d="M383 112q81 0 149 48l57 -96q-98 -72 -222 -72q-160 0 -256.5 105t-78.5 255t140.5 255t282.5 105q124 0 204 -72l-79 -96q-63 48 -139 48q-88 0 -163.5 -49t-104.5 -135h242l-14 -112h-242q8 -86 72 -135t152 -49z" />
    <glyph glyph-name="uni0405" unicode="&#x405;" 
d="M292 451q36 -15 56 -25t49.5 -26.5t45.5 -34t31 -41.5t19.5 -54.5t0.5 -67.5q-11 -87 -84.5 -148.5t-177.5 -61.5q-87 0 -149 46t-79 82l85 90q31 -48 73 -73t85 -25q47 0 80.5 26t37.5 58q9 81 -82 117q-108 43 -153 93t-36 129q10 76 76.5 126.5t155.5 50.5
q107 0 182 -78l-82 -94q-50 52 -117 52q-31 0 -57 -15.5t-30 -41.5q-4 -30 14 -49t56 -35z" />
    <glyph glyph-name="uni0406" unicode="&#x406;" horiz-adv-x="256" 
d="M149 0h-128l86 704h128z" />
    <glyph glyph-name="uni0407" unicode="&#x407;" horiz-adv-x="256" 
d="M83 768q-27 0 -43 18.5t-13 45.5t24 45.5t48 18.5t43 -18.5t13 -45.5t-24 -45.5t-48 -18.5zM275 768q-27 0 -43 18.5t-13 45.5t24 45.5t48 18.5t43 -18.5t13 -45.5t-24 -45.5t-48 -18.5zM149 0h-128l86 704h128z" />
    <glyph glyph-name="uni0408" unicode="&#x408;" horiz-adv-x="432" 
d="M299 704h128l-56 -456q-31 -256 -248 -256q-39 0 -75.5 13t-54.5 31l84 96q20 -20 56 -20q43 0 72 30.5t37 91.5z" />
    <glyph glyph-name="uni0409" unicode="&#x409;" horiz-adv-x="944" 
d="M662 372q122 0 181.5 -46t48.5 -140q-24 -186 -275 -186h-164l71 584h-136l-99 -372q-59 -220 -212 -220q-54 0 -101 32l57 112q44 -29 80 -8.5t54 88.5l132 488h368l-41 -332h36zM764 186q4 37 -20.5 51.5t-64.5 14.5h-67l-16 -132h67q92 0 101 66z" />
    <glyph glyph-name="uni040A" unicode="&#x40a;" horiz-adv-x="848" 
d="M566 372q122 0 181.5 -46t48.5 -140q-24 -186 -275 -186h-164l31 252h-208l-31 -252h-128l86 704h128l-41 -332h208l41 332h128l-41 -332h36zM668 186q4 37 -20.5 51.5t-64.5 14.5h-67l-16 -132h67q92 0 101 66z" />
    <glyph glyph-name="uni040B" unicode="&#x40b;" horiz-adv-x="656" 
d="M420 448q92 0 138.5 -62t31.5 -178l-25 -208h-128l26 216q15 112 -98 112q-43 0 -99 -24l-37 -304h-128l71 584h-112l15 120h352l-15 -120h-112l-20 -164q75 28 140 28z" />
    <glyph glyph-name="uni040C" unicode="&#x40c;" horiz-adv-x="560" 
d="M439 928l-116 -160h-80l84 160h112zM571 704l-254 -314l184 -390h-160l-119 274l-47 -58l-26 -216h-128l86 704h128l-34 -280l218 280h152z" />
    <glyph glyph-name="uni040E" unicode="&#x40e;" horiz-adv-x="576" 
d="M436 904h64q-7 -56 -51.5 -96t-101.5 -40t-91.5 39.5t-27.5 96.5h64q-4 -29 15 -50.5t48 -21.5t53 21.5t28 50.5zM475 704h144l-422 -704h-144l160 265l-154 439h144l105 -288z" />
    <glyph glyph-name="uni040F" unicode="&#x40f;" horiz-adv-x="592" 
d="M443 704h128l-86 -704h-168l-14 -112h-128l14 112h-168l86 704h128l-71 -584h208z" />
    <glyph glyph-name="uni0410" unicode="&#x410;" horiz-adv-x="640" 
d="M459 0l-29 96h-283l-52 -96h-138l408 720l232 -720h-138zM208 208h189l-67 224z" />
    <glyph glyph-name="uni0411" unicode="&#x411;" horiz-adv-x="512" 
d="M236 464q129 0 185 -65.5t44 -166.5q-12 -97 -86.5 -164.5t-183.5 -67.5h-174l86 704h336l-15 -120h-207l-15 -120h30zM337 232q7 52 -22.5 82t-82.5 30h-41l-27 -224h41q51 0 89 32t43 80z" />
    <glyph glyph-name="uni0412" unicode="&#x412;" 
d="M377 369q55 -18 81.5 -63.5t19.5 -103.5q-12 -90 -77 -146t-170 -56h-210l86 704h152q117 0 176.5 -49.5t48.5 -142.5q-6 -47 -37 -86.5t-70 -56.5zM220 584l-20 -168h29q54 0 84 25t35 64q5 38 -19.5 58.5t-79.5 20.5h-29zM219 120q60 0 93 25t39 67q5 40 -24 66t-86 26
h-55l-22 -184h55z" />
    <glyph glyph-name="uni0413" unicode="&#x413;" horiz-adv-x="464" 
d="M21 0l86 704h368l-15 -120h-240l-71 -584h-128z" />
    <glyph glyph-name="uni0414" unicode="&#x414;" horiz-adv-x="736" 
d="M580 120h96l-29 -232h-128l14 112h-416l-14 -112h-128l29 232h82l181 584h384zM217 120h235l56 464h-156z" />
    <glyph glyph-name="uni0415" unicode="&#x415;" horiz-adv-x="480" 
d="M460 584h-240l-26 -212h176l-14 -120h-176l-16 -132h240l-15 -120h-368l86 704h368z" />
    <glyph glyph-name="uni0416" unicode="&#x416;" horiz-adv-x="864" 
d="M805 0h-160l-119 274l-47 -58l-26 -216h-128l26 216l-33 58l-185 -274h-160l280 390l-178 314h152l150 -280l34 280h128l-34 -280l218 280h152l-254 -314z" />
    <glyph glyph-name="uni0417" unicode="&#x417;" horiz-adv-x="512" 
d="M172 316l12 104q66 0 116.5 25.5t55.5 68.5q5 39 -24 58.5t-67 19.5q-39 0 -69 -13t-67 -43l-48 88q96 88 219 88q87 0 141 -52.5t44 -137.5q-6 -46 -38 -88.5t-73 -59.5q44 -15 69.5 -61t18.5 -105q-11 -91 -82.5 -153.5t-182.5 -62.5q-127 0 -198 92l75 90
q51 -62 133 -62q41 0 81 24t47 75q6 52 -39 78.5t-124 26.5z" />
    <glyph glyph-name="uni0418" unicode="&#x418;" horiz-adv-x="624" 
d="M235 704l-54 -442l318 442h104l-86 -704h-128l54 442l-318 -442h-104l86 704h128z" />
    <glyph glyph-name="uni0419" unicode="&#x419;" horiz-adv-x="624" 
d="M452 904h64q-7 -56 -51.5 -96t-101.5 -40t-91.5 39.5t-27.5 96.5h64q-4 -29 15 -50.5t48 -21.5t53 21.5t28 50.5zM235 704l-54 -442l318 442h104l-86 -704h-128l54 442l-318 -442h-104l86 704h128z" />
    <glyph glyph-name="uni041A" unicode="&#x41a;" horiz-adv-x="560" 
d="M571 704l-254 -314l184 -390h-160l-119 274l-47 -58l-26 -216h-128l86 704h128l-34 -280l218 280h152z" />
    <glyph glyph-name="uni041B" unicode="&#x41b;" horiz-adv-x="688" 
d="M667 704l-86 -704h-128l71 584h-136l-99 -372q-59 -220 -212 -220q-54 0 -101 32l57 112q44 -29 80 -8.5t54 88.5l132 488h368z" />
    <glyph glyph-name="uni041C" unicode="&#x41c;" horiz-adv-x="752" 
d="M733 720l-88 -720h-128l47 384l-211 -216l-157 216l-47 -384h-128l88 720l266 -376z" />
    <glyph glyph-name="uni041D" unicode="&#x41d;" horiz-adv-x="592" 
d="M443 704h128l-86 -704h-128l31 252h-208l-31 -252h-128l86 704h128l-41 -332h208z" />
    <glyph glyph-name="uni041E" unicode="&#x41e;" horiz-adv-x="784" 
d="M436 712q149 0 241.5 -105.5t74.5 -254.5t-136.5 -254.5t-267.5 -105.5t-241.5 105.5t-74.5 254.5t136.5 254.5t267.5 105.5zM363 112q96 0 172.5 70t88.5 170t-47.5 170t-155.5 70t-172.5 -70t-88.5 -170t47.5 -170t155.5 -70z" />
    <glyph glyph-name="uni041F" unicode="&#x41f;" horiz-adv-x="592" 
d="M571 704l-86 -704h-128l71 584h-208l-71 -584h-128l86 704h464z" />
    <glyph glyph-name="uni0420" unicode="&#x420;" horiz-adv-x="512" 
d="M249 704q135 0 196 -69.5t48 -174.5q-12 -101 -92.5 -172.5t-195.5 -71.5h-30l-26 -216h-128l86 704h142zM227 336q52 0 92 36t46 88q7 57 -24 90.5t-84 33.5h-37l-30 -248h37z" />
    <glyph glyph-name="uni0421" unicode="&#x421;" horiz-adv-x="640" 
d="M383 112q81 0 149 48l57 -96q-98 -72 -222 -72q-160 0 -256.5 105t-78.5 255t140.5 255t282.5 105q124 0 204 -72l-79 -96q-63 48 -139 48q-103 0 -185 -65t-96 -175t53 -175t170 -65z" />
    <glyph glyph-name="uni0422" unicode="&#x422;" horiz-adv-x="480" 
d="M75 704h416l-15 -120h-144l-71 -584h-128l71 584h-144z" />
    <glyph glyph-name="uni0423" unicode="&#x423;" horiz-adv-x="576" 
d="M475 704h144l-422 -704h-144l160 265l-154 439h144l105 -288z" />
    <glyph glyph-name="uni0424" unicode="&#x424;" horiz-adv-x="768" 
d="M738 368q-16 -129 -114 -213.5t-211 -90.5l-8 -64h-128l8 64q-52 3 -100.5 26t-85 61t-55 95t-10.5 122q11 88 64 158t122 106t139 40l8 64h128l-8 -64q110 -7 188.5 -90.5t62.5 -213.5zM299 184l46 368q-58 -4 -115.5 -53t-67.5 -131q-10 -83 35 -131.5t102 -52.5z
M427 184q36 3 73.5 22.5t70 62t39.5 99.5q10 82 -35 131t-102 53z" />
    <glyph glyph-name="uni0425" unicode="&#x425;" horiz-adv-x="608" 
d="M549 0h-154l-104 245l-164 -245h-154l250 362l-148 342h147l97 -226l153 226h147l-232 -342z" />
    <glyph glyph-name="uni0426" unicode="&#x426;" horiz-adv-x="672" 
d="M500 120h96l-29 -232h-128l14 112h-432l86 704h128l-71 -584h208l71 584h128z" />
    <glyph glyph-name="uni0427" unicode="&#x427;" horiz-adv-x="576" 
d="M232 224q-92 0 -138.5 62t-31.5 178l29 240h128l-30 -248q-15 -112 98 -112q43 0 99 24l41 336h128l-86 -704h-128l31 252q-73 -28 -140 -28z" />
    <glyph glyph-name="uni0428" unicode="&#x428;" horiz-adv-x="848" 
d="M699 704h128l-86 -704h-720l86 704h128l-71 -584h168l71 584h128l-71 -584h168z" />
    <glyph glyph-name="uni0429" unicode="&#x429;" horiz-adv-x="928" 
d="M756 120h96l-29 -232h-128l14 112h-688l86 704h128l-71 -584h168l71 584h128l-71 -584h168l71 584h128z" />
    <glyph glyph-name="uni042A" unicode="&#x42a;" horiz-adv-x="576" 
d="M300 464q129 0 185 -65.5t44 -166.5q-12 -97 -86.5 -164.5t-183.5 -67.5h-174l71 584h-96l15 120h224l-29 -240h30zM401 232q7 52 -22.5 82t-82.5 30h-41l-27 -224h41q51 0 89 32t43 80z" />
    <glyph glyph-name="uni042B" unicode="&#x42b;" horiz-adv-x="768" 
d="M236 464q129 0 185 -65.5t44 -166.5q-12 -97 -86.5 -164.5t-183.5 -67.5h-174l86 704h128l-29 -240h30zM661 0h-128l86 704h128zM205 120q51 0 89 32t43 80q7 52 -22.5 82t-82.5 30h-41l-27 -224h41z" />
    <glyph glyph-name="uni042C" unicode="&#x42c;" horiz-adv-x="512" 
d="M236 464q129 0 185 -65.5t44 -166.5q-12 -97 -86.5 -164.5t-183.5 -67.5h-174l86 704h128l-29 -240h30zM205 120q51 0 89 32t43 80q7 52 -22.5 82t-82.5 30h-41l-27 -224h41z" />
    <glyph glyph-name="uni042D" unicode="&#x42d;" horiz-adv-x="656" 
d="M289 712q160 0 256.5 -105t78.5 -255t-140.5 -255t-282.5 -105q-124 0 -204 72l79 96q59 -48 139 -48q88 0 163.5 49t104.5 135h-242l14 112h242q-8 86 -72 135t-152 49q-76 0 -149 -48l-57 96q98 72 222 72z" />
    <glyph glyph-name="uni042E" unicode="&#x42e;" horiz-adv-x="1040" 
d="M692 712q149 0 241.5 -105.5t74.5 -254.5t-136.5 -254.5t-267.5 -105.5q-133 0 -222.5 85.5t-95.5 214.5h-101l-36 -292h-128l86 704h128l-36 -292h101q37 129 148 214.5t244 85.5zM880 352q12 100 -47.5 170t-155.5 70t-172.5 -70t-88.5 -170t47.5 -170t155.5 -70
t172.5 70t88.5 170z" />
    <glyph glyph-name="uni042F" unicode="&#x42f;" horiz-adv-x="528" 
d="M365 704h142l-86 -704h-128l26 216h-30q-16 0 -23 1l-133 -217h-144l166 251q-52 33 -77 88.5t-17 120.5q13 105 91 174.5t213 69.5zM334 336l30 248h-37q-53 0 -92 -33.5t-46 -90.5q-6 -53 25 -88.5t83 -35.5h37z" />
    <glyph glyph-name="uni0430" unicode="&#x430;" horiz-adv-x="592" 
d="M414 464h128l-57 -464h-128l6 50q-61 -58 -145 -58q-98 0 -156 68.5t-45 171.5t87.5 171.5t172.5 68.5q83 0 131 -56zM251 112q49 0 88.5 35t45.5 85t-25 85t-80 35q-50 0 -89.5 -35.5t-45.5 -84.5t25 -84.5t81 -35.5z" />
    <glyph glyph-name="uni0431" unicode="&#x431;" horiz-adv-x="560" 
d="M295 472q109 0 170 -69.5t48 -170.5q-12 -100 -92 -170t-185 -70q-109 0 -170 69.5t-49 170.5q12 97 64 172t151 160q56 47 78 72.5t45 67.5h136q-20 -87 -143 -168q-56 -41 -79 -66q18 2 26 2zM385 232q6 50 -24 85t-81 35t-90 -35t-45 -85t24.5 -85t81.5 -35t89.5 35
t44.5 85z" />
    <glyph glyph-name="uni0432" unicode="&#x432;" horiz-adv-x="512" 
d="M372 253q32 -9 51.5 -38.5t15.5 -66.5q-10 -82 -69 -115t-177 -33h-172l57 464h156q116 0 168.5 -29t44.5 -95q-4 -31 -25.5 -54t-49.5 -33zM193 360l-9 -72h72q57 0 61 36q1 15 -8 23.5t-20 10.5t-24 2h-72zM250 112q22 0 40.5 11t21.5 33t-13 33t-39 11h-87l-10 -88h87
z" />
    <glyph glyph-name="uni0433" unicode="&#x433;" horiz-adv-x="400" 
d="M191 344l-42 -344h-128l57 464h304l-15 -120h-176z" />
    <glyph glyph-name="uni0434" unicode="&#x434;" horiz-adv-x="624" 
d="M484 120h80l-29 -232h-128l14 112h-304l-14 -112h-128l29 232h68l118 344h336zM201 120h155l27 224h-112z" />
    <glyph glyph-name="uni0435" unicode="&#x435;" horiz-adv-x="512" 
d="M254 112q68 0 118 48l57 -94q-85 -74 -192 -74q-112 0 -172 69.5t-48 170.5q13 103 89.5 171.5t189.5 68.5q27 0 55 -8.5t57 -27t51.5 -55t29.5 -85.5l-299 -169q24 -15 64 -15zM145 232q-1 -9 0 -18l199 110q-21 28 -61 28q-53 0 -92.5 -35t-45.5 -85z" />
    <glyph glyph-name="uni0436" unicode="&#x436;" horiz-adv-x="800" 
d="M741 0h-156l-100 170l-49 -48l-15 -122h-128l15 122l-37 48l-142 -170h-156l227 263l-154 201h152l131 -166l21 166h128l-21 -166l173 166h152l-204 -201z" />
    <glyph glyph-name="uni0437" unicode="&#x437;" horiz-adv-x="448" 
d="M162 104q32 0 57 11t28 33q3 24 -32 36t-90 12l10 80q52 0 87.5 13t37.5 34q3 18 -16 27.5t-45 9.5q-58 0 -122 -36l-34 86q80 62 178 62q77 0 127 -33t42 -101q-4 -35 -27.5 -61.5t-53.5 -36.5q32 -10 50.5 -38t14.5 -60q-8 -71 -69.5 -110.5t-139.5 -39.5
q-92 0 -170 61l55 91q57 -40 112 -40z" />
    <glyph glyph-name="uni0438" unicode="&#x438;" horiz-adv-x="576" 
d="M206 464l-32 -262l248 262h104l-57 -464h-128l32 262l-248 -262h-104l57 464h128z" />
    <glyph glyph-name="uni0439" unicode="&#x439;" horiz-adv-x="576" 
d="M398 664h64q-7 -56 -51 -96t-101 -40t-92 39.5t-28 96.5h64q-3 -29 15.5 -50.5t47.5 -21.5t53.5 21.5t27.5 50.5zM206 464l-32 -262l248 262h104l-57 -464h-128l32 262l-248 -262h-104l57 464h128z" />
    <glyph glyph-name="uni043A" unicode="&#x43a;" horiz-adv-x="512" 
d="M510 464l-204 -202l163 -262h-156l-100 170l-49 -48l-15 -122h-128l57 464h128l-21 -166l173 166h152z" />
    <glyph glyph-name="uni043B" unicode="&#x43b;" horiz-adv-x="608" 
d="M200 464h358l-57 -464h-128l42 344h-124l-40 -147q-30 -108 -77.5 -156.5t-121.5 -48.5q-56 0 -92 32l60 104q19 -10 38.5 -11t37.5 16.5t27 50.5z" />
    <glyph glyph-name="uni043C" unicode="&#x43c;" horiz-adv-x="640" 
d="M302 209l290 271l-59 -480h-128l22 182l-144 -134l-112 134l-22 -182h-128l59 480z" />
    <glyph glyph-name="uni043D" unicode="&#x43d;" horiz-adv-x="560" 
d="M382 464h128l-57 -464h-128l21 172h-176l-21 -172h-128l57 464h128l-21 -172h176z" />
    <glyph glyph-name="uni043E" unicode="&#x43e;" horiz-adv-x="560" 
d="M295 472q104 0 167.5 -70t50.5 -170q-12 -100 -92 -170t-185 -70q-109 0 -170 69.5t-49 170.5q13 103 89.5 171.5t188.5 68.5zM251 112q51 0 89.5 35t44.5 85t-24 85t-81 35t-90 -35t-45 -85t24.5 -85t81.5 -35z" />
    <glyph glyph-name="uni043F" unicode="&#x43f;" horiz-adv-x="560" 
d="M510 464l-57 -464h-128l42 344h-176l-42 -344h-128l57 464h432z" />
    <glyph glyph-name="uni0440" unicode="&#x440;" horiz-adv-x="592" 
d="M206 464l-6 -48q61 56 145 56q98 0 155.5 -68.5t44.5 -171.5t-87 -171.5t-172 -68.5q-83 0 -131 58l-38 -306h-128l89 720h128zM283 112q49 0 88.5 35t45.5 85t-25 85t-80 35q-50 0 -89.5 -35.5t-45.5 -84.5t25 -84.5t81 -35.5z" />
    <glyph glyph-name="uni0441" unicode="&#x441;" horiz-adv-x="480" 
d="M254 112q56 0 102 48l57 -94q-77 -74 -176 -74q-113 0 -172.5 68.5t-47.5 171.5q13 103 89.5 171.5t189.5 68.5q98 0 158 -74l-80 -94q-35 48 -91 48q-52 0 -92 -35t-46 -85t25.5 -85t83.5 -35z" />
    <glyph glyph-name="uni0442" unicode="&#x442;" horiz-adv-x="448" 
d="M46 464h384l-15 -120h-128l-42 -344h-128l42 344h-128z" />
    <glyph glyph-name="uni0443" unicode="&#x443;" 
d="M366 464h128l-53 -432q-18 -143 -95.5 -219.5t-197.5 -76.5q-117 0 -184 64l73 100q52 -44 117 -44q63 0 105.5 44t51.5 117l4 31q-54 -56 -127 -56q-81 0 -126 54.5t-32 161.5l32 256h128l-32 -256q-12 -96 77 -96q33 0 63.5 28t37.5 84z" />
    <glyph glyph-name="uni0444" unicode="&#x444;" horiz-adv-x="704" 
d="M431 472q50 -5 92.5 -21t76 -44t49 -73t8.5 -102t-33.5 -102t-67 -73t-86.5 -44t-98 -21l-31 -248h-128l31 248q-108 10 -174 70t-53 170q14 110 95 170t191 70l28 232h128zM258 108l30 248q-57 -3 -96.5 -37.5t-46.5 -86.5q-6 -51 25 -86t88 -38zM386 108
q58 3 97.5 37.5t45.5 86.5q7 51 -24.5 86t-88.5 38z" />
    <glyph glyph-name="uni0445" unicode="&#x445;" horiz-adv-x="512" 
d="M453 0h-148l-75 144l-109 -144h-148l190 244l-117 220h148l61 -122l91 122h148l-171 -220z" />
    <glyph glyph-name="uni0446" unicode="&#x446;" horiz-adv-x="640" 
d="M468 120h96l-29 -232h-128l14 112h-400l57 464h128l-42 -344h176l42 344h128z" />
    <glyph glyph-name="uni0447" unicode="&#x447;" horiz-adv-x="528" 
d="M198 140q-81 0 -122 52.5t-28 155.5l14 116h128l-15 -122q-10 -82 66 -82q51 0 86 21l23 183h128l-57 -464h-128l20 168q-58 -28 -115 -28z" />
    <glyph glyph-name="uni0448" unicode="&#x448;" horiz-adv-x="784" 
d="M606 464h128l-57 -464h-656l57 464h128l-42 -344h136l42 344h128l-42 -344h136z" />
    <glyph glyph-name="uni0449" unicode="&#x449;" horiz-adv-x="864" 
d="M692 120h96l-29 -232h-128l14 112h-624l57 464h128l-42 -344h136l42 344h128l-42 -344h136l42 344h128z" />
    <glyph glyph-name="uni044A" unicode="&#x44a;" horiz-adv-x="576" 
d="M325 330q99 0 153 -38t44 -122q-11 -85 -75.5 -127.5t-161.5 -42.5h-200l42 344h-96l15 120h224l-17 -134h72zM393 166q3 20 -13 32t-40 12h-101l-11 -90h101q24 0 43 13t21 33z" />
    <glyph glyph-name="uni044B" unicode="&#x44b;" horiz-adv-x="768" 
d="M21 0l57 464h128l-17 -134h72q99 0 153 -38t44 -122q-11 -85 -75.5 -127.5t-161.5 -42.5h-200zM533 0l57 464h128l-57 -464h-128zM265 120q24 0 43 13t21 33q3 20 -13 32t-40 12h-101l-11 -90h101z" />
    <glyph glyph-name="uni044C" unicode="&#x44c;" horiz-adv-x="512" 
d="M21 0l57 464h128l-17 -134h72q99 0 153 -38t44 -122q-11 -85 -75.5 -127.5t-161.5 -42.5h-200zM265 120q24 0 43 13t21 33q3 20 -13 32t-40 12h-101l-11 -90h101z" />
    <glyph glyph-name="uni044D" unicode="&#x44d;" horiz-adv-x="480" 
d="M214 472q113 0 172.5 -68.5t46.5 -171.5q-12 -103 -88.5 -171.5t-189.5 -68.5q-100 0 -158 74l79 94q35 -48 92 -48q42 0 78 24.5t51 63.5h-140l8 64h140q-6 39 -36 63.5t-72 24.5q-57 0 -103 -48l-56 94q76 74 176 74z" />
    <glyph glyph-name="uni044E" unicode="&#x44e;" horiz-adv-x="800" 
d="M535 472q104 0 167.5 -70t50.5 -170q-12 -100 -92 -170t-185 -70q-91 0 -150 50t-69 130h-87l-21 -172h-128l57 464h128l-21 -172h86q29 80 99.5 130t164.5 50zM625 232q6 50 -24 85t-81 35t-90 -35t-45 -85t24.5 -85t81.5 -35t89.5 35t44.5 85z" />
    <glyph glyph-name="uni044F" unicode="&#x44f;" horiz-adv-x="512" 
d="M278 464h184l-57 -464h-128l14 118h-44l-94 -118h-148l117 137q-96 40 -82 153q11 88 75.5 131t162.5 43zM306 238l13 106h-85q-24 0 -43.5 -15.5t-22.5 -38.5q-3 -24 13 -38t40 -14h85z" />
    <glyph glyph-name="uni0451" unicode="&#x451;" horiz-adv-x="512" 
d="M190 528q-27 0 -43.5 18.5t-13.5 45.5q4 27 24.5 45.5t47.5 18.5t43.5 -18.5t12.5 -45.5q-3 -27 -23.5 -45.5t-47.5 -18.5zM382 528q-27 0 -43.5 18.5t-13.5 45.5q4 27 24.5 45.5t47.5 18.5t43.5 -18.5t12.5 -45.5q-3 -27 -23.5 -45.5t-47.5 -18.5zM254 112q68 0 118 48
l57 -94q-85 -74 -192 -74q-112 0 -172 69.5t-48 170.5q13 103 89.5 171.5t189.5 68.5q27 0 55 -8.5t57 -27t51.5 -55t29.5 -85.5l-299 -169q24 -15 64 -15zM145 232q-1 -9 0 -18l199 110q-21 28 -61 28q-53 0 -92.5 -35t-45.5 -85z" />
    <glyph glyph-name="uni0452" unicode="&#x452;" 
d="M327 472q81 0 126 -54.5t31 -161.5l-31 -256q-9 -73 -34 -126.5t-59.5 -82t-71 -42t-76.5 -13.5l-13 120q47 1 81.5 34t42.5 94l33 272q12 96 -76 96q-33 0 -64 -28t-38 -84l-29 -240h-128l70 568h-48l7 64h48l13 104h128l-13 -104h96l-7 -64h-96l-19 -152q52 56 127 56z
" />
    <glyph glyph-name="uni0453" unicode="&#x453;" horiz-adv-x="400" 
d="M150 528l83 160h112l-115 -160h-80zM191 344l-42 -344h-128l57 464h304l-15 -120h-176z" />
    <glyph glyph-name="uni0454" unicode="&#x454;" horiz-adv-x="480" 
d="M254 112q56 0 102 48l57 -94q-77 -74 -176 -74q-113 0 -172.5 68.5t-47.5 171.5q13 103 89.5 171.5t189.5 68.5q98 0 158 -74l-80 -94q-35 48 -91 48q-42 0 -78 -24.5t-52 -63.5h140l-8 -64h-139q6 -39 36 -63.5t72 -24.5z" />
    <glyph glyph-name="uni0455" unicode="&#x455;" horiz-adv-x="448" 
d="M235 295q84 -21 123.5 -55t31.5 -97q-8 -65 -63.5 -108t-152.5 -43q-112 0 -177 74l77 95q46 -43 107 -51q35 -4 56.5 3.5t23.5 21.5q2 12 -11 18t-50 16q-3 1 -4 1t-3 1t-4 1.5t-4 0.5q-155 40 -140 155q8 61 62.5 102.5t142.5 41.5q9 0 23.5 -1.5t52.5 -14t68 -34.5
l-72 -99q-38 27 -84 31q-61 4 -65 -24q-1 -12 12.5 -19t49.5 -16z" />
    <glyph glyph-name="uni0456" unicode="&#x456;" horiz-adv-x="256" 
d="M152 544q-33 0 -54 23.5t-17 56.5q5 33 31 56.5t59 23.5t53.5 -23.5t16.5 -56.5t-30 -56.5t-59 -23.5zM21 0l57 464h128l-57 -464h-128z" />
    <glyph glyph-name="uni0457" unicode="&#x457;" horiz-adv-x="256" 
d="M54 528q-27 0 -43.5 18.5t-13.5 45.5q4 27 24.5 45.5t47.5 18.5t43.5 -18.5t12.5 -45.5q-3 -27 -23.5 -45.5t-47.5 -18.5zM246 528q-27 0 -43.5 18.5t-13.5 45.5q4 27 24.5 45.5t47.5 18.5t43.5 -18.5t12.5 -45.5q-3 -27 -23.5 -45.5t-47.5 -18.5zM21 0l57 464h128
l-57 -464h-128z" />
    <glyph glyph-name="uni0458" unicode="&#x458;" horiz-adv-x="256" 
d="M152 544q-33 0 -54 23.5t-17 56.5q5 33 31 56.5t59 23.5t53.5 -23.5t16.5 -56.5t-30 -56.5t-59 -23.5zM-13 -272l91 736h128l-85 -688z" />
    <glyph glyph-name="uni0459" unicode="&#x459;" horiz-adv-x="816" 
d="M562 304q49 0 85 -7t64.5 -23t41 -45.5t7.5 -72.5q-20 -156 -235 -156h-152l42 344h-124l-40 -147q-30 -108 -77.5 -156.5t-121.5 -48.5q-56 0 -92 32l60 104q19 -10 38.5 -11t37.5 16.5t27 50.5l77 280h358l-20 -160h24zM632 154q2 19 -14 24.5t-42 5.5h-52l-6 -45
l-2 -19h53q58 0 63 34z" />
    <glyph glyph-name="uni045A" unicode="&#x45a;" horiz-adv-x="768" 
d="M514 304q49 0 85 -7t64.5 -23t41 -45.5t7.5 -72.5q-20 -156 -235 -156h-152l22 184h-176l-22 -184h-128l57 464h128l-20 -160h176l20 160h128l-20 -160h24zM584 154q2 19 -14 24.5t-42 5.5h-52l-6 -45l-2 -19h53q58 0 63 34z" />
    <glyph glyph-name="uni045B" unicode="&#x45b;" 
d="M327 472q81 0 126 -54.5t31 -161.5l-31 -256h-128l31 256q12 96 -76 96q-33 0 -64 -28t-38 -84l-29 -240h-128l69 568h-47l7 64h48l13 104h128l-13 -104h96l-7 -64h-96l-19 -152q52 56 127 56z" />
    <glyph glyph-name="uni045C" unicode="&#x45c;" horiz-adv-x="512" 
d="M393 688l-115 -160h-80l83 160h112zM510 464l-204 -202l163 -262h-156l-100 170l-49 -48l-15 -122h-128l57 464h128l-21 -166l173 166h152z" />
    <glyph glyph-name="uni045E" unicode="&#x45e;" 
d="M374 664h64q-7 -56 -51 -96t-101 -40t-92 39.5t-28 96.5h64q-3 -29 15.5 -50.5t47.5 -21.5t53.5 21.5t27.5 50.5zM366 464h128l-53 -432q-18 -143 -95.5 -219.5t-197.5 -76.5q-117 0 -184 64l73 100q52 -44 117 -44q63 0 105.5 44t51.5 117l4 31q-54 -56 -127 -56
q-81 0 -126 54.5t-32 161.5l32 256h128l-32 -256q-12 -96 77 -96q33 0 63.5 28t37.5 84z" />
    <glyph glyph-name="uni045F" unicode="&#x45f;" horiz-adv-x="560" 
d="M382 464h128l-57 -464h-152l-14 -112h-128l14 112h-152l57 464h128l-42 -344h176z" />
    <glyph glyph-name="uni0462" unicode="&#x462;" 
d="M268 464q129 0 185 -65.5t44 -166.5q-12 -97 -86.5 -164.5t-183.5 -67.5h-174l66 544h-79l9 80h80l10 80h128l-10 -80h128l-9 -80h-128l-10 -80h30zM369 232q7 52 -22.5 82t-82.5 30h-41l-27 -224h41q51 0 89 32t43 80z" />
    <glyph glyph-name="uni0463" unicode="&#x463;" horiz-adv-x="512" 
d="M261 330q99 0 153 -38t44 -122q-11 -85 -75.5 -127.5t-161.5 -42.5h-200l47 384h-48l8 64h48l6 48h128l-6 -48h96l-8 -64h-96l-7 -54h72zM329 166q3 20 -13 32t-40 12h-101l-11 -90h101q24 0 43 13t21 33z" />
    <glyph glyph-name="uni0472" unicode="&#x472;" horiz-adv-x="784" 
d="M436 712q149 0 241.5 -105.5t74.5 -254.5t-136.5 -254.5t-267.5 -105.5t-241.5 105.5t-74.5 254.5t136.5 254.5t267.5 105.5zM421 592q-81 0 -150 -51.5t-97 -130.5q100 49 224 -10q144 -69 228 -8q-4 86 -61.5 143t-143.5 57zM363 112q82 0 151 52t97 132
q-98 -52 -224 9q-143 69 -229 7q4 -86 61.5 -143t143.5 -57z" />
    <glyph glyph-name="uni0473" unicode="&#x473;" horiz-adv-x="560" 
d="M295 472q104 0 167.5 -70t50.5 -170q-12 -100 -92 -170t-185 -70q-109 0 -170 69.5t-49 170.5q13 103 89.5 171.5t188.5 68.5zM280 352q-39 0 -72.5 -22t-50.5 -57q54 18 107 -6q83 -38 121 -7q-5 40 -33.5 66t-71.5 26zM251 112q39 0 72 21.5t50 56.5q-52 -16 -106 8
q-82 38 -122 5q5 -40 34 -65.5t72 -25.5z" />
    <glyph glyph-name="uni0474" unicode="&#x474;" horiz-adv-x="688" 
d="M602 705q80 21 143 -23l-65 -108q-14 17 -38.5 14.5t-37.5 -24.5l-329 -580l-232 720h144l125 -416l145 265q39 72 71.5 106.5t73.5 45.5z" />
    <glyph glyph-name="uni0475" unicode="&#x475;" horiz-adv-x="512" 
d="M443 472q50 0 80 -32l-52 -96q-38 22 -68 -24l-208 -336l-181 480h144l70 -208l41 70q51 81 70 101q42 45 104 45z" />
    <glyph glyph-name="uni0490" unicode="&#x490;" horiz-adv-x="464" 
d="M375 800h112l-27 -216h-240l-71 -584h-128l86 704h256z" />
    <glyph glyph-name="uni0491" unicode="&#x491;" horiz-adv-x="400" 
d="M282 560h112l-27 -216h-176l-42 -344h-128l57 464h192z" />
    <glyph glyph-name="uni0492" unicode="&#x492;" horiz-adv-x="480" 
d="M476 584h-240l-28 -232h64l-8 -64h-64l-35 -288h-128l35 288h-64l8 64h64l43 352h368z" />
    <glyph glyph-name="uni0493" unicode="&#x493;" horiz-adv-x="400" 
d="M367 344h-176l-14 -112h96l-8 -64h-95l-21 -168h-128l21 168h-49l8 64h49l28 232h304z" />
    <glyph glyph-name="uni0496" unicode="&#x496;" horiz-adv-x="864" 
d="M621 390l127 -270h72l-27 -216h-112l12 96h-48l-119 274l-47 -58l-26 -216h-128l26 216l-33 58l-185 -274h-160l280 390l-178 314h152l150 -280l34 280h128l-34 -280l218 280h152z" />
    <glyph glyph-name="uni0497" unicode="&#x497;" horiz-adv-x="800" 
d="M578 263l89 -143h89l-27 -216h-112l12 96h-44l-100 170l-49 -48l-15 -122h-128l15 122l-37 48l-142 -170h-156l227 263l-154 201h152l131 -166l21 166h128l-21 -166l173 166h152z" />
    <glyph glyph-name="uni049A" unicode="&#x49a;" horiz-adv-x="560" 
d="M317 390l127 -270h72l-27 -216h-112l12 96h-48l-119 274l-47 -58l-26 -216h-128l86 704h128l-34 -280l218 280h152z" />
    <glyph glyph-name="uni049B" unicode="&#x49b;" horiz-adv-x="512" 
d="M306 262l88 -142h90l-27 -216h-112l12 96h-44l-100 170l-49 -48l-15 -122h-128l57 464h128l-21 -166l173 166h152z" />
    <glyph glyph-name="uni04A2" unicode="&#x4a2;" horiz-adv-x="640" 
d="M500 120h112l-27 -216h-112l12 96h-128l31 252h-208l-31 -252h-128l86 704h128l-41 -332h208l41 332h128z" />
    <glyph glyph-name="uni04A3" unicode="&#x4a3;" horiz-adv-x="608" 
d="M468 120h112l-27 -216h-112l12 96h-128l21 172h-176l-21 -172h-128l57 464h128l-21 -172h176l21 172h128z" />
    <glyph glyph-name="uni04AE" unicode="&#x4ae;" horiz-adv-x="576" 
d="M475 704h144l-275 -420l-35 -284h-128l35 284l-173 420h144l110 -280z" />
    <glyph glyph-name="uni04AF" unicode="&#x4af;" horiz-adv-x="512" 
d="M526 464l-245 -426l-36 -294h-128l36 294l-139 426h144l79 -264l145 264h144z" />
    <glyph glyph-name="uni04B0" unicode="&#x4b0;" horiz-adv-x="576" 
d="M344 284l-7 -60h63l-8 -64h-63l-20 -160h-128l20 160h-65l8 64h65l7 60l-173 420h144l110 -280l178 280h144z" />
    <glyph glyph-name="uni04B1" unicode="&#x4b1;" horiz-adv-x="512" 
d="M281 38l-11 -86h65l-8 -64h-64l-18 -144h-128l18 144h-64l8 64h63l11 86l-139 426h144l79 -264l145 264h144z" />
    <glyph glyph-name="uni04B2" unicode="&#x4b2;" horiz-adv-x="608" 
d="M387 362l108 -242h69l-27 -216h-112l12 96h-42l-104 245l-164 -245h-154l250 362l-148 342h147l97 -226l153 226h147z" />
    <glyph glyph-name="uni04B3" unicode="&#x4b3;" horiz-adv-x="512" 
d="M323 244l66 -124h79l-27 -216h-112l12 96h-36l-75 144l-109 -144h-148l190 244l-117 220h148l61 -122l91 122h148z" />
    <glyph glyph-name="uni04B6" unicode="&#x4b6;" horiz-adv-x="624" 
d="M484 120h112l-27 -216h-112l12 96h-128l31 252q-73 -28 -140 -28q-92 0 -138.5 62t-31.5 178l29 240h128l-30 -248q-15 -112 98 -112q43 0 99 24l41 336h128z" />
    <glyph glyph-name="uni04B7" unicode="&#x4b7;" horiz-adv-x="576" 
d="M436 120h112l-27 -216h-112l12 96h-128l20 168q-58 -28 -115 -28q-81 0 -122 52.5t-28 155.5l14 116h128l-15 -122q-10 -82 66 -82q51 0 86 21l23 183h128z" />
    <glyph glyph-name="uni04BA" unicode="&#x4ba;" horiz-adv-x="576" 
d="M344 480q92 0 138.5 -62t31.5 -178l-29 -240h-128l30 248q15 112 -98 112q-43 0 -99 -24l-41 -336h-128l86 704h128l-31 -252q73 28 140 28z" />
    <glyph glyph-name="uni04BB" unicode="&#x4bb;" 
d="M327 472q81 0 126 -54.5t31 -161.5l-31 -256h-128l31 256q12 96 -76 96q-33 0 -64 -28t-38 -84l-29 -240h-128l90 736h128l-39 -320q52 56 127 56z" />
    <glyph glyph-name="uni04C0" unicode="&#x4c0;" horiz-adv-x="256" 
d="M149 0h-128l86 704h128z" />
    <glyph glyph-name="uni04CF" unicode="&#x4cf;" horiz-adv-x="256" 
d="M21 0l57 464h128l-57 -464h-128z" />
    <glyph glyph-name="uni04D8" unicode="&#x4d8;" horiz-adv-x="784" 
d="M436 712q149 0 241.5 -105.5t74.5 -254.5t-136.5 -254.5t-267.5 -105.5t-241.5 105.5t-74.5 254.5q3 24 9 48h584q-6 83 -63.5 137.5t-140.5 54.5t-154 -55l-63 98q107 77 232 77zM363 112q84 0 154 54.5t96 137.5h-454q6 -83 63.5 -137.5t140.5 -54.5z" />
    <glyph glyph-name="uni04D9" unicode="&#x4d9;" horiz-adv-x="560" 
d="M295 472q104 0 167.5 -70t50.5 -170q-12 -100 -92 -170t-185 -70q-109 0 -170 69.5t-49 170.5q2 14 8 40h358q-8 36 -35.5 58t-67.5 22t-73 -22l-69 97q68 45 157 45zM251 112q40 0 73 22t49 58h-226q8 -36 36 -58t68 -22z" />
    <glyph glyph-name="uni04E2" unicode="&#x4e2;" horiz-adv-x="624" 
d="M493 784h-256l10 80h256zM235 704l-54 -442l318 442h104l-86 -704h-128l54 442l-318 -442h-104l86 704h128z" />
    <glyph glyph-name="uni04E3" unicode="&#x4e3;" horiz-adv-x="576" 
d="M440 544h-256l9 80h256zM206 464l-32 -262l248 262h104l-57 -464h-128l32 262l-248 -262h-104l57 464h128z" />
    <glyph glyph-name="uni04E8" unicode="&#x4e8;" horiz-adv-x="784" 
d="M436 712q149 0 241.5 -105.5t74.5 -254.5t-136.5 -254.5t-267.5 -105.5t-241.5 105.5t-74.5 254.5t136.5 254.5t267.5 105.5zM421 592q-83 0 -154 -54.5t-97 -137.5h455q-6 83 -63.5 137.5t-140.5 54.5zM363 112q83 0 154 54.5t97 137.5h-455q6 -83 63.5 -137.5
t140.5 -54.5z" />
    <glyph glyph-name="uni04E9" unicode="&#x4e9;" horiz-adv-x="560" 
d="M295 472q104 0 167.5 -70t50.5 -170q-12 -100 -92 -170t-185 -70q-109 0 -170 69.5t-49 170.5q13 103 89.5 171.5t188.5 68.5zM280 352q-42 0 -77 -24.5t-50 -63.5h232q-6 39 -34.5 63.5t-70.5 24.5zM251 112q42 0 76.5 24.5t49.5 63.5h-232q6 -39 35 -63.5t71 -24.5z
" />
    <glyph glyph-name="uni04EE" unicode="&#x4ee;" horiz-adv-x="576" 
d="M477 784h-256l10 80h256zM475 704h144l-422 -704h-144l160 265l-154 439h144l105 -288z" />
    <glyph glyph-name="uni04EF" unicode="&#x4ef;" 
d="M416 544h-256l9 80h256zM366 464h128l-53 -432q-18 -143 -95.5 -219.5t-197.5 -76.5q-117 0 -184 64l73 100q52 -44 117 -44q63 0 105.5 44t51.5 117l4 31q-54 -56 -127 -56q-81 0 -126 54.5t-32 161.5l32 256h128l-32 -256q-12 -96 77 -96q33 0 63.5 28t37.5 84z" />
    <glyph glyph-name="Wgrave" unicode="&#x1e80;" horiz-adv-x="912" 
d="M571 768h-80l-76 160h112zM955 704l-400 -720l-102 347l-186 -347l-224 720h144l119 -400l103 187l-58 213h140l103 -400l217 400h144z" />
    <glyph glyph-name="wgrave" unicode="&#x1e81;" horiz-adv-x="736" 
d="M454 528h-80l-77 160h112zM750 464l-307 -480l-89 241l-151 -241l-189 480h136l85 -218l68 118l-37 100h132l77 -218l139 218h136z" />
    <glyph glyph-name="Wacute" unicode="&#x1e82;" horiz-adv-x="912" 
d="M443 768l84 160h112l-116 -160h-80zM955 704l-400 -720l-102 347l-186 -347l-224 720h144l119 -400l103 187l-58 213h140l103 -400l217 400h144z" />
    <glyph glyph-name="wacute" unicode="&#x1e83;" horiz-adv-x="736" 
d="M521 688l-115 -160h-80l83 160h112zM750 464l-307 -480l-89 241l-151 -241l-189 480h136l85 -218l68 118l-37 100h132l77 -218l139 218h136z" />
    <glyph glyph-name="Wdieresis" unicode="&#x1e84;" horiz-adv-x="912" 
d="M411 768q-27 0 -43 18.5t-13 45.5t24 45.5t48 18.5t43 -18.5t13 -45.5t-24 -45.5t-48 -18.5zM603 768q-27 0 -43 18.5t-13 45.5t24 45.5t48 18.5t43 -18.5t13 -45.5t-24 -45.5t-48 -18.5zM955 704l-400 -720l-102 347l-186 -347l-224 720h144l119 -400l103 187l-58 213
h140l103 -400l217 400h144z" />
    <glyph glyph-name="wdieresis" unicode="&#x1e85;" horiz-adv-x="736" 
d="M294 528q-27 0 -43.5 18.5t-13.5 45.5q4 27 24.5 45.5t47.5 18.5t43.5 -18.5t12.5 -45.5q-3 -27 -23.5 -45.5t-47.5 -18.5zM486 528q-27 0 -43.5 18.5t-13.5 45.5q4 27 24.5 45.5t47.5 18.5t43.5 -18.5t12.5 -45.5q-3 -27 -23.5 -45.5t-47.5 -18.5zM750 464l-307 -480
l-89 241l-151 -241l-189 480h136l85 -218l68 118l-37 100h132l77 -218l139 218h136z" />
    <glyph glyph-name="Ygrave" unicode="&#x1ef2;" horiz-adv-x="576" 
d="M395 768h-80l-76 160h112zM475 704h144l-275 -420l-35 -284h-128l35 284l-173 420h144l110 -280z" />
    <glyph glyph-name="ygrave" unicode="&#x1ef3;" 
d="M358 528h-80l-77 160h112zM366 464h128l-53 -432q-18 -143 -95.5 -219.5t-197.5 -76.5q-117 0 -184 64l73 100q52 -44 117 -44q63 0 105.5 44t51.5 117l4 31q-54 -56 -127 -56q-81 0 -126 54.5t-32 161.5l32 256h128l-32 -256q-12 -96 77 -96q33 0 63.5 28t37.5 84z" />
    <glyph glyph-name="endash" unicode="&#x2013;" horiz-adv-x="528" 
d="M462 208h-432l12 96h432z" />
    <glyph glyph-name="emdash" unicode="&#x2014;" horiz-adv-x="624" 
d="M558 208h-528l12 96h528z" />
    <glyph glyph-name="quoteleft" unicode="&#x2018;" horiz-adv-x="240" 
d="M219 704l-27 -224h-128l75 224h80z" />
    <glyph glyph-name="quoteright" unicode="&#x2019;" horiz-adv-x="240" 
d="M80 480l27 224h128l-75 -224h-80z" />
    <glyph glyph-name="quotesinglbase" unicode="&#x201a;" horiz-adv-x="240" 
d="M9 -96l27 224h128l-75 -224h-80z" />
    <glyph glyph-name="quotedblleft" unicode="&#x201c;" horiz-adv-x="464" 
d="M219 704l-27 -224h-128l75 224h80zM443 704l-27 -224h-128l75 224h80z" />
    <glyph glyph-name="quotedblright" unicode="&#x201d;" horiz-adv-x="464" 
d="M80 480l27 224h128l-75 -224h-80zM304 480l27 224h128l-75 -224h-80z" />
    <glyph glyph-name="quotedblbase" unicode="&#x201e;" horiz-adv-x="464" 
d="M9 -96l27 224h128l-75 -224h-80zM233 -96l27 224h128l-75 -224h-80z" />
    <glyph glyph-name="dagger" unicode="&#x2020;" horiz-adv-x="608" 
d="M386 496h192l-14 -112h-192l-79 -640h-128l79 640h-192l14 112h192l29 240h128z" />
    <glyph glyph-name="daggerdbl" unicode="&#x2021;" horiz-adv-x="608" 
d="M564 384h-192l-14 -112h192l-14 -112h-192l-51 -416h-128l51 416h-192l14 112h192l14 112h-192l14 112h192l29 240h128l-29 -240h192z" />
    <glyph glyph-name="bullet" unicode="&#x2022;" horiz-adv-x="800" 
d="M412 448q47 0 75.5 -32.5t22.5 -79.5t-42.5 -79.5t-83.5 -32.5t-75.5 32.5t-22.5 79.5t42.5 79.5t83.5 32.5z" />
    <glyph glyph-name="ellipsis" unicode="&#x2026;" horiz-adv-x="800" 
d="M84 -8q-34 0 -54 23t-16 57t29.5 57t59.5 23t54.5 -23t16.5 -57q-5 -34 -30.5 -57t-59.5 -23zM356 -8q-34 0 -54 23t-16 57t29.5 57t59.5 23t54.5 -23t16.5 -57q-5 -34 -30.5 -57t-59.5 -23zM628 -8q-34 0 -54 23t-16 57t29.5 57t59.5 23t54.5 -23t16.5 -57
q-5 -34 -30.5 -57t-59.5 -23z" />
    <glyph glyph-name="perthousand" unicode="&#x2030;" horiz-adv-x="1200" 
d="M214 392q-68 0 -108.5 46.5t-32.5 113.5q7 67 59.5 113.5t120.5 46.5q67 0 107.5 -46.5t32.5 -113.5t-60 -113.5t-119 -46.5zM189 0h-96l534 704h96zM225 488q25 0 46.5 19t25.5 45q3 25 -14 44.5t-43 19.5q-25 0 -46.5 -19t-24.5 -45q-4 -25 13 -44.5t43 -19.5zM565 -8
q-68 0 -109 46.5t-33 113.5t61 113.5t120 46.5t107 -46.5t32 -113.5t-59.5 -113.5t-118.5 -46.5zM949 -8q-68 0 -109 46.5t-33 113.5t61 113.5t120 46.5t107 -46.5t32 -113.5t-59.5 -113.5t-118.5 -46.5zM576 88q25 0 46.5 19t24.5 45q4 25 -13 44.5t-43 19.5
q-25 0 -46.5 -19t-25.5 -45q-3 -25 14 -44.5t43 -19.5zM960 88q25 0 46.5 19t24.5 45q4 25 -13 44.5t-43 19.5q-25 0 -46.5 -19t-25.5 -45q-3 -25 14 -44.5t43 -19.5z" />
    <glyph glyph-name="guilsinglleft" unicode="&#x2039;" horiz-adv-x="336" 
d="M183 472l81 -52l-112 -148l75 -156l-93 -44l-96 200z" />
    <glyph glyph-name="guilsinglright" unicode="&#x203a;" horiz-adv-x="336" 
d="M88 420l95 52l95 -200l-144 -200l-83 44l113 156z" />
    <glyph glyph-name="fraction" unicode="&#x2044;" horiz-adv-x="128" 
d="M-155 0h-96l534 704h96z" />
    <glyph glyph-name="uni2070" unicode="&#x2070;" horiz-adv-x="395" 
d="M252 800q63 0 100.5 -47t29.5 -117q-9 -70 -58 -117t-112 -47q-62 0 -100 47t-29 117q8 70 57.5 117t111.5 47zM222 552q26 0 47.5 23.5t25.5 60.5t-11.5 60.5t-41.5 23.5t-47 -23.5t-25 -60.5t11 -60.5t41 -23.5z" />
    <glyph glyph-name="uni2074" unicode="&#x2074;" horiz-adv-x="359" 
d="M55 536l125 256h86l-85 -176h34l5 41h87l-5 -41h41l-9 -80h-41l-7 -56h-87l7 56h-151z" />
    <glyph glyph-name="uni2075" unicode="&#x2075;" horiz-adv-x="340" 
d="M190 687q19 8 43.5 4.5t45.5 -12.5t33.5 -35t7.5 -62q-5 -46 -44 -78t-95 -32q-52 0 -80 31t-27 61l83 23q0 -14 8.5 -24.5t25.5 -10.5q18 0 29.5 11t13.5 27q4 30 -25 35.5t-45 -18.5l-71 25l45 160h172l-10 -80h-103z" />
    <glyph glyph-name="uni2076" unicode="&#x2076;" horiz-adv-x="347" 
d="M233 696q49 -1 74.5 -32.5t20.5 -77.5q-6 -48 -45.5 -81t-94.5 -33q-56 0 -86.5 33t-24.5 81q4 31 27 64.5t111 141.5h99zM198 552q17 0 29 11t14 27t-7.5 27t-26.5 11q-16 0 -28.5 -11t-14.5 -27t8 -27t26 -11z" />
    <glyph glyph-name="uni2077" unicode="&#x2077;" horiz-adv-x="308" 
d="M102 792h244l-158 -312h-91l116 232h-121z" />
    <glyph glyph-name="uni2078" unicode="&#x2078;" horiz-adv-x="340" 
d="M324 707q-4 -36 -36 -61q37 -32 31 -74q-5 -41 -44 -70.5t-90 -29.5q-54 0 -84.5 29t-25.5 71q6 44 46 74q-22 26 -18 61q5 39 39 66t83 27q46 0 75 -27.5t24 -65.5zM181 700q-1 -12 7 -20t21 -8t23.5 8t11.5 20q2 11 -6.5 19.5t-21.5 8.5t-23 -8.5t-12 -19.5zM232 576
q2 13 -7.5 22t-23.5 9q-15 0 -25.5 -9t-12.5 -22t7 -22.5t24 -9.5q14 0 25 9t13 23z" />
    <glyph glyph-name="uni2079" unicode="&#x2079;" horiz-adv-x="347" 
d="M184 576q-49 1 -74.5 32.5t-20.5 77.5q6 48 45.5 81t94.5 33q56 0 86.5 -33t24.5 -81q-4 -31 -27 -64.5t-111 -141.5h-99zM219 720q-17 0 -29 -11t-14 -27t7.5 -27t26.5 -11q16 0 28.5 11t14.5 27t-8 27t-26 11z" />
    <glyph glyph-name="Euro" unicode="&#x20ac;" horiz-adv-x="656" 
d="M383 112q81 0 149 48l57 -96q-98 -72 -222 -72q-160 0 -256.5 105t-78.5 255t140.5 255t282.5 105q124 0 204 -72l-79 -96q-63 48 -139 48q-83 0 -155.5 -43.5t-105.5 -120.5h277l-24 -56h-270l-3 -20q0 -4 -1 -10.5t-1 -9.5h262l-22 -56h-236q15 -77 76.5 -120.5
t144.5 -43.5z" />
    <glyph glyph-name="trademark" unicode="&#x2122;" horiz-adv-x="800" 
d="M796 712l-52 -424h-96l25 202l-109 -107l-83 107l-25 -202h-96l52 424l167 -202zM91 704h272l-10 -86h-88l-41 -330h-96l41 330h-88z" />
    <glyph glyph-name="oneeighth" unicode="&#x215b;" horiz-adv-x="764" 
d="M118 392l26 212l-51 -16l10 80l141 44l-1 -4h1l-39 -316h-87zM579 704h96l-534 -704h-96zM689 227q-4 -36 -36 -61q37 -32 31 -74q-5 -41 -44 -70.5t-90 -29.5q-54 0 -84.5 29t-25.5 71q6 44 46 74q-22 26 -18 61q5 39 39 66t83 27q46 0 75 -27.5t24 -65.5zM546 220
q-2 -12 6 -20t22 -8q13 0 23.5 8t11.5 20q1 11 -7 19.5t-21 8.5t-23 -8.5t-12 -19.5zM597 96q1 13 -8 22t-23 9q-15 0 -25.5 -9t-12.5 -22t7 -22.5t24 -9.5q14 0 25 9t13 23z" />
    <glyph glyph-name="threeeighths" unicode="&#x215c;" horiz-adv-x="808" 
d="M170 384q-49 0 -79 29.5t-28 63.5l82 22q1 -14 9.5 -24.5t25.5 -10.5q18 0 29.5 11t13.5 26q3 23 -19 31t-42 -6l-29 49l45 49h-83l10 80h222l-88 -110q29 -4 52.5 -28t18.5 -71q-7 -50 -47 -80.5t-93 -30.5zM623 704h96l-534 -704h-96zM733 227q-4 -36 -36 -61
q37 -32 31 -74q-5 -41 -44 -70.5t-90 -29.5q-54 0 -84.5 29t-25.5 71q6 44 46 74q-22 26 -18 61q5 39 39 66t83 27q46 0 75 -27.5t24 -65.5zM590 220q-2 -12 6 -20t22 -8q13 0 23.5 8t11.5 20q1 11 -7 19.5t-21 8.5t-23 -8.5t-12 -19.5zM641 96q1 13 -8 22t-23 9
q-15 0 -25.5 -9t-12.5 -22t7 -22.5t24 -9.5q14 0 25 9t13 23z" />
    <glyph glyph-name="fiveeighths" unicode="&#x215d;" horiz-adv-x="808" 
d="M170 384q-52 0 -80 31t-27 61l83 23q0 -14 8.5 -24.5t25.5 -10.5q18 0 29.5 11t13.5 27q4 30 -25 35.5t-44 -18.5l-71 25l44 160h172l-10 -80h-103l-7 -25q19 8 43.5 4.5t45.5 -12.5t33.5 -35t7.5 -62q-5 -46 -44 -78t-95 -32zM623 704h96l-534 -704h-96zM733 227
q-4 -36 -36 -61q37 -32 31 -74q-5 -41 -44 -70.5t-90 -29.5q-54 0 -84.5 29t-25.5 71q6 44 46 74q-22 26 -18 61q5 39 39 66t83 27q46 0 75 -27.5t24 -65.5zM590 220q-2 -12 6 -20t22 -8q13 0 23.5 8t11.5 20q1 11 -7 19.5t-21 8.5t-23 -8.5t-12 -19.5zM641 96q1 13 -8 22
t-23 9q-15 0 -25.5 -9t-12.5 -22t7 -22.5t24 -9.5q14 0 25 9t13 23z" />
    <glyph glyph-name="seveneighths" unicode="&#x215e;" horiz-adv-x="776" 
d="M591 704h96l-534 -704h-96zM86 392l116 232h-121l10 80h244l-158 -312h-91zM701 227q-4 -36 -36 -61q37 -32 31 -74q-5 -41 -44 -70.5t-90 -29.5q-54 0 -84.5 29t-25.5 71q6 44 46 74q-22 26 -18 61q5 39 39 66t83 27q46 0 75 -27.5t24 -65.5zM558 220q-2 -12 6 -20
t22 -8q13 0 23.5 8t11.5 20q1 11 -7 19.5t-21 8.5t-23 -8.5t-12 -19.5zM609 96q1 13 -8 22t-23 9q-15 0 -25.5 -9t-12.5 -22t7 -22.5t24 -9.5q14 0 25 9t13 23z" />
    <glyph glyph-name="arrowleft" unicode="&#x2190;" horiz-adv-x="960" 
d="M25 296l261 233l55 -63l-140 -122h710l-12 -96h-710l110 -122l-70 -63z" />
    <glyph glyph-name="arrowup" unicode="&#x2191;" horiz-adv-x="530" 
d="M322 816l204 -232l-70 -63l-107 125l-87 -710h-96l87 710l-138 -125l-55 63z" />
    <glyph glyph-name="arrowright" unicode="&#x2192;" horiz-adv-x="960" 
d="M921 296l-260 -233l-56 63l140 122h-710l12 96h710l-110 122l71 63z" />
    <glyph glyph-name="arrowdown" unicode="&#x2193;" horiz-adv-x="530" 
d="M208 -112l-204 232l69 63l108 -125l87 710h96l-87 -710l137 125l56 -63z" />
    <glyph glyph-name="arrowboth" unicode="&#x2194;" horiz-adv-x="992" 
d="M189 248l110 -122l-70 -63l-204 233l261 233l55 -62l-140 -123h588l-110 123l71 62l203 -233l-260 -233l-56 63l140 122h-588z" />
    <glyph glyph-name="arrowupdn" unicode="&#x2195;" horiz-adv-x="530" 
d="M277 58l137 125l56 -63l-262 -232l-204 232l69 63l108 -125l72 588l-138 -125l-55 63l262 232l204 -232l-70 -63l-107 125z" />
    <glyph glyph-name="uni2196" unicode="&#x2196;" horiz-adv-x="752" 
d="M91 704h329l-11 -89l-174 3l454 -518l-76 -68l-455 518l-18 -175h-89z" />
    <glyph glyph-name="uni2197" unicode="&#x2197;" horiz-adv-x="752" 
d="M747 704l-40 -329h-89l24 175l-581 -518l-60 68l582 518l-176 -3l11 89h329z" />
    <glyph glyph-name="uni2198" unicode="&#x2198;" horiz-adv-x="752" 
d="M661 0h-329l11 89l174 -3l-454 518l76 68l455 -518l18 175h89z" />
    <glyph glyph-name="uni2199" unicode="&#x2199;" horiz-adv-x="752" 
d="M5 0l40 329h89l-24 -175l581 518l60 -68l-582 -518l176 3l-11 -89h-329z" />
    <glyph glyph-name="partialdiff" unicode="&#x2202;" horiz-adv-x="592" 
d="M203 800q115 -49 194.5 -139.5t113 -201.5t18.5 -227q-12 -100 -92 -170t-185 -70q-109 0 -170 69.5t-49 170.5q13 103 89.5 171.5t188.5 68.5q34 0 61 -11q-27 75 -88 133.5t-140 93.5zM267 112q51 0 89.5 35t44.5 85t-24 85t-81 35t-90 -35t-45 -85t24.5 -85t81.5 -35z
" />
    <glyph glyph-name="emptyset" unicode="&#x2205;" horiz-adv-x="632" 
 />
    <glyph glyph-name="product" unicode="&#x220f;" horiz-adv-x="624" 
d="M603 704l-118 -960h-128l103 840h-240l-103 -840h-128l118 960h496z" />
    <glyph glyph-name="summation" unicode="&#x2211;" horiz-adv-x="656" 
d="M308 584l172 -360l-260 -360h312l-15 -120h-528l347 480l-229 480h528l-15 -120h-312z" />
    <glyph glyph-name="minus" unicode="&#x2212;" horiz-adv-x="464" 
d="M53 392h368l-12 -96h-368z" />
    <glyph glyph-name="radical" unicode="&#x221a;" horiz-adv-x="896" 
d="M907 704l-15 -120h-299l-366 -600l-181 480h144l70 -208l262 448h385z" />
    <glyph glyph-name="infinity" unicode="&#x221e;" horiz-adv-x="704" 
d="M502 520q73 0 117.5 -51.5t35.5 -124.5t-66.5 -124.5t-130.5 -51.5q-77 0 -122 55q-58 -55 -134 -55q-74 0 -119 51.5t-36 124.5t67.5 124.5t131.5 51.5q76 0 120 -55q60 55 136 55zM213 264q33 0 59 23.5t31 55.5v1q4 33 -16.5 56.5t-53.5 23.5t-59.5 -23.5t-30.5 -56.5
t16.5 -56.5t53.5 -23.5zM559 344q4 33 -16.5 56.5t-53.5 23.5t-59.5 -23t-30.5 -56v-1q-4 -33 16.5 -56.5t53.5 -23.5t59.5 23.5t30.5 56.5z" />
    <glyph glyph-name="integral" unicode="&#x222b;" horiz-adv-x="352" 
d="M127 472q14 118 63.5 179t157.5 61l-15 -120q-29 0 -49 -21.5t-24 -57.5l-66 -537q-15 -118 -64.5 -179t-157.5 -61l15 120q29 0 49.5 21.5t24.5 57.5z" />
    <glyph glyph-name="approxequal" unicode="&#x2248;" horiz-adv-x="512" 
d="M417 496l57 -64q-54 -64 -127 -64q-24 0 -61 10.5t-63.5 18.5t-56.5 2.5t-51 -31.5l-57 64q52 64 127 64q26 0 76.5 -17t89 -17t66.5 34zM395 320l57 -64q-52 -64 -127 -64q-24 0 -60.5 10.5t-63 18.5t-57 2.5t-51.5 -31.5l-57 64q54 64 127 64q26 0 76.5 -17t89 -17
t66.5 34z" />
    <glyph glyph-name="notequal" unicode="&#x2260;" horiz-adv-x="464" 
d="M420 384h-130l-30 -80h150l-12 -96h-174l-67 -176h-88l67 176h-106l12 96h130l30 80h-150l12 96h174l67 176h88l-67 -176h106z" />
    <glyph glyph-name="lessequal" unicode="&#x2264;" horiz-adv-x="464" 
d="M397 200l-346 176l10 80l389 176l-13 -112l-253 -104l227 -104zM391 152l-11 -96h-368l11 96h368z" />
    <glyph glyph-name="greaterequal" unicode="&#x2265;" horiz-adv-x="464" 
d="M29 200l14 112l253 104l-227 104l13 112l347 -176l-10 -80zM23 152h368l-11 -96h-368z" />
    <glyph glyph-name="lozenge" unicode="&#x25ca;" horiz-adv-x="640" 
d="M592 352l-317 -368l-227 368l317 368zM480 352l-134 214l-184 -214l132 -214z" />
    <glyph glyph-name="Q.ss01" horiz-adv-x="784" 
d="M752 352q-16 -129 -108.5 -227.5t-218.5 -124.5q29 -36 56.5 -51t67.5 -4.5t88 55.5l61 -88q-58 -46 -109.5 -67t-87 -22t-71 15.5t-55 33.5t-45.5 45q-100 108 -221 19l-61 88q41 37 80 52q-54 50 -80 122t-16 154q18 149 136.5 254.5t267.5 105.5t241.5 -105.5
t74.5 -254.5zM624 352q12 100 -47.5 170t-155.5 70t-172.5 -70t-88.5 -170t47.5 -170t155.5 -70t172.5 70t88.5 170z" />
    <glyph glyph-name="f_f.dlig" horiz-adv-x="800" 
d="M631 540l-9 -76h160l-15 -120h-160l-42 -344h-128l42 344h-256l-42 -344h-128l42 344h-64l15 120h64l9 72q11 93 63 150.5t142 57.5q55 0 104 -36l-60 -99q-25 13 -50 15.5t-45.5 -19.5t-25.5 -65l-9 -76h256l9 72q11 93 63 150.5t142 57.5q55 0 104 -36l-60 -99
q-25 13 -50 15.5t-45.5 -19.5t-25.5 -65z" />
    <glyph glyph-name="f_f_i.dlig" horiz-adv-x="1024" 
d="M631 540l-9 -76h224l-15 -120h-224l-42 -344h-128l42 344h-256l-42 -344h-128l42 344h-64l15 120h64l9 72q11 93 63 150.5t142 57.5q55 0 104 -36l-60 -99q-25 13 -50 15.5t-45.5 -19.5t-25.5 -65l-9 -76h256l9 72q11 93 63 150.5t142 57.5q55 0 104 -36l-60 -99
q-25 13 -50 15.5t-45.5 -19.5t-25.5 -65zM846 464h128l-57 -464h-128z" />
    <glyph glyph-name="f_f_j.dlig" horiz-adv-x="1024" 
d="M631 540l-9 -76h224l-15 -120h-224l-42 -344h-128l42 344h-256l-42 -344h-128l42 344h-64l15 120h64l9 72q11 93 63 150.5t142 57.5q55 0 104 -36l-60 -99q-25 13 -50 15.5t-45.5 -19.5t-25.5 -65l-9 -76h256l9 72q11 93 63 150.5t142 57.5q55 0 104 -36l-60 -99
q-25 13 -50 15.5t-45.5 -19.5t-25.5 -65zM846 464h128l-85 -688l-134 -48z" />
    <glyph glyph-name="uni041B.loclBGR" horiz-adv-x="640" 
d="M459 0l-129 432l-235 -432h-138l408 720l232 -720h-138z" />
    <glyph glyph-name="uni0432.de-cy.loclBGR" 
d="M381 392q51 -13 86 -64.5t27 -122.5q-11 -89 -84 -151t-178 -62q-104 0 -158.5 61t-41.5 166l21 174l16 127q7 57 30 100t51 65.5t61 37t55 18t39 3.5q92 0 143 -55t41 -137q-8 -56 -40 -98t-68 -62zM159 217q-6 -47 20.5 -75t67.5 -28q44 0 79 26.5t41 71.5
q7 56 -37.5 88t-123.5 32l10 88q49 0 93 33.5t50 82.5q4 39 -15.5 63.5t-54.5 24.5t-60.5 -25t-30.5 -65z" />
    <glyph glyph-name="uni0433.de-cy.loclBGR" horiz-adv-x="448" 
d="M199 295q68 16 70 35q2 12 -13 19t-46 5q-46 -4 -92 -31l-46 99q36 22 75 34.5t60 13.5l21 2q88 0 132.5 -41.5t36.5 -102.5q-15 -115 -178 -155q-69 -17 -79 -26q-6 -5 -7 -12q-2 -14 18.5 -21.5t55.5 -3.5q62 7 121 51l53 -95q-83 -74 -195 -74q-98 0 -143 43t-37 108
q8 63 56 97t137 55z" />
    <glyph glyph-name="uni0434.de-cy.loclBGR" horiz-adv-x="592" 
d="M414 464h128l-53 -432q-18 -143 -95.5 -219.5t-197.5 -76.5q-117 0 -184 64l73 100q52 -44 117 -44q63 0 105.5 44t51.5 117l4 33q-61 -58 -145 -58q-98 0 -156 68.5t-45 171.5t87.5 171.5t172.5 68.5q83 0 131 -56zM251 112q49 0 88.5 35t45.5 85t-25 85t-80 35
q-50 0 -89.5 -35.5t-45.5 -84.5t25 -84.5t81 -35.5z" />
    <glyph glyph-name="uni0436.de-cy.loclBGR" horiz-adv-x="800" 
d="M741 0h-156l-100 170l-49 -48l-15 -122h-128l15 122l-37 48l-142 -170h-156l227 263l-154 201h152l131 -166l54 438h128l-54 -438l173 166h152l-204 -201z" />
    <glyph glyph-name="uni0437.de-cy.loclBGR" horiz-adv-x="496" 
d="M142 72l11 96q53 2 94 28.5t47 72.5q4 34 -15.5 57.5t-50.5 25.5q-67 5 -131 -56l-47 88q44 44 90 66t109 22q86 0 135 -54.5t38 -146.5q-11 -93 -103 -145q40 -16 64.5 -58.5t16.5 -103.5q-12 -102 -84 -165t-167 -63q-121 0 -181 92l75 90q46 -66 118 -62
q39 2 72.5 31.5t37.5 67.5q7 57 -28.5 86t-100.5 31z" />
    <glyph glyph-name="uni0438.de-cy.loclBGR" 
d="M188 -8q-81 0 -126 54.5t-32 161.5l32 256h128l-32 -256q-12 -96 77 -96q33 0 63.5 28t37.5 84l30 240h128l-57 -464h-128l6 48q-54 -56 -127 -56z" />
    <glyph glyph-name="uni0439.de-cy.loclBGR" 
d="M374 664h64q-7 -56 -51 -96t-101 -40t-92 39.5t-28 96.5h64q-3 -29 15.5 -50.5t47.5 -21.5t53.5 21.5t27.5 50.5zM188 -8q-81 0 -126 54.5t-32 161.5l32 256h128l-32 -256q-12 -96 77 -96q33 0 63.5 28t37.5 84l30 240h128l-57 -464h-128l6 48q-54 -56 -127 -56z" />
    <glyph glyph-name="uni043A.de-cy.loclBGR" horiz-adv-x="512" 
d="M510 464l-204 -202l163 -262h-156l-100 170l-49 -48l-15 -122h-128l90 736h128l-54 -438l173 166h152z" />
    <glyph glyph-name="uni043B.de-cy.loclBGR" horiz-adv-x="512" 
d="M-43 0l257 464h112l143 -464h-144l-77 290l-147 -290h-144z" />
    <glyph glyph-name="uni043F.de-cy.loclBGR" 
d="M327 472q81 0 126 -54.5t31 -161.5l-31 -256h-128l31 256q12 96 -76 96q-33 0 -64 -28t-38 -84l-29 -240h-128l57 464h128l-6 -48q52 56 127 56z" />
    <glyph glyph-name="uni0442.de-cy.loclBGR" horiz-adv-x="816" 
d="M595 472q86 0 130.5 -54t30.5 -162l-31 -256h-128l31 256q12 96 -68 96q-31 0 -59 -25.5t-35 -86.5l-29 -240h-128l31 256q12 96 -64 96q-32 0 -61.5 -26t-36.5 -86l-29 -240h-128l57 464h128l-6 -48q55 56 135 56q81 0 117 -65q58 65 143 65z" />
    <glyph glyph-name="uni0448.de-cy.loclBGR" horiz-adv-x="816" 
d="M192 -8q-86 0 -130.5 54t-31.5 162l32 256h128l-32 -256q-7 -54 14.5 -75t54.5 -21q31 0 58.5 25.5t34.5 86.5l30 240h128l-32 -256q-12 -96 65 -96q32 0 61 26t36 86l30 240h128l-57 -464h-128l6 48q-55 -56 -135 -56q-82 0 -117 65q-59 -65 -143 -65z" />
    <glyph glyph-name="uni0449.de-cy.loclBGR" horiz-adv-x="896" 
d="M724 120h96l-29 -232h-128l14 112h-96l6 48q-55 -56 -135 -56q-82 0 -117 65q-59 -65 -143 -65q-86 0 -130.5 54t-31.5 162l32 256h128l-32 -256q-7 -54 14.5 -75t54.5 -21q31 0 58.5 25.5t34.5 86.5l30 240h128l-32 -256q-12 -96 65 -96q32 0 61 26t36 86l30 240h128
l-42 -345v1z" />
    <glyph glyph-name="uni044C.de-cy.loclBGR" horiz-adv-x="512" 
d="M43 180l35 284h128l-18 -144q135 30 208 -12t62 -136q-11 -87 -76.5 -133.5t-159.5 -46.5q-89 0 -139.5 50t-39.5 138zM170 175q-3 -31 17.5 -47t51.5 -16q34 0 60.5 15.5t29.5 40.5q6 45 -32.5 55.5t-121.5 -6.5z" />
    <glyph glyph-name="uni044A.de-cy.loclBGR" horiz-adv-x="576" 
d="M252 320q135 30 208 -12t62 -136q-11 -87 -76.5 -133.5t-159.5 -46.5q-89 0 -139.5 50t-39.5 138l20 164h-96l15 120h224zM393 168q6 45 -32.5 55.5t-121.5 -6.5l-5 -42q-3 -31 17.5 -47t51.5 -16q34 0 60.5 15.5t29.5 40.5z" />
    <glyph glyph-name="uni044E.de-cy.loclBGR" horiz-adv-x="800" 
d="M535 472q104 0 167.5 -70t50.5 -170q-12 -100 -92 -170t-185 -70q-91 0 -150 50t-69 130h-87l-21 -172h-128l90 736h128l-54 -444h86q29 80 99.5 130t164.5 50zM625 232q6 50 -24 85t-81 35t-90 -35t-45 -85t24.5 -85t81.5 -35t89.5 35t44.5 85z" />
    <glyph glyph-name="zero.subs" horiz-adv-x="395" 
d="M124 112q63 0 101 -47t29 -117q-8 -70 -57.5 -117t-112.5 -47q-62 0 -99.5 47t-29.5 117q9 70 58 117t111 47zM94 -136q26 0 47.5 23.5t25.5 60.5t-11.5 60.5t-41.5 23.5t-47 -23.5t-25 -60.5t11 -60.5t41 -23.5z" />
    <glyph glyph-name="one.subs" horiz-adv-x="296" 
d="M127 112l-1 -4h1l-39 -316h-87l26 212l-51 -16l10 80z" />
    <glyph glyph-name="two.subs" horiz-adv-x="339" 
d="M136 -106l-22 -22h75l-10 -80h-243l108 109q40 39 56 60t17 37q2 15 -6.5 24.5t-23.5 9.5q-16 0 -26.5 -9.5t-12.5 -24.5q-1 -12 7 -28l-78 -32q-19 30 -15 68q5 44 43 75t92 31q52 0 82.5 -31t25.5 -75q-6 -52 -69 -112z" />
    <glyph glyph-name="three.subs" horiz-adv-x="340" 
d="M122 -6q29 -4 52.5 -28t18.5 -71q-7 -50 -47 -80.5t-93 -30.5q-49 0 -79 29.5t-28 63.5l82 22q1 -14 9.5 -24.5t25.5 -10.5q18 0 29.5 11t13.5 26q3 23 -19 31t-42 -6l-29 49l45 49h-83l10 80h222z" />
    <glyph glyph-name="four.subs" horiz-adv-x="359" 
d="M-73 -152l125 256h86l-84 -176h34l5 41h87l-5 -41h41l-10 -80h-41l-7 -56h-87l7 56h-151z" />
    <glyph glyph-name="five.subs" horiz-adv-x="340" 
d="M62 -1q19 8 43.5 4.5t45.5 -12.5t33.5 -35t7.5 -62q-5 -46 -44 -78t-95 -32q-52 0 -80 31t-27 61l83 23q0 -14 8.5 -24.5t25.5 -10.5q18 0 29.5 11t13.5 27q4 30 -25 35.5t-44 -18.5l-71 25l44 160h172l-10 -80h-103z" />
    <glyph glyph-name="six.subs" horiz-adv-x="347" 
d="M105 8q49 -1 74.5 -32.5t20.5 -77.5q-6 -48 -45.5 -81t-94.5 -33q-56 0 -86.5 33t-24.5 81q4 31 27 64.5t111 141.5h99zM70 -136q17 0 29 11t14 27t-7.5 27t-26.5 11q-16 0 -28.5 -11t-14.5 -27t8 -27t26 -11z" />
    <glyph glyph-name="seven.subs" horiz-adv-x="308" 
d="M-26 104h244l-158 -312h-91l116 232h-121z" />
    <glyph glyph-name="eight.subs" horiz-adv-x="340" 
d="M196 19q-4 -35 -36 -62q37 -29 31 -73q-5 -41 -44 -70.5t-90 -29.5q-54 0 -84.5 29t-25.5 71q6 46 47 74q-23 25 -19 61q5 39 39 66t83 27q46 0 75 -27.5t24 -65.5zM53 12q-1 -12 7 -20t21 -8t23.5 8t11.5 20q2 11 -6.5 19.5t-21.5 8.5t-23 -8.5t-12 -19.5zM104 -112
q2 13 -7 22t-23 9q-15 0 -26 -9t-13 -22t7 -22.5t24 -9.5q14 0 25 9t13 23z" />
    <glyph glyph-name="nine.subs" horiz-adv-x="347" 
d="M56 -112q-49 1 -74.5 32.5t-20.5 77.5q6 48 45.5 81t94.5 33q56 0 86.5 -33t24.5 -81q-4 -31 -27 -64.5t-111 -141.5h-99zM91 32q-17 0 -29 -11t-14 -27t7.5 -27t26.5 -11q16 0 28.5 11t14.5 27t-8 27t-26 11z" />
    <glyph glyph-name="zero.tf" horiz-adv-x="672" 
d="M380 712q131 0 209 -103.5t59 -256.5t-122 -256.5t-234 -103.5t-209 103.5t-59 256.5t122 256.5t234 103.5zM307 112q77 0 138.5 68t74.5 172t-32.5 172t-122.5 68t-138.5 -68t-74.5 -172t32.5 -172t122.5 -68z" />
    <glyph glyph-name="one.tf" horiz-adv-x="672" 
d="M404 120h136l-15 -120h-400l15 120h136l54 440l-141 -40l14 120l274 80z" />
    <glyph glyph-name="two.tf" horiz-adv-x="672" 
d="M460 256l-128 -136h216l-15 -120h-480l244 244q96 96 129 147t38 94q6 46 -23 76.5t-76 30.5t-83 -30.5t-42 -76.5q-6 -47 20 -78l-114 -53q-42 60 -33 135q11 92 85.5 157.5t181.5 65.5q102 0 163 -64t50 -159q-14 -110 -133 -233z" />
    <glyph glyph-name="three.tf" horiz-adv-x="672" 
d="M380 450q89 -2 145.5 -59.5t43.5 -158.5q-13 -107 -91 -173.5t-192 -66.5q-108 0 -162.5 61t-55.5 139l118 30q2 -50 34 -80t81 -30q51 0 92.5 34.5t47.5 85.5q8 64 -51 92t-130 -1l-52 93l150 168h-210l15 120h448z" />
    <glyph glyph-name="four.tf" horiz-adv-x="672" 
d="M38 140l289 564h126l-219 -444h107l17 140h128l-17 -140h80l-15 -120h-80l-17 -140h-128l17 140h-288z" />
    <glyph glyph-name="five.tf" horiz-adv-x="672" 
d="M270 451q38 17 81 21t83.5 -9t72 -40.5t47 -78t7.5 -116.5q-13 -102 -89 -169t-180 -67q-103 0 -158 60t-58 140l127 34q2 -53 29 -83.5t75 -30.5q49 0 84.5 33t41.5 83q7 59 -24.5 93t-82 31.5t-95.5 -39.5l-112 31l100 360h321l-15 -120h-218z" />
    <glyph glyph-name="six.tf" horiz-adv-x="672" 
d="M335 471q110 11 179.5 -54.5t55.5 -176.5q-13 -106 -93.5 -177t-184.5 -71q-113 0 -172 69.5t-46 178.5q10 74 62.5 154.5t240.5 309.5h146zM307 112q53 0 90.5 34.5t43.5 85.5t-23 85.5t-82 34.5t-91 -34.5t-44 -85.5t23.5 -85.5t82.5 -34.5z" />
    <glyph glyph-name="seven.tf" horiz-adv-x="672" 
d="M155 704h480l-358 -704h-140l301 584h-298z" />
    <glyph glyph-name="eight.tf" horiz-adv-x="672" 
d="M579 510q-9 -82 -78 -138q70 -62 58 -158q-11 -93 -88.5 -157.5t-178.5 -64.5q-106 0 -165 64t-48 158q12 100 94 158q-51 54 -42 138q11 85 81 143.5t168 58.5q94 0 152 -59t47 -143zM259 508q-4 -35 21 -59.5t65 -24.5t71 24.5t35 59.5t-21 59.5t-65 24.5t-71 -24.5
t-35 -59.5zM431 212q5 42 -24 71t-76 29t-83 -29t-41 -71t24 -71t76 -29t83 29t41 71z" />
    <glyph glyph-name="nine.tf" horiz-adv-x="672" 
d="M337 233q-110 -11 -179.5 54.5t-55.5 176.5q13 106 93.5 177t184.5 71q113 0 172 -69.5t46 -178.5q-10 -74 -62.5 -154.5t-240.5 -309.5h-146zM365 592q-53 0 -90.5 -34.5t-43.5 -85.5t23 -85.5t82 -34.5t91 34.5t44 85.5t-23.5 85.5t-82.5 34.5z" />
    <glyph glyph-name="zero.zero" horiz-adv-x="720" 
d="M404 712q131 0 209 -103.5t59 -256.5t-122 -256.5t-234 -103.5t-209 103.5t-59 256.5t122 256.5t234 103.5zM176 352q-6 -49 2 -92l340 253q-45 79 -129 79q-77 0 -138.5 -68t-74.5 -172zM544 352q6 49 -2 93l-341 -253q45 -80 130 -80q77 0 138.5 68t74.5 172z" />
    <glyph glyph-name="zero.tf.zero" horiz-adv-x="672" 
d="M380 712q131 0 209 -103.5t59 -256.5t-122 -256.5t-234 -103.5t-209 103.5t-59 256.5t122 256.5t234 103.5zM152 352q-6 -49 2 -92l340 253q-45 79 -129 79q-77 0 -138.5 -68t-74.5 -172zM520 352q6 49 -2 93l-341 -253q45 -80 130 -80q77 0 138.5 68t74.5 172z" />
    <glyph glyph-name="zero.dnom" horiz-adv-x="395" 
d="M193 320q63 0 100.5 -47t29.5 -117q-9 -70 -58 -117t-112 -47q-62 0 -100 47t-29 117q8 70 57.5 117t111.5 47zM163 72q26 0 47.5 23.5t25.5 60.5t-11.5 60.5t-41.5 23.5t-47 -23.5t-25 -60.5t11 -60.5t41 -23.5z" />
    <glyph glyph-name="one.dnom" horiz-adv-x="296" 
d="M196 320l-1 -4h1l-39 -316h-87l26 212l-51 -16l10 80z" />
    <glyph glyph-name="two.dnom" horiz-adv-x="339" 
d="M205 102l-22 -22h75l-10 -80h-243l108 109q69 69 73 97q2 15 -6.5 24.5t-23.5 9.5q-16 0 -26.5 -9.5t-12.5 -24.5q-1 -12 7 -28l-78 -32q-20 32 -15 68q5 44 43 75t92 31q52 0 82.5 -31t25.5 -75q-6 -52 -69 -112z" />
    <glyph glyph-name="three.dnom" horiz-adv-x="340" 
d="M191 202q29 -4 52.5 -28t17.5 -71q-6 -50 -46 -80.5t-93 -30.5q-49 0 -79 29.5t-28 63.5l82 22q1 -14 9.5 -24.5t25.5 -10.5q18 0 29.5 11t13.5 26q3 23 -19 31t-42 -6l-29 49l45 49h-83l10 80h222z" />
    <glyph glyph-name="four.dnom" horiz-adv-x="359" 
d="M-4 56l125 256h86l-85 -176h34l6 41h87l-6 -41h41l-9 -80h-41l-7 -56h-87l7 56h-151z" />
    <glyph glyph-name="five.dnom" horiz-adv-x="340" 
d="M131 207q19 8 43.5 4.5t45.5 -12.5t33.5 -35t7.5 -62q-5 -46 -44 -78t-95 -32q-52 0 -80 31t-27 61l83 23q0 -14 8.5 -24.5t25.5 -10.5q18 0 29.5 11t13.5 27q4 30 -25 35.5t-45 -18.5l-71 25l45 160h172l-10 -80h-103z" />
    <glyph glyph-name="six.dnom" horiz-adv-x="347" 
d="M174 216q49 -1 74.5 -32.5t20.5 -77.5q-6 -48 -45.5 -81t-94.5 -33q-56 0 -86.5 33t-24.5 81q4 31 27 64.5t111 141.5h99zM139 72q17 0 29 11t14 27t-7.5 27t-26.5 11q-16 0 -28.5 -11t-14.5 -27t8 -27t26 -11z" />
    <glyph glyph-name="seven.dnom" horiz-adv-x="308" 
d="M43 312h244l-158 -312h-91l116 232h-121z" />
    <glyph glyph-name="eight.dnom" horiz-adv-x="340" 
d="M265 227q-4 -36 -36 -61q37 -32 31 -74q-5 -41 -44 -70.5t-90 -29.5q-54 0 -84.5 29t-25.5 71q6 44 46 74q-22 26 -18 61q5 39 39 66t83 27q46 0 75 -27.5t24 -65.5zM122 220q-2 -12 6 -20t22 -8q13 0 23.5 8t11.5 20q1 11 -7 19.5t-21 8.5t-23 -8.5t-12 -19.5zM173 96
q1 13 -8 22t-23 9q-15 0 -25.5 -9t-12.5 -22t7 -22.5t24 -9.5q14 0 25 9t13 23z" />
    <glyph glyph-name="nine.dnom" horiz-adv-x="347" 
d="M125 96q-49 1 -74.5 32.5t-20.5 77.5q6 48 45.5 81t94.5 33q56 0 86.5 -33t24.5 -81q-4 -31 -27 -64.5t-111 -141.5h-99zM160 240q-17 0 -29 -11t-14 -27t7.5 -27t26.5 -11q16 0 28.5 11t14.5 27t-8 27t-26 11z" />
    <glyph glyph-name="zero.numr" horiz-adv-x="395" 
d="M241 712q63 0 101 -47t29 -117q-8 -70 -57.5 -117t-112.5 -47q-62 0 -99.5 47t-29.5 117q9 70 58 117t111 47zM211 464q26 0 47.5 23.5t25.5 60.5t-11.5 60.5t-41.5 23.5t-47 -23.5t-25 -60.5t11 -60.5t41 -23.5z" />
    <glyph glyph-name="one.numr" horiz-adv-x="296" 
d="M244 712l-1 -4h1l-39 -316h-87l26 212l-51 -16l10 80z" />
    <glyph glyph-name="two.numr" horiz-adv-x="339" 
d="M253 494l-22 -22h75l-10 -80h-243l108 109q40 39 56 60t17 37q2 15 -6.5 24.5t-23.5 9.5q-16 0 -26.5 -9.5t-12.5 -24.5q-1 -12 7 -28l-78 -32q-19 30 -15 68q5 44 43 75t92 31q52 0 82.5 -31t25.5 -75q-6 -52 -69 -112z" />
    <glyph glyph-name="three.numr" horiz-adv-x="340" 
d="M239 594q29 -4 52.5 -28t18.5 -71q-7 -50 -47 -80.5t-93 -30.5q-49 0 -79 29.5t-28 63.5l82 22q1 -14 9.5 -24.5t25.5 -10.5q18 0 29.5 11t13.5 26q3 23 -19 31t-42 -6l-29 49l45 49h-83l10 80h222z" />
    <glyph glyph-name="four.numr" horiz-adv-x="359" 
d="M44 448l125 256h86l-84 -176h34l5 41h87l-5 -41h41l-10 -80h-41l-7 -56h-87l7 56h-151z" />
    <glyph glyph-name="five.numr" horiz-adv-x="340" 
d="M179 599q19 8 43.5 4.5t45.5 -12.5t33.5 -35t7.5 -62q-5 -46 -44 -78t-95 -32q-52 0 -80 31t-27 61l83 23q0 -14 8.5 -24.5t25.5 -10.5q18 0 29.5 11t13.5 27q4 30 -25 35.5t-44 -18.5l-71 25l44 160h172l-10 -80h-103z" />
    <glyph glyph-name="six.numr" horiz-adv-x="347" 
d="M222 608q49 -1 74.5 -32.5t20.5 -77.5q-6 -48 -45.5 -81t-94.5 -33q-56 0 -86.5 33t-24.5 81q4 31 27 64.5t111 141.5h99zM187 464q17 0 29 11t14 27t-7.5 27t-26.5 11q-16 0 -28.5 -11t-14.5 -27t8 -27t26 -11z" />
    <glyph glyph-name="seven.numr" horiz-adv-x="308" 
d="M91 704h244l-158 -312h-91l116 232h-121z" />
    <glyph glyph-name="eight.numr" horiz-adv-x="340" 
d="M313 619q-4 -35 -36 -62q37 -29 31 -73q-5 -41 -44 -70.5t-90 -29.5q-54 0 -84.5 29t-25.5 71q6 46 47 74q-23 25 -19 61q5 39 39 66t83 27q46 0 75 -27.5t24 -65.5zM170 612q-2 -12 6 -20t22 -8q13 0 23.5 8t11.5 20q1 11 -7 19.5t-21 8.5t-23 -8.5t-12 -19.5zM221 488
q2 13 -7 22t-23 9q-15 0 -26 -9t-13 -22t7 -22.5t24 -9.5q14 0 25 9t13 23z" />
    <glyph glyph-name="nine.numr" horiz-adv-x="347" 
d="M173 488q-49 1 -74.5 32.5t-20.5 77.5q6 48 45.5 81t94.5 33q56 0 86.5 -33t24.5 -81q-4 -31 -27 -64.5t-111 -141.5h-99zM208 632q-17 0 -29 -11t-14 -27t7.5 -27t26.5 -11q16 0 28.5 11t14.5 27t-8 27t-26 11z" />
    <glyph glyph-name="exclam.case" horiz-adv-x="288" 
d="M72 224l43 480h144l-75 -480h-112zM100 -8q-34 0 -54 23t-16 57t29.5 57t59.5 23t54.5 -23t16.5 -57q-5 -34 -30.5 -57t-59.5 -23z" />
    <glyph glyph-name="exclamdown.case" horiz-adv-x="288" 
d="M188 712q34 0 54 -23t16 -57t-29.5 -57t-59.5 -23t-54.5 23t-16.5 57q5 34 30.5 57t59.5 23zM104 480h112l-43 -480h-144z" />
    <glyph glyph-name="question.case" horiz-adv-x="480" 
d="M262 712q102 0 151 -58.5t39 -137.5q-5 -43 -26 -80t-40.5 -56.5t-58.5 -51.5q-54 -45 -63 -104h-112q6 75 48 131q17 22 48.5 48t51 49t23.5 54q5 38 -17 62t-63 24q-31 0 -56.5 -15.5t-39.5 -35.5l-66 80q71 91 181 91zM199 152q34 0 54.5 -23t16.5 -57
q-5 -34 -30.5 -57t-59.5 -23t-54 23t-16 57t29.5 57t59.5 23z" />
    <glyph glyph-name="questiondown.case" horiz-adv-x="480" 
d="M281 552q-34 0 -54.5 23t-16.5 57q5 34 30.5 57t59.5 23t54 -23t16 -57t-29.5 -57t-59.5 -23zM218 -8q-102 0 -151 58.5t-39 137.5q5 43 26 80t40.5 56.5t58.5 51.5q54 45 63 104h112q-6 -75 -48 -131q-17 -22 -48.5 -48t-51 -49t-23.5 -54q-5 -38 17 -62t63 -24
q31 0 56.5 15.5t39.5 35.5l66 -80q-71 -91 -181 -91z" />
    <glyph glyph-name="braceleft.case" horiz-adv-x="352" 
d="M43 308l10 88q31 1 50 19t22 45l31 254q20 157 167 182l36 -92q-66 -17 -77 -106l-24 -200q-13 -114 -93 -146q71 -31 57 -146l-24 -200q-11 -89 51 -106l-60 -92q-141 25 -121 182l31 254q3 27 -11.5 45t-44.5 19z" />
    <glyph glyph-name="braceright.case" horiz-adv-x="352" 
d="M299 308q-31 -1 -50 -19t-22 -45l-31 -254q-20 -157 -167 -182l-36 92q66 17 77 106l24 200q13 114 93 146q-71 31 -57 146l24 200q11 89 -51 106l60 92q141 -25 121 -182l-31 -254q-3 -27 11.5 -45t44.5 -19z" />
    <glyph glyph-name="bracketleft.case" horiz-adv-x="336" 
d="M242 760l-100 -816h80l-15 -120h-208l130 1056h208l-15 -120h-80z" />
    <glyph glyph-name="bracketright.case" horiz-adv-x="336" 
d="M194 760h-80l15 120h208l-130 -1056h-208l15 120h80z" />
    <glyph glyph-name="parenleft.case" horiz-adv-x="304" 
d="M323 768q-121 -198 -147 -416q-27 -224 45 -416l-112 -64q-94 212 -61 480q34 270 179 480z" />
    <glyph glyph-name="parenright.case" horiz-adv-x="304" 
d="M83 768l112 64q94 -212 61 -480q-34 -270 -179 -480l-96 64q121 198 147 416q27 224 -45 416z" />
    <glyph glyph-name="emdash.case" horiz-adv-x="624" 
d="M570 304h-528l12 96h528z" />
    <glyph glyph-name="endash.case" horiz-adv-x="528" 
d="M474 304h-432l12 96h432z" />
    <glyph glyph-name="hyphen.case" horiz-adv-x="400" 
d="M346 304h-304l12 96h304z" />
    <glyph glyph-name="guillemotleft.case" horiz-adv-x="576" 
d="M193 552l81 -52l-112 -148l75 -156l-94 -44l-95 200zM514 500l-112 -148l75 -156l-94 -44l-95 200l145 200z" />
    <glyph glyph-name="guillemotright.case" horiz-adv-x="576" 
d="M98 500l95 52l95 -200l-145 -200l-82 44l113 156zM433 552l95 -200l-145 -200l-82 44l113 156l-76 148z" />
    <glyph glyph-name="guilsinglleft.case" horiz-adv-x="336" 
d="M274 500l-112 -148l75 -156l-94 -44l-95 200l145 200z" />
    <glyph glyph-name="guilsinglright.case" horiz-adv-x="336" 
d="M98 500l95 52l95 -200l-145 -200l-82 44l113 156z" />
    <glyph glyph-name="parenleft_one_parenright.dlig" horiz-adv-x="832" 
d="M461 720q156 0 249 -106t74 -262q-20 -156 -138.5 -262t-274.5 -106q-155 0 -248.5 107t-74.5 261q20 156 138.5 262t274.5 106zM688 352q14 114 -55.5 193t-183.5 79t-202.5 -79t-102.5 -193t55.5 -193t183.5 -79t202.5 79t102.5 193zM324 417l11 88l167 55l-50 -400
h-96l35 278z" />
    <glyph glyph-name="parenleft_two_parenright.dlig" horiz-adv-x="832" 
d="M371 -16q-155 0 -248.5 107t-74.5 261q20 156 138.5 262t274.5 106t249 -106t74 -262q-20 -156 -138.5 -262t-274.5 -106zM383 80q114 0 202.5 79t102.5 193t-55.5 193t-183.5 79t-202.5 -79t-102.5 -193t55.5 -193t183.5 -79zM500 302l-57 -62h104l-10 -80h-291l136 136
q53 53 71 80.5t21 50.5q4 25 -10.5 39.5t-35.5 14.5t-39 -14.5t-22 -39.5q-2 -27 6 -41l-86 -34q-22 31 -16 75q7 54 54 94t113 40q63 0 101 -39t31 -95t-70 -125z" />
    <glyph glyph-name="parenleft_three_parenright.dlig" horiz-adv-x="832" 
d="M371 -16q-155 0 -248.5 107t-74.5 261q20 156 138.5 262t274.5 106t249 -106t74 -262q-20 -156 -138.5 -262t-274.5 -106zM383 80q114 0 202.5 79t102.5 193t-55.5 193t-183.5 79t-202.5 -79t-102.5 -193t55.5 -193t183.5 -79zM458 403q46 -2 75.5 -33.5t22.5 -87.5
q-7 -59 -55.5 -98.5t-114.5 -39.5q-64 0 -98.5 36.5t-31.5 79.5l89 18q0 -23 14.5 -38.5t36.5 -15.5q24 0 42.5 15t21.5 43q5 35 -26.5 47t-57.5 -6l-36 61l72 81h-114l10 80h272z" />
    <glyph glyph-name="parenleft_four_parenright.dlig" horiz-adv-x="832" 
d="M371 -16q-155 0 -248.5 107t-74.5 261q20 156 138.5 262t274.5 106t249 -106t74 -262q-20 -156 -138.5 -262t-274.5 -106zM383 80q114 0 202.5 79t102.5 193t-55.5 193t-183.5 79t-202.5 -79t-102.5 -193t55.5 -193t183.5 -79zM230 228l157 320h95l-113 -240h47l8 71h96
l-8 -71h36l-10 -80h-36l-9 -72h-96l9 72h-176z" />
    <glyph glyph-name="parenleft_five_parenright.dlig" horiz-adv-x="832" 
d="M461 720q156 0 249 -106t74 -262q-20 -156 -138.5 -262t-274.5 -106q-155 0 -248.5 107t-74.5 261q20 156 138.5 262t274.5 106zM688 352q14 114 -55.5 193t-183.5 79t-202.5 -79t-102.5 -193t55.5 -193t183.5 -79t202.5 79t102.5 193zM386 412q22 7 46.5 8t49 -7
t42.5 -23t27.5 -43t4.5 -65q-7 -57 -55 -97.5t-115 -40.5q-65 0 -99.5 36t-31.5 80l90 17q0 -23 14.5 -38t36.5 -15q24 0 42.5 15.5t21.5 42.5q5 42 -26 56t-72 -13l-84 19l56 200h212l-10 -80h-136z" />
    <glyph glyph-name="parenleft_six_parenright.dlig" horiz-adv-x="832" 
d="M371 -16q-155 0 -248.5 107t-74.5 261q20 156 138.5 262t274.5 106t249 -106t74 -262q-20 -156 -138.5 -262t-274.5 -106zM383 80q114 0 202.5 79t102.5 193t-55.5 193t-183.5 79t-202.5 -79t-102.5 -193t55.5 -193t183.5 -79zM429 428q64 -1 100 -42.5t29 -99.5
q-8 -60 -56.5 -101t-115.5 -41q-68 0 -106 41t-30 101q5 40 33.5 81.5t139.5 176.5h104zM396 224q25 0 44 18t22 44q3 27 -11 44.5t-39 17.5t-44 -18t-22 -44t11 -44t39 -18z" />
    <glyph glyph-name="parenleft_seven_parenright.dlig" horiz-adv-x="832" 
d="M371 -16q-155 0 -248.5 107t-74.5 261q20 156 138.5 262t274.5 106t249 -106t74 -262q-20 -156 -138.5 -262t-274.5 -106zM383 80q114 0 202.5 79t102.5 193t-55.5 193t-183.5 79t-202.5 -79t-102.5 -193t55.5 -193t183.5 -79zM310 548h283l-199 -392h-101l158 312h-151z
" />
    <glyph glyph-name="parenleft_eight_parenright.dlig" horiz-adv-x="832" 
d="M461 720q156 0 249 -106t74 -262q-20 -156 -138.5 -262t-274.5 -106q-155 0 -248.5 107t-74.5 261q20 156 138.5 262t274.5 106zM688 352q14 114 -55.5 193t-183.5 79t-202.5 -79t-102.5 -193t55.5 -193t183.5 -79t202.5 79t102.5 193zM441 556q59 0 95.5 -33.5
t30.5 -81.5t-47 -79q42 -38 35 -90q-6 -52 -53.5 -88t-110.5 -36q-65 0 -102.5 35.5t-31.5 88.5q8 55 55 90q-31 34 -25 79q6 49 49.5 82t104.5 33zM382 436q-2 -17 9.5 -28.5t29.5 -11.5t33 12t16 28q2 17 -9.5 28.5t-29.5 11.5t-32.5 -11.5t-16.5 -28.5zM460 276
q2 21 -11.5 35t-35.5 14t-39.5 -14t-19.5 -35q-3 -20 11 -34t36 -14t39 14t20 34z" />
    <glyph glyph-name="parenleft_nine_parenright.dlig" horiz-adv-x="832" 
d="M371 -16q-155 0 -248.5 107t-74.5 261q20 156 138.5 262t274.5 106t249 -106t74 -262q-20 -156 -138.5 -262t-274.5 -106zM383 80q114 0 202.5 79t102.5 193t-55.5 193t-183.5 79t-202.5 -79t-102.5 -193t55.5 -193t183.5 -79zM403 276q-64 1 -100 42.5t-29 99.5
q8 60 56.5 101t115.5 41q68 0 106 -41t30 -101q-5 -40 -33.5 -81.5t-139.5 -176.5h-104zM436 480q-25 0 -44 -18t-22 -44q-3 -27 11 -44.5t39 -17.5t44 18t22 44t-11 44t-39 18z" />
    <glyph glyph-name="copyright.ss02" horiz-adv-x="504" 
d="M246 304q-86 0 -138 59.5t-41 144.5q10 86 76.5 145t152.5 59t138 -59t41 -145q-10 -86 -76.5 -145t-152.5 -59zM253 358q63 0 112 43.5t56 106.5q8 63 -30 106.5t-101 43.5t-112.5 -43.5t-56.5 -106.5q-8 -63 30.5 -106.5t101.5 -43.5zM267 439q23 0 46 15l21 -41
q-32 -24 -74 -24q-51 0 -83 35t-26 84t46.5 84t91.5 35q43 0 69 -24l-32 -41q-18 15 -42 15q-29 0 -52 -20t-27 -49t14.5 -49t47.5 -20z" />
    <glyph glyph-name="registered.ss02" horiz-adv-x="504" 
d="M246 304q-86 0 -138 59.5t-41 144.5q10 86 76.5 145t152.5 59t138 -59t41 -145q-10 -86 -76.5 -145t-152.5 -59zM253 358q63 0 112 43.5t56 106.5q8 63 -30 106.5t-101 43.5t-112.5 -43.5t-56.5 -106.5q-8 -63 30.5 -106.5t101.5 -43.5zM341 395h-60l-25 62h-9l-8 -62
h-55l28 226h59q46 0 66.5 -22.5t16.5 -57.5q-5 -48 -46 -70zM261 573l-8 -68h4q18 0 29.5 9.5t13.5 24.5q2 16 -7.5 25t-27.5 9h-4z" />
    <glyph glyph-name="trademark.ss02" horiz-adv-x="628" 
d="M624 710l-39 -320h-72l18 152l-82 -80l-63 80l-18 -152h-72l39 320l125 -152zM91 704h205l-8 -65h-66l-30 -249h-73l30 249h-66z" />
    </font>
</defs>
</svg>
